<svg width="360" height="499" viewBox="0 0 360 499" fill="none" xmlns="http://www.w3.org/2000/svg">
<rect width="360" height="499" fill="#301446"/>
<path d="M77.064 96.48C74.504 96.48 72.12 96.064 69.912 95.232C67.736 94.368 65.832 93.168 64.2 91.632C62.6 90.064 61.352 88.224 60.456 86.112C59.56 84 59.112 81.696 59.112 79.2C59.112 76.704 59.56 74.4 60.456 72.288C61.352 70.176 62.616 68.352 64.248 66.816C65.88 65.248 67.784 64.048 69.96 63.216C72.136 62.352 74.52 61.92 77.112 61.92C79.864 61.92 82.376 62.4 84.648 63.36C86.92 64.288 88.84 65.68 90.408 67.536L86.376 71.328C85.16 70.016 83.8 69.04 82.296 68.4C80.792 67.728 79.16 67.392 77.4 67.392C75.64 67.392 74.024 67.68 72.552 68.256C71.112 68.832 69.848 69.648 68.76 70.704C67.704 71.76 66.872 73.008 66.264 74.448C65.688 75.888 65.4 77.472 65.4 79.2C65.4 80.928 65.688 82.512 66.264 83.952C66.872 85.392 67.704 86.64 68.76 87.696C69.848 88.752 71.112 89.568 72.552 90.144C74.024 90.72 75.64 91.008 77.4 91.008C79.16 91.008 80.792 90.688 82.296 90.048C83.8 89.376 85.16 88.368 86.376 87.024L90.408 90.864C88.84 92.688 86.92 94.08 84.648 95.04C82.376 96 79.848 96.48 77.064 96.48ZM103.467 96.336C100.843 96.336 98.5066 95.776 96.4586 94.656C94.4106 93.504 92.7946 91.936 91.6106 89.952C90.4266 87.968 89.8346 85.712 89.8346 83.184C89.8346 80.624 90.4266 78.368 91.6106 76.416C92.7946 74.432 94.4106 72.88 96.4586 71.76C98.5066 70.64 100.843 70.08 103.467 70.08C106.123 70.08 108.475 70.64 110.523 71.76C112.603 72.88 114.219 74.416 115.371 76.368C116.555 78.32 117.147 80.592 117.147 83.184C117.147 85.712 116.555 87.968 115.371 89.952C114.219 91.936 112.603 93.504 110.523 94.656C108.475 95.776 106.123 96.336 103.467 96.336ZM103.467 91.2C104.939 91.2 106.251 90.88 107.403 90.24C108.555 89.6 109.451 88.672 110.091 87.456C110.763 86.24 111.099 84.816 111.099 83.184C111.099 81.52 110.763 80.096 110.091 78.912C109.451 77.696 108.555 76.768 107.403 76.128C106.251 75.488 104.955 75.168 103.515 75.168C102.043 75.168 100.731 75.488 99.5786 76.128C98.4586 76.768 97.5626 77.696 96.8906 78.912C96.2186 80.096 95.8826 81.52 95.8826 83.184C95.8826 84.816 96.2186 86.24 96.8906 87.456C97.5626 88.672 98.4586 89.6 99.5786 90.24C100.731 90.88 102.027 91.2 103.467 91.2ZM134.548 70.08C136.596 70.08 138.42 70.48 140.02 71.28C141.652 72.08 142.932 73.312 143.86 74.976C144.788 76.608 145.252 78.72 145.252 81.312V96H139.252V82.08C139.252 79.808 138.708 78.112 137.62 76.992C136.564 75.872 135.076 75.312 133.156 75.312C131.748 75.312 130.5 75.6 129.412 76.176C128.324 76.752 127.476 77.616 126.868 78.768C126.292 79.888 126.004 81.312 126.004 83.04V96H120.004V70.368H125.716V77.28L124.708 75.168C125.604 73.536 126.9 72.288 128.596 71.424C130.324 70.528 132.308 70.08 134.548 70.08ZM159.632 96.336C156.816 96.336 154.64 95.616 153.104 94.176C151.568 92.704 150.8 90.544 150.8 87.696V64.704H156.8V87.552C156.8 88.768 157.104 89.712 157.712 90.384C158.352 91.056 159.232 91.392 160.352 91.392C161.696 91.392 162.816 91.04 163.712 90.336L165.392 94.608C164.688 95.184 163.824 95.616 162.8 95.904C161.776 96.192 160.72 96.336 159.632 96.336ZM146.576 75.36V70.56H163.664V75.36H146.576ZM183.239 96V90.816L182.903 89.712V80.64C182.903 78.88 182.375 77.52 181.319 76.56C180.263 75.568 178.663 75.072 176.519 75.072C175.079 75.072 173.655 75.296 172.247 75.744C170.871 76.192 169.703 76.816 168.743 77.616L166.391 73.248C167.767 72.192 169.399 71.408 171.287 70.896C173.207 70.352 175.191 70.08 177.239 70.08C180.951 70.08 183.815 70.976 185.831 72.768C187.879 74.528 188.903 77.264 188.903 80.976V96H183.239ZM175.175 96.336C173.255 96.336 171.575 96.016 170.135 95.376C168.695 94.704 167.575 93.792 166.775 92.64C166.007 91.456 165.623 90.128 165.623 88.656C165.623 87.216 165.959 85.92 166.631 84.768C167.335 83.616 168.471 82.704 170.039 82.032C171.607 81.36 173.687 81.024 176.279 81.024H183.719V85.008H176.711C174.663 85.008 173.287 85.344 172.583 86.016C171.879 86.656 171.527 87.456 171.527 88.416C171.527 89.504 171.959 90.368 172.823 91.008C173.687 91.648 174.887 91.968 176.423 91.968C177.895 91.968 179.207 91.632 180.359 90.96C181.543 90.288 182.391 89.296 182.903 87.984L183.911 91.584C183.335 93.088 182.295 94.256 180.791 95.088C179.319 95.92 177.447 96.336 175.175 96.336ZM205.53 96.336C202.842 96.336 200.442 95.776 198.33 94.656C196.25 93.504 194.618 91.936 193.434 89.952C192.25 87.968 191.658 85.712 191.658 83.184C191.658 80.624 192.25 78.368 193.434 76.416C194.618 74.432 196.25 72.88 198.33 71.76C200.442 70.64 202.842 70.08 205.53 70.08C208.026 70.08 210.218 70.592 212.106 71.616C214.026 72.608 215.482 74.08 216.474 76.032L211.866 78.72C211.098 77.504 210.154 76.608 209.034 76.032C207.946 75.456 206.762 75.168 205.482 75.168C204.01 75.168 202.682 75.488 201.498 76.128C200.314 76.768 199.386 77.696 198.714 78.912C198.042 80.096 197.706 81.52 197.706 83.184C197.706 84.848 198.042 86.288 198.714 87.504C199.386 88.688 200.314 89.6 201.498 90.24C202.682 90.88 204.01 91.2 205.482 91.2C206.762 91.2 207.946 90.912 209.034 90.336C210.154 89.76 211.098 88.864 211.866 87.648L216.474 90.336C215.482 92.256 214.026 93.744 212.106 94.8C210.218 95.824 208.026 96.336 205.53 96.336ZM228.757 96.336C225.941 96.336 223.765 95.616 222.229 94.176C220.693 92.704 219.925 90.544 219.925 87.696V64.704H225.925V87.552C225.925 88.768 226.229 89.712 226.837 90.384C227.477 91.056 228.357 91.392 229.477 91.392C230.821 91.392 231.941 91.04 232.837 90.336L234.517 94.608C233.813 95.184 232.949 95.616 231.925 95.904C230.901 96.192 229.845 96.336 228.757 96.336ZM215.701 75.36V70.56H232.789V75.36H215.701ZM261.982 96.48C257.374 96.48 253.758 95.184 251.134 92.592C248.542 90 247.246 86.256 247.246 81.36V62.4H253.486V81.12C253.486 84.576 254.222 87.088 255.694 88.656C257.198 90.224 259.31 91.008 262.03 91.008C264.75 91.008 266.846 90.224 268.318 88.656C269.79 87.088 270.526 84.576 270.526 81.12V62.4H276.67V81.36C276.67 86.256 275.358 90 272.734 92.592C270.142 95.184 266.558 96.48 261.982 96.48ZM289.874 96.336C287.73 96.336 285.666 96.064 283.682 95.52C281.73 94.944 280.178 94.256 279.026 93.456L281.33 88.896C282.482 89.632 283.858 90.24 285.458 90.72C287.058 91.2 288.658 91.44 290.258 91.44C292.146 91.44 293.506 91.184 294.338 90.672C295.202 90.16 295.634 89.472 295.634 88.608C295.634 87.904 295.346 87.376 294.77 87.024C294.194 86.64 293.442 86.352 292.514 86.16C291.586 85.968 290.546 85.792 289.394 85.632C288.274 85.472 287.138 85.264 285.986 85.008C284.866 84.72 283.842 84.32 282.914 83.808C281.986 83.264 281.234 82.544 280.658 81.648C280.082 80.752 279.794 79.568 279.794 78.096C279.794 76.464 280.258 75.056 281.186 73.872C282.114 72.656 283.41 71.728 285.074 71.088C286.77 70.416 288.77 70.08 291.074 70.08C292.802 70.08 294.546 70.272 296.306 70.656C298.066 71.04 299.522 71.584 300.674 72.288L298.37 76.848C297.154 76.112 295.922 75.616 294.674 75.36C293.458 75.072 292.242 74.928 291.026 74.928C289.202 74.928 287.842 75.2 286.946 75.744C286.082 76.288 285.65 76.976 285.65 77.808C285.65 78.576 285.938 79.152 286.514 79.536C287.09 79.92 287.842 80.224 288.77 80.448C289.698 80.672 290.722 80.864 291.842 81.024C292.994 81.152 294.13 81.36 295.25 81.648C296.37 81.936 297.394 82.336 298.322 82.848C299.282 83.328 300.05 84.016 300.626 84.912C301.202 85.808 301.49 86.976 301.49 88.416C301.49 90.016 301.01 91.408 300.05 92.592C299.122 93.776 297.794 94.704 296.066 95.376C294.338 96.016 292.274 96.336 289.874 96.336Z" fill="white"/>
<path d="M32.4959 151V134.08H43.3439V136.072H34.9919V141.496H42.7919V143.488H34.9919V151H32.4959ZM50.6358 151.216C49.4358 151.216 48.3958 150.968 47.5158 150.472C46.6358 149.96 45.9558 149.24 45.4758 148.312C44.9958 147.368 44.7558 146.248 44.7558 144.952C44.7558 143.656 44.9958 142.544 45.4758 141.616C45.9558 140.672 46.6358 139.952 47.5158 139.456C48.3958 138.944 49.4358 138.688 50.6358 138.688C51.8358 138.688 52.8758 138.944 53.7558 139.456C54.6518 139.952 55.3398 140.672 55.8198 141.616C56.3158 142.544 56.5638 143.656 56.5638 144.952C56.5638 146.248 56.3158 147.368 55.8198 148.312C55.3398 149.24 54.6518 149.96 53.7558 150.472C52.8758 150.968 51.8358 151.216 50.6358 151.216ZM50.6358 149.32C51.6918 149.32 52.5318 148.952 53.1558 148.216C53.7798 147.48 54.0918 146.392 54.0918 144.952C54.0918 143.512 53.7798 142.432 53.1558 141.712C52.5318 140.976 51.6918 140.608 50.6358 140.608C49.5958 140.608 48.7638 140.976 48.1398 141.712C47.5158 142.432 47.2038 143.512 47.2038 144.952C47.2038 146.392 47.5078 147.48 48.1158 148.216C48.7398 148.952 49.5798 149.32 50.6358 149.32ZM59.3491 151V141.904C59.3491 141.408 59.3331 140.912 59.3011 140.416C59.2851 139.904 59.2531 139.4 59.2051 138.904H61.5571L61.8211 142.024H61.4371C61.5971 141.272 61.8691 140.648 62.2531 140.152C62.6371 139.656 63.1011 139.288 63.6451 139.048C64.2051 138.808 64.7891 138.688 65.3971 138.688C65.6531 138.688 65.8691 138.704 66.0451 138.736C66.2211 138.752 66.3971 138.784 66.5731 138.832L66.5491 140.992C66.2771 140.88 66.0371 140.816 65.8291 140.8C65.6371 140.768 65.3971 140.752 65.1091 140.752C64.4051 140.752 63.8051 140.912 63.3091 141.232C62.8131 141.536 62.4371 141.952 62.1811 142.48C61.9251 143.008 61.7971 143.576 61.7971 144.184V151H59.3491ZM75.5624 151V140.776H73.2104V138.904H76.2344L75.5624 139.528V137.608C75.5624 136.184 75.9224 135.104 76.6424 134.368C77.3624 133.616 78.4184 133.24 79.8104 133.24C80.1464 133.24 80.4984 133.264 80.8664 133.312C81.2344 133.36 81.5384 133.44 81.7784 133.552V135.52C81.5864 135.44 81.3464 135.376 81.0584 135.328C80.7864 135.264 80.5064 135.232 80.2184 135.232C79.7544 135.232 79.3544 135.328 79.0184 135.52C78.6824 135.696 78.4184 135.968 78.2264 136.336C78.0504 136.704 77.9624 137.176 77.9624 137.752V139.384L77.6024 138.904H81.2504V140.776H77.9864V151H75.5624ZM87.5759 151.216C86.1199 151.216 85.0239 150.824 84.2879 150.04C83.5679 149.24 83.2079 148.016 83.2079 146.368V138.904H85.6319V146.32C85.6319 147.328 85.8399 148.072 86.2559 148.552C86.6719 149.032 87.3039 149.272 88.1519 149.272C89.1119 149.272 89.8879 148.952 90.4799 148.312C91.0719 147.672 91.3679 146.824 91.3679 145.768V138.904H93.7919V151H91.4399V148.408H91.7519C91.4159 149.304 90.8799 150 90.1439 150.496C89.4079 150.976 88.5519 151.216 87.5759 151.216ZM97.2944 151V141.904C97.2944 141.408 97.2784 140.912 97.2464 140.416C97.2304 139.904 97.1984 139.4 97.1504 138.904H99.5024L99.7664 142.024H99.3824C99.5424 141.272 99.8144 140.648 100.198 140.152C100.582 139.656 101.046 139.288 101.59 139.048C102.15 138.808 102.734 138.688 103.342 138.688C103.598 138.688 103.814 138.704 103.99 138.736C104.166 138.752 104.342 138.784 104.518 138.832L104.494 140.992C104.222 140.88 103.982 140.816 103.774 140.8C103.582 140.768 103.342 140.752 103.054 140.752C102.35 140.752 101.75 140.912 101.254 141.232C100.758 141.536 100.382 141.952 100.126 142.48C99.8704 143.008 99.7424 143.576 99.7424 144.184V151H97.2944ZM111.75 151.216C110.438 151.216 109.446 150.864 108.774 150.16C108.102 149.44 107.766 148.368 107.766 146.944V140.776H105.414V138.904H107.766V135.712L110.19 135.064V138.904H113.55V140.776H110.19V146.728C110.19 147.624 110.35 148.264 110.67 148.648C110.99 149.032 111.454 149.224 112.062 149.224C112.366 149.224 112.63 149.2 112.854 149.152C113.094 149.088 113.31 149.016 113.502 148.936V150.904C113.262 151 112.982 151.072 112.662 151.12C112.342 151.184 112.038 151.216 111.75 151.216ZM115.764 151V133.336H118.188V141.472H117.852C118.204 140.56 118.772 139.872 119.556 139.408C120.34 138.928 121.244 138.688 122.268 138.688C123.708 138.688 124.78 139.088 125.484 139.888C126.188 140.672 126.54 141.864 126.54 143.464V151H124.116V143.608C124.116 142.568 123.908 141.816 123.492 141.352C123.092 140.872 122.452 140.632 121.572 140.632C120.548 140.632 119.724 140.952 119.1 141.592C118.492 142.216 118.188 143.048 118.188 144.088V151H115.764ZM135.583 151.216C133.631 151.216 132.095 150.664 130.975 149.56C129.855 148.456 129.295 146.928 129.295 144.976C129.295 143.712 129.535 142.608 130.015 141.664C130.511 140.72 131.191 139.992 132.055 139.48C132.935 138.952 133.951 138.688 135.103 138.688C136.239 138.688 137.191 138.928 137.959 139.408C138.727 139.888 139.311 140.568 139.711 141.448C140.111 142.312 140.311 143.336 140.311 144.52V145.288H131.191V143.896H138.655L138.247 144.208C138.247 143.008 137.975 142.08 137.431 141.424C136.903 140.752 136.135 140.416 135.127 140.416C134.007 140.416 133.143 140.808 132.535 141.592C131.927 142.36 131.623 143.424 131.623 144.784V145.024C131.623 146.448 131.967 147.52 132.655 148.24C133.359 148.96 134.351 149.32 135.631 149.32C136.335 149.32 136.991 149.224 137.599 149.032C138.223 148.824 138.815 148.488 139.375 148.024L140.167 149.68C139.607 150.176 138.927 150.56 138.127 150.832C137.327 151.088 136.479 151.216 135.583 151.216ZM143.044 151V141.904C143.044 141.408 143.028 140.912 142.996 140.416C142.98 139.904 142.948 139.4 142.9 138.904H145.252L145.516 142.024H145.132C145.292 141.272 145.564 140.648 145.948 140.152C146.332 139.656 146.796 139.288 147.34 139.048C147.9 138.808 148.484 138.688 149.092 138.688C149.348 138.688 149.564 138.704 149.74 138.736C149.916 138.752 150.092 138.784 150.268 138.832L150.244 140.992C149.972 140.88 149.732 140.816 149.524 140.8C149.332 140.768 149.092 140.752 148.804 140.752C148.1 140.752 147.5 140.912 147.004 141.232C146.508 141.536 146.132 141.952 145.876 142.48C145.62 143.008 145.492 143.576 145.492 144.184V151H143.044ZM163.842 151.216C162.626 151.216 161.562 150.968 160.65 150.472C159.754 149.96 159.058 149.232 158.562 148.288C158.082 147.328 157.842 146.192 157.842 144.88C157.842 143.584 158.09 142.472 158.586 141.544C159.082 140.616 159.778 139.912 160.674 139.432C161.57 138.936 162.626 138.688 163.842 138.688C164.626 138.688 165.386 138.824 166.122 139.096C166.858 139.352 167.466 139.72 167.946 140.2L167.154 141.904C166.706 141.472 166.202 141.152 165.642 140.944C165.082 140.72 164.538 140.608 164.01 140.608C162.858 140.608 161.954 140.976 161.298 141.712C160.642 142.448 160.314 143.512 160.314 144.904C160.314 146.312 160.642 147.392 161.298 148.144C161.954 148.896 162.858 149.272 164.01 149.272C164.522 149.272 165.058 149.176 165.618 148.984C166.178 148.776 166.69 148.448 167.154 148L167.946 149.704C167.45 150.184 166.826 150.56 166.074 150.832C165.338 151.088 164.594 151.216 163.842 151.216ZM170.514 151V133.336H172.938V151H170.514ZM181.123 151.216C180.051 151.216 179.115 150.968 178.315 150.472C177.515 149.976 176.891 149.256 176.443 148.312C176.011 147.368 175.795 146.248 175.795 144.952C175.795 143.64 176.011 142.52 176.443 141.592C176.891 140.664 177.515 139.952 178.315 139.456C179.115 138.944 180.051 138.688 181.123 138.688C182.179 138.688 183.099 138.952 183.883 139.48C184.667 140.008 185.187 140.728 185.443 141.64H185.179L185.419 138.904H187.771C187.723 139.4 187.675 139.896 187.627 140.392C187.595 140.872 187.579 141.344 187.579 141.808V151H185.155V148.312H185.419C185.163 149.208 184.635 149.92 183.835 150.448C183.051 150.96 182.147 151.216 181.123 151.216ZM181.723 149.32C182.763 149.32 183.595 148.952 184.219 148.216C184.859 147.48 185.179 146.392 185.179 144.952C185.179 143.512 184.859 142.432 184.219 141.712C183.595 140.976 182.763 140.608 181.723 140.608C180.667 140.608 179.819 140.976 179.179 141.712C178.555 142.432 178.243 143.512 178.243 144.952C178.243 146.392 178.555 147.48 179.179 148.216C179.803 148.952 180.651 149.32 181.723 149.32ZM191.068 151V141.904C191.068 141.408 191.052 140.912 191.02 140.416C191.004 139.904 190.972 139.4 190.924 138.904H193.276L193.54 142.024H193.156C193.316 141.272 193.588 140.648 193.972 140.152C194.356 139.656 194.82 139.288 195.364 139.048C195.924 138.808 196.508 138.688 197.116 138.688C197.372 138.688 197.588 138.704 197.764 138.736C197.94 138.752 198.116 138.784 198.292 138.832L198.268 140.992C197.996 140.88 197.756 140.816 197.548 140.8C197.356 140.768 197.116 140.752 196.828 140.752C196.124 140.752 195.524 140.912 195.028 141.232C194.532 141.536 194.156 141.952 193.9 142.48C193.644 143.008 193.516 143.576 193.516 144.184V151H191.068ZM200.163 151V138.904H202.587V151H200.163ZM199.971 136.384V133.864H202.779V136.384H199.971ZM206.859 151V140.776H204.507V138.904H207.531L206.859 139.528V137.608C206.859 136.184 207.219 135.104 207.939 134.368C208.659 133.616 209.715 133.24 211.107 133.24C211.443 133.24 211.795 133.264 212.163 133.312C212.531 133.36 212.835 133.44 213.075 133.552V135.52C212.883 135.44 212.643 135.376 212.355 135.328C212.083 135.264 211.803 135.232 211.515 135.232C211.051 135.232 210.651 135.328 210.315 135.52C209.979 135.696 209.715 135.968 209.523 136.336C209.347 136.704 209.259 137.176 209.259 137.752V139.384L208.899 138.904H212.547V140.776H209.283V151H206.859ZM214.577 151V138.904H217.001V151H214.577ZM214.385 136.384V133.864H217.193V136.384H214.385ZM225.857 151.216C224.641 151.216 223.577 150.968 222.665 150.472C221.769 149.96 221.073 149.232 220.577 148.288C220.097 147.328 219.857 146.192 219.857 144.88C219.857 143.584 220.105 142.472 220.601 141.544C221.097 140.616 221.793 139.912 222.689 139.432C223.585 138.936 224.641 138.688 225.857 138.688C226.641 138.688 227.401 138.824 228.137 139.096C228.873 139.352 229.481 139.72 229.961 140.2L229.169 141.904C228.721 141.472 228.217 141.152 227.657 140.944C227.097 140.72 226.553 140.608 226.025 140.608C224.873 140.608 223.969 140.976 223.313 141.712C222.657 142.448 222.329 143.512 222.329 144.904C222.329 146.312 222.657 147.392 223.313 148.144C223.969 148.896 224.873 149.272 226.025 149.272C226.537 149.272 227.073 149.176 227.633 148.984C228.193 148.776 228.705 148.448 229.169 148L229.961 149.704C229.465 150.184 228.841 150.56 228.089 150.832C227.353 151.088 226.609 151.216 225.857 151.216ZM237.068 151.216C235.996 151.216 235.06 150.968 234.26 150.472C233.46 149.976 232.836 149.256 232.388 148.312C231.956 147.368 231.74 146.248 231.74 144.952C231.74 143.64 231.956 142.52 232.388 141.592C232.836 140.664 233.46 139.952 234.26 139.456C235.06 138.944 235.996 138.688 237.068 138.688C238.124 138.688 239.044 138.952 239.828 139.48C240.612 140.008 241.132 140.728 241.388 141.64H241.124L241.364 138.904H243.716C243.668 139.4 243.62 139.896 243.572 140.392C243.54 140.872 243.524 141.344 243.524 141.808V151H241.1V148.312H241.364C241.108 149.208 240.58 149.92 239.78 150.448C238.996 150.96 238.092 151.216 237.068 151.216ZM237.668 149.32C238.708 149.32 239.54 148.952 240.164 148.216C240.804 147.48 241.124 146.392 241.124 144.952C241.124 143.512 240.804 142.432 240.164 141.712C239.54 140.976 238.708 140.608 237.668 140.608C236.612 140.608 235.764 140.976 235.124 141.712C234.5 142.432 234.188 143.512 234.188 144.952C234.188 146.392 234.5 147.48 235.124 148.216C235.748 148.952 236.596 149.32 237.668 149.32ZM251.765 151.216C250.453 151.216 249.461 150.864 248.789 150.16C248.117 149.44 247.781 148.368 247.781 146.944V140.776H245.429V138.904H247.781V135.712L250.205 135.064V138.904H253.565V140.776H250.205V146.728C250.205 147.624 250.365 148.264 250.685 148.648C251.005 149.032 251.469 149.224 252.077 149.224C252.381 149.224 252.645 149.2 252.869 149.152C253.109 149.088 253.325 149.016 253.517 148.936V150.904C253.277 151 252.997 151.072 252.677 151.12C252.357 151.184 252.053 151.216 251.765 151.216ZM255.78 151V138.904H258.204V151H255.78ZM255.588 136.384V133.864H258.396V136.384H255.588ZM266.94 151.216C265.74 151.216 264.7 150.968 263.82 150.472C262.94 149.96 262.26 149.24 261.78 148.312C261.3 147.368 261.06 146.248 261.06 144.952C261.06 143.656 261.3 142.544 261.78 141.616C262.26 140.672 262.94 139.952 263.82 139.456C264.7 138.944 265.74 138.688 266.94 138.688C268.14 138.688 269.18 138.944 270.06 139.456C270.956 139.952 271.644 140.672 272.124 141.616C272.62 142.544 272.868 143.656 272.868 144.952C272.868 146.248 272.62 147.368 272.124 148.312C271.644 149.24 270.956 149.96 270.06 150.472C269.18 150.968 268.14 151.216 266.94 151.216ZM266.94 149.32C267.996 149.32 268.836 148.952 269.46 148.216C270.084 147.48 270.396 146.392 270.396 144.952C270.396 143.512 270.084 142.432 269.46 141.712C268.836 140.976 267.996 140.608 266.94 140.608C265.9 140.608 265.068 140.976 264.444 141.712C263.82 142.432 263.508 143.512 263.508 144.952C263.508 146.392 263.812 147.48 264.42 148.216C265.044 148.952 265.884 149.32 266.94 149.32ZM275.702 151V141.808C275.702 141.344 275.678 140.872 275.63 140.392C275.598 139.896 275.558 139.4 275.51 138.904H277.862L278.078 141.448H277.79C278.158 140.552 278.726 139.872 279.494 139.408C280.262 138.928 281.15 138.688 282.158 138.688C283.582 138.688 284.654 139.08 285.374 139.864C286.11 140.648 286.478 141.864 286.478 143.512V151H284.054V143.656C284.054 142.584 283.838 141.816 283.406 141.352C282.99 140.872 282.35 140.632 281.486 140.632C280.462 140.632 279.646 140.952 279.038 141.592C278.43 142.216 278.126 143.064 278.126 144.136V151H275.702ZM294.08 151.216C293.072 151.216 292.144 151.088 291.296 150.832C290.448 150.576 289.744 150.216 289.184 149.752L289.928 148.096C290.52 148.544 291.176 148.88 291.896 149.104C292.616 149.328 293.352 149.44 294.104 149.44C294.984 149.44 295.648 149.288 296.096 148.984C296.544 148.664 296.768 148.232 296.768 147.688C296.768 147.272 296.624 146.936 296.336 146.68C296.064 146.424 295.608 146.232 294.968 146.104L292.664 145.648C291.64 145.424 290.864 145.04 290.336 144.496C289.808 143.952 289.544 143.256 289.544 142.408C289.544 141.688 289.736 141.048 290.12 140.488C290.52 139.928 291.08 139.488 291.8 139.168C292.536 138.848 293.392 138.688 294.368 138.688C295.264 138.688 296.096 138.816 296.864 139.072C297.632 139.328 298.272 139.696 298.784 140.176L298.016 141.784C297.52 141.368 296.96 141.048 296.336 140.824C295.712 140.584 295.08 140.464 294.44 140.464C293.544 140.464 292.88 140.632 292.448 140.968C292.016 141.304 291.8 141.744 291.8 142.288C291.8 142.704 291.928 143.048 292.184 143.32C292.456 143.576 292.88 143.776 293.456 143.92L295.76 144.376C296.848 144.6 297.664 144.968 298.208 145.48C298.752 145.992 299.024 146.68 299.024 147.544C299.024 148.296 298.816 148.952 298.4 149.512C297.984 150.072 297.408 150.496 296.672 150.784C295.936 151.072 295.072 151.216 294.08 151.216ZM313.464 151.216C312.264 151.216 311.224 150.968 310.344 150.472C309.464 149.96 308.784 149.24 308.304 148.312C307.824 147.368 307.584 146.248 307.584 144.952C307.584 143.656 307.824 142.544 308.304 141.616C308.784 140.672 309.464 139.952 310.344 139.456C311.224 138.944 312.264 138.688 313.464 138.688C314.664 138.688 315.704 138.944 316.584 139.456C317.48 139.952 318.168 140.672 318.648 141.616C319.144 142.544 319.392 143.656 319.392 144.952C319.392 146.248 319.144 147.368 318.648 148.312C318.168 149.24 317.48 149.96 316.584 150.472C315.704 150.968 314.664 151.216 313.464 151.216ZM313.464 149.32C314.52 149.32 315.36 148.952 315.984 148.216C316.608 147.48 316.92 146.392 316.92 144.952C316.92 143.512 316.608 142.432 315.984 141.712C315.36 140.976 314.52 140.608 313.464 140.608C312.424 140.608 311.592 140.976 310.968 141.712C310.344 142.432 310.032 143.512 310.032 144.952C310.032 146.392 310.336 147.48 310.944 148.216C311.568 148.952 312.408 149.32 313.464 149.32ZM322.177 151V141.904C322.177 141.408 322.161 140.912 322.129 140.416C322.113 139.904 322.081 139.4 322.033 138.904H324.385L324.649 142.024H324.265C324.425 141.272 324.697 140.648 325.081 140.152C325.465 139.656 325.929 139.288 326.473 139.048C327.033 138.808 327.617 138.688 328.225 138.688C328.481 138.688 328.697 138.704 328.873 138.736C329.049 138.752 329.225 138.784 329.401 138.832L329.377 140.992C329.105 140.88 328.865 140.816 328.657 140.8C328.465 140.768 328.225 140.752 327.937 140.752C327.233 140.752 326.633 140.912 326.137 141.232C325.641 141.536 325.265 141.952 325.009 142.48C324.753 143.008 324.625 143.576 324.625 144.184V151H322.177ZM32.2586 181.216C30.3066 181.216 28.7706 180.664 27.6506 179.56C26.5306 178.456 25.9706 176.928 25.9706 174.976C25.9706 173.712 26.2106 172.608 26.6906 171.664C27.1866 170.72 27.8666 169.992 28.7306 169.48C29.6106 168.952 30.6266 168.688 31.7786 168.688C32.9146 168.688 33.8666 168.928 34.6346 169.408C35.4026 169.888 35.9866 170.568 36.3866 171.448C36.7866 172.312 36.9866 173.336 36.9866 174.52V175.288H27.8666V173.896H35.3306L34.9226 174.208C34.9226 173.008 34.6506 172.08 34.1066 171.424C33.5786 170.752 32.8106 170.416 31.8026 170.416C30.6826 170.416 29.8186 170.808 29.2106 171.592C28.6026 172.36 28.2986 173.424 28.2986 174.784V175.024C28.2986 176.448 28.6426 177.52 29.3306 178.24C30.0346 178.96 31.0266 179.32 32.3066 179.32C33.0106 179.32 33.6666 179.224 34.2746 179.032C34.8986 178.824 35.4906 178.488 36.0506 178.024L36.8426 179.68C36.2826 180.176 35.6026 180.56 34.8026 180.832C34.0026 181.088 33.1546 181.216 32.2586 181.216ZM39.7682 181V171.808C39.7682 171.344 39.7442 170.872 39.6962 170.392C39.6642 169.896 39.6242 169.4 39.5762 168.904H41.9282L42.1442 171.448H41.8562C42.2242 170.552 42.7922 169.872 43.5602 169.408C44.3282 168.928 45.2162 168.688 46.2242 168.688C47.6482 168.688 48.7202 169.08 49.4402 169.864C50.1762 170.648 50.5442 171.864 50.5442 173.512V181H48.1202V173.656C48.1202 172.584 47.9042 171.816 47.4722 171.352C47.0562 170.872 46.4162 170.632 45.5522 170.632C44.5282 170.632 43.7122 170.952 43.1042 171.592C42.4962 172.216 42.1922 173.064 42.1922 174.136V181H39.7682ZM62.6588 186.184V178.312H62.9228C62.6668 179.208 62.1388 179.92 61.3388 180.448C60.5548 180.96 59.6508 181.216 58.6268 181.216C57.5548 181.216 56.6188 180.968 55.8188 180.472C55.0188 179.976 54.3948 179.256 53.9468 178.312C53.5148 177.368 53.2988 176.248 53.2988 174.952C53.2988 173.64 53.5148 172.52 53.9468 171.592C54.3948 170.664 55.0188 169.952 55.8188 169.456C56.6188 168.944 57.5548 168.688 58.6268 168.688C59.6828 168.688 60.6028 168.952 61.3868 169.48C62.1708 170.008 62.6908 170.728 62.9468 171.64H62.6828L62.9228 168.904H65.2748C65.2268 169.4 65.1788 169.896 65.1308 170.392C65.0988 170.872 65.0828 171.344 65.0828 171.808V186.184H62.6588ZM59.2268 179.32C60.2668 179.32 61.0988 178.952 61.7228 178.216C62.3628 177.48 62.6828 176.392 62.6828 174.952C62.6828 173.512 62.3628 172.432 61.7228 171.712C61.0988 170.976 60.2668 170.608 59.2268 170.608C58.1708 170.608 57.3228 170.976 56.6828 171.712C56.0588 172.432 55.7467 173.512 55.7467 174.952C55.7467 176.392 56.0588 177.48 56.6828 178.216C57.3068 178.952 58.1548 179.32 59.2268 179.32ZM72.9158 181.216C71.4598 181.216 70.3638 180.824 69.6278 180.04C68.9078 179.24 68.5478 178.016 68.5478 176.368V168.904H70.9718V176.32C70.9718 177.328 71.1798 178.072 71.5958 178.552C72.0118 179.032 72.6438 179.272 73.4918 179.272C74.4518 179.272 75.2278 178.952 75.8198 178.312C76.4118 177.672 76.7078 176.824 76.7078 175.768V168.904H79.1318V181H76.7798V178.408H77.0918C76.7558 179.304 76.2198 180 75.4838 180.496C74.7478 180.976 73.8918 181.216 72.9158 181.216ZM82.6823 181V168.904H85.1063V181H82.6823ZM82.4902 166.384V163.864H85.2983V166.384H82.4902ZM88.6108 181V171.904C88.6108 171.408 88.5948 170.912 88.5628 170.416C88.5468 169.904 88.5148 169.4 88.4668 168.904H90.8188L91.0828 172.024H90.6988C90.8588 171.272 91.1308 170.648 91.5148 170.152C91.8988 169.656 92.3628 169.288 92.9068 169.048C93.4668 168.808 94.0508 168.688 94.6588 168.688C94.9148 168.688 95.1308 168.704 95.3068 168.736C95.4828 168.752 95.6588 168.784 95.8348 168.832L95.8108 170.992C95.5388 170.88 95.2988 170.816 95.0908 170.8C94.8988 170.768 94.6588 170.752 94.3708 170.752C93.6668 170.752 93.0668 170.912 92.5708 171.232C92.0748 171.536 91.6988 171.952 91.4428 172.48C91.1868 173.008 91.0588 173.576 91.0588 174.184V181H88.6108ZM97.7057 181V168.904H100.13V181H97.7057ZM97.5137 166.384V163.864H100.322V166.384H97.5137ZM109.274 181.216C107.322 181.216 105.786 180.664 104.666 179.56C103.546 178.456 102.986 176.928 102.986 174.976C102.986 173.712 103.226 172.608 103.706 171.664C104.202 170.72 104.882 169.992 105.746 169.48C106.626 168.952 107.642 168.688 108.794 168.688C109.93 168.688 110.882 168.928 111.65 169.408C112.418 169.888 113.002 170.568 113.402 171.448C113.802 172.312 114.002 173.336 114.002 174.52V175.288H104.882V173.896H112.346L111.938 174.208C111.938 173.008 111.666 172.08 111.122 171.424C110.594 170.752 109.826 170.416 108.818 170.416C107.698 170.416 106.834 170.808 106.226 171.592C105.618 172.36 105.314 173.424 105.314 174.784V175.024C105.314 176.448 105.658 177.52 106.346 178.24C107.05 178.96 108.042 179.32 109.322 179.32C110.026 179.32 110.682 179.224 111.29 179.032C111.914 178.824 112.506 178.488 113.066 178.024L113.858 179.68C113.298 180.176 112.618 180.56 111.818 180.832C111.018 181.088 110.17 181.216 109.274 181.216ZM120.936 181.216C119.928 181.216 119 181.088 118.152 180.832C117.304 180.576 116.6 180.216 116.04 179.752L116.784 178.096C117.376 178.544 118.032 178.88 118.752 179.104C119.472 179.328 120.208 179.44 120.96 179.44C121.84 179.44 122.504 179.288 122.952 178.984C123.4 178.664 123.624 178.232 123.624 177.688C123.624 177.272 123.48 176.936 123.192 176.68C122.92 176.424 122.464 176.232 121.824 176.104L119.52 175.648C118.496 175.424 117.72 175.04 117.192 174.496C116.664 173.952 116.4 173.256 116.4 172.408C116.4 171.688 116.592 171.048 116.976 170.488C117.376 169.928 117.936 169.488 118.656 169.168C119.392 168.848 120.248 168.688 121.224 168.688C122.12 168.688 122.952 168.816 123.72 169.072C124.488 169.328 125.128 169.696 125.64 170.176L124.872 171.784C124.376 171.368 123.816 171.048 123.192 170.824C122.568 170.584 121.936 170.464 121.296 170.464C120.4 170.464 119.736 170.632 119.304 170.968C118.872 171.304 118.656 171.744 118.656 172.288C118.656 172.704 118.784 173.048 119.04 173.32C119.312 173.576 119.736 173.776 120.312 173.92L122.616 174.376C123.704 174.6 124.52 174.968 125.064 175.48C125.608 175.992 125.88 176.68 125.88 177.544C125.88 178.296 125.672 178.952 125.256 179.512C124.84 180.072 124.264 180.496 123.528 180.784C122.792 181.072 121.928 181.216 120.936 181.216ZM129.484 183.952L128.428 183.136C128.892 182.64 129.204 182.184 129.364 181.768C129.54 181.352 129.628 180.92 129.628 180.472L130.156 181H128.26V178.144H131.116V180.088C131.116 180.808 130.996 181.472 130.756 182.08C130.516 182.704 130.092 183.328 129.484 183.952ZM140.714 186.184V171.808C140.714 171.344 140.69 170.872 140.642 170.392C140.61 169.896 140.57 169.4 140.521 168.904H142.874L143.114 171.64H142.85C143.106 170.728 143.618 170.008 144.386 169.48C145.17 168.952 146.098 168.688 147.17 168.688C148.242 168.688 149.178 168.944 149.978 169.456C150.778 169.952 151.394 170.664 151.826 171.592C152.273 172.52 152.497 173.64 152.497 174.952C152.497 176.248 152.273 177.368 151.826 178.312C151.394 179.256 150.778 179.976 149.978 180.472C149.178 180.968 148.242 181.216 147.17 181.216C146.114 181.216 145.194 180.96 144.41 180.448C143.642 179.92 143.13 179.208 142.874 178.312H143.138V186.184H140.714ZM146.57 179.32C147.626 179.32 148.466 178.952 149.09 178.216C149.73 177.48 150.05 176.392 150.05 174.952C150.05 173.512 149.73 172.432 149.09 171.712C148.466 170.976 147.626 170.608 146.57 170.608C145.514 170.608 144.666 170.976 144.026 171.712C143.402 172.432 143.09 173.512 143.09 174.952C143.09 176.392 143.402 177.48 144.026 178.216C144.666 178.952 145.514 179.32 146.57 179.32ZM155.339 181V163.336H157.763V181H155.339ZM166.907 181.216C164.955 181.216 163.419 180.664 162.299 179.56C161.179 178.456 160.619 176.928 160.619 174.976C160.619 173.712 160.859 172.608 161.339 171.664C161.835 170.72 162.515 169.992 163.379 169.48C164.259 168.952 165.275 168.688 166.427 168.688C167.563 168.688 168.515 168.928 169.283 169.408C170.051 169.888 170.635 170.568 171.035 171.448C171.435 172.312 171.635 173.336 171.635 174.52V175.288H162.515V173.896H169.979L169.571 174.208C169.571 173.008 169.299 172.08 168.755 171.424C168.227 170.752 167.459 170.416 166.451 170.416C165.331 170.416 164.467 170.808 163.859 171.592C163.251 172.36 162.947 173.424 162.947 174.784V175.024C162.947 176.448 163.291 177.52 163.979 178.24C164.683 178.96 165.675 179.32 166.955 179.32C167.659 179.32 168.315 179.224 168.923 179.032C169.547 178.824 170.139 178.488 170.699 178.024L171.491 179.68C170.931 180.176 170.251 180.56 169.451 180.832C168.651 181.088 167.803 181.216 166.907 181.216ZM179.049 181.216C177.977 181.216 177.041 180.968 176.241 180.472C175.441 179.976 174.817 179.256 174.369 178.312C173.937 177.368 173.721 176.248 173.721 174.952C173.721 173.64 173.937 172.52 174.369 171.592C174.817 170.664 175.441 169.952 176.241 169.456C177.041 168.944 177.977 168.688 179.049 168.688C180.105 168.688 181.025 168.952 181.809 169.48C182.593 170.008 183.113 170.728 183.369 171.64H183.105L183.345 168.904H185.697C185.649 169.4 185.601 169.896 185.553 170.392C185.521 170.872 185.505 171.344 185.505 171.808V181H183.081V178.312H183.345C183.089 179.208 182.561 179.92 181.761 180.448C180.977 180.96 180.073 181.216 179.049 181.216ZM179.649 179.32C180.689 179.32 181.521 178.952 182.145 178.216C182.785 177.48 183.105 176.392 183.105 174.952C183.105 173.512 182.785 172.432 182.145 171.712C181.521 170.976 180.689 170.608 179.649 170.608C178.593 170.608 177.745 170.976 177.105 171.712C176.481 172.432 176.169 173.512 176.169 174.952C176.169 176.392 176.481 177.48 177.105 178.216C177.729 178.952 178.577 179.32 179.649 179.32ZM193.194 181.216C192.186 181.216 191.258 181.088 190.41 180.832C189.562 180.576 188.858 180.216 188.298 179.752L189.042 178.096C189.634 178.544 190.29 178.88 191.01 179.104C191.73 179.328 192.466 179.44 193.218 179.44C194.098 179.44 194.762 179.288 195.21 178.984C195.658 178.664 195.882 178.232 195.882 177.688C195.882 177.272 195.738 176.936 195.45 176.68C195.178 176.424 194.722 176.232 194.082 176.104L191.778 175.648C190.754 175.424 189.978 175.04 189.45 174.496C188.922 173.952 188.658 173.256 188.658 172.408C188.658 171.688 188.85 171.048 189.234 170.488C189.634 169.928 190.194 169.488 190.914 169.168C191.65 168.848 192.506 168.688 193.482 168.688C194.378 168.688 195.21 168.816 195.978 169.072C196.746 169.328 197.386 169.696 197.898 170.176L197.13 171.784C196.634 171.368 196.074 171.048 195.45 170.824C194.826 170.584 194.194 170.464 193.554 170.464C192.658 170.464 191.994 170.632 191.562 170.968C191.13 171.304 190.914 171.744 190.914 172.288C190.914 172.704 191.042 173.048 191.298 173.32C191.57 173.576 191.994 173.776 192.57 173.92L194.874 174.376C195.962 174.6 196.778 174.968 197.322 175.48C197.866 175.992 198.138 176.68 198.138 177.544C198.138 178.296 197.93 178.952 197.514 179.512C197.098 180.072 196.522 180.496 195.786 180.784C195.05 181.072 194.186 181.216 193.194 181.216ZM206.587 181.216C204.635 181.216 203.099 180.664 201.979 179.56C200.859 178.456 200.299 176.928 200.299 174.976C200.299 173.712 200.539 172.608 201.019 171.664C201.515 170.72 202.195 169.992 203.059 169.48C203.939 168.952 204.955 168.688 206.107 168.688C207.243 168.688 208.195 168.928 208.963 169.408C209.731 169.888 210.315 170.568 210.715 171.448C211.115 172.312 211.315 173.336 211.315 174.52V175.288H202.195V173.896H209.659L209.251 174.208C209.251 173.008 208.979 172.08 208.435 171.424C207.907 170.752 207.139 170.416 206.131 170.416C205.011 170.416 204.147 170.808 203.539 171.592C202.931 172.36 202.627 173.424 202.627 174.784V175.024C202.627 176.448 202.971 177.52 203.659 178.24C204.363 178.96 205.355 179.32 206.635 179.32C207.339 179.32 207.995 179.224 208.603 179.032C209.227 178.824 209.819 178.488 210.379 178.024L211.171 179.68C210.611 180.176 209.931 180.56 209.131 180.832C208.331 181.088 207.483 181.216 206.587 181.216ZM225.799 181.216C224.583 181.216 223.519 180.968 222.607 180.472C221.711 179.96 221.015 179.232 220.519 178.288C220.039 177.328 219.799 176.192 219.799 174.88C219.799 173.584 220.047 172.472 220.543 171.544C221.039 170.616 221.735 169.912 222.631 169.432C223.527 168.936 224.583 168.688 225.799 168.688C226.583 168.688 227.343 168.824 228.079 169.096C228.815 169.352 229.423 169.72 229.903 170.2L229.111 171.904C228.663 171.472 228.159 171.152 227.599 170.944C227.039 170.72 226.495 170.608 225.967 170.608C224.815 170.608 223.911 170.976 223.255 171.712C222.599 172.448 222.271 173.512 222.271 174.904C222.271 176.312 222.599 177.392 223.255 178.144C223.911 178.896 224.815 179.272 225.967 179.272C226.479 179.272 227.015 179.176 227.575 178.984C228.135 178.776 228.647 178.448 229.111 178L229.903 179.704C229.407 180.184 228.783 180.56 228.031 180.832C227.295 181.088 226.551 181.216 225.799 181.216ZM237.421 181.216C236.221 181.216 235.181 180.968 234.301 180.472C233.421 179.96 232.741 179.24 232.261 178.312C231.781 177.368 231.541 176.248 231.541 174.952C231.541 173.656 231.781 172.544 232.261 171.616C232.741 170.672 233.421 169.952 234.301 169.456C235.181 168.944 236.221 168.688 237.421 168.688C238.621 168.688 239.661 168.944 240.541 169.456C241.437 169.952 242.125 170.672 242.605 171.616C243.101 172.544 243.349 173.656 243.349 174.952C243.349 176.248 243.101 177.368 242.605 178.312C242.125 179.24 241.437 179.96 240.541 180.472C239.661 180.968 238.621 181.216 237.421 181.216ZM237.421 179.32C238.477 179.32 239.317 178.952 239.941 178.216C240.565 177.48 240.877 176.392 240.877 174.952C240.877 173.512 240.565 172.432 239.941 171.712C239.317 170.976 238.477 170.608 237.421 170.608C236.381 170.608 235.549 170.976 234.925 171.712C234.301 172.432 233.989 173.512 233.989 174.952C233.989 176.392 234.293 177.48 234.901 178.216C235.525 178.952 236.365 179.32 237.421 179.32ZM246.182 181V171.808C246.182 171.344 246.158 170.872 246.11 170.392C246.078 169.896 246.038 169.4 245.99 168.904H248.342L248.558 171.448H248.27C248.638 170.552 249.206 169.872 249.974 169.408C250.742 168.928 251.63 168.688 252.638 168.688C254.062 168.688 255.134 169.08 255.854 169.864C256.59 170.648 256.958 171.864 256.958 173.512V181H254.534V173.656C254.534 172.584 254.318 171.816 253.886 171.352C253.47 170.872 252.83 170.632 251.966 170.632C250.942 170.632 250.126 170.952 249.518 171.592C248.91 172.216 248.606 173.064 248.606 174.136V181H246.182ZM265.113 181.216C263.801 181.216 262.809 180.864 262.137 180.16C261.465 179.44 261.129 178.368 261.129 176.944V170.776H258.777V168.904H261.129V165.712L263.553 165.064V168.904H266.913V170.776H263.553V176.728C263.553 177.624 263.713 178.264 264.033 178.648C264.353 179.032 264.817 179.224 265.425 179.224C265.729 179.224 265.993 179.2 266.217 179.152C266.457 179.088 266.673 179.016 266.865 178.936V180.904C266.625 181 266.345 181.072 266.025 181.12C265.705 181.184 265.401 181.216 265.113 181.216ZM273.76 181.216C272.688 181.216 271.752 180.968 270.952 180.472C270.152 179.976 269.528 179.256 269.08 178.312C268.648 177.368 268.432 176.248 268.432 174.952C268.432 173.64 268.648 172.52 269.08 171.592C269.528 170.664 270.152 169.952 270.952 169.456C271.752 168.944 272.688 168.688 273.76 168.688C274.816 168.688 275.736 168.952 276.52 169.48C277.304 170.008 277.824 170.728 278.08 171.64H277.816L278.056 168.904H280.408C280.36 169.4 280.312 169.896 280.264 170.392C280.232 170.872 280.216 171.344 280.216 171.808V181H277.792V178.312H278.056C277.8 179.208 277.272 179.92 276.472 180.448C275.688 180.96 274.784 181.216 273.76 181.216ZM274.36 179.32C275.4 179.32 276.232 178.952 276.856 178.216C277.496 177.48 277.816 176.392 277.816 174.952C277.816 173.512 277.496 172.432 276.856 171.712C276.232 170.976 275.4 170.608 274.36 170.608C273.304 170.608 272.456 170.976 271.816 171.712C271.192 172.432 270.88 173.512 270.88 174.952C270.88 176.392 271.192 177.48 271.816 178.216C272.44 178.952 273.288 179.32 274.36 179.32ZM289.057 181.216C287.841 181.216 286.777 180.968 285.865 180.472C284.969 179.96 284.273 179.232 283.777 178.288C283.297 177.328 283.057 176.192 283.057 174.88C283.057 173.584 283.305 172.472 283.801 171.544C284.297 170.616 284.993 169.912 285.889 169.432C286.785 168.936 287.841 168.688 289.057 168.688C289.841 168.688 290.601 168.824 291.337 169.096C292.073 169.352 292.681 169.72 293.161 170.2L292.369 171.904C291.921 171.472 291.417 171.152 290.857 170.944C290.297 170.72 289.753 170.608 289.225 170.608C288.073 170.608 287.169 170.976 286.513 171.712C285.857 172.448 285.529 173.512 285.529 174.904C285.529 176.312 285.857 177.392 286.513 178.144C287.169 178.896 288.073 179.272 289.225 179.272C289.737 179.272 290.273 179.176 290.833 178.984C291.393 178.776 291.905 178.448 292.369 178L293.161 179.704C292.665 180.184 292.041 180.56 291.289 180.832C290.553 181.088 289.809 181.216 289.057 181.216ZM300.457 181.216C299.145 181.216 298.153 180.864 297.481 180.16C296.809 179.44 296.473 178.368 296.473 176.944V170.776H294.121V168.904H296.473V165.712L298.897 165.064V168.904H302.257V170.776H298.897V176.728C298.897 177.624 299.057 178.264 299.377 178.648C299.697 179.032 300.161 179.224 300.769 179.224C301.073 179.224 301.337 179.2 301.561 179.152C301.801 179.088 302.017 179.016 302.209 178.936V180.904C301.969 181 301.689 181.072 301.369 181.12C301.049 181.184 300.745 181.216 300.457 181.216ZM315.166 181.216C313.71 181.216 312.614 180.824 311.878 180.04C311.158 179.24 310.798 178.016 310.798 176.368V168.904H313.222V176.32C313.222 177.328 313.43 178.072 313.846 178.552C314.262 179.032 314.894 179.272 315.742 179.272C316.702 179.272 317.478 178.952 318.07 178.312C318.662 177.672 318.958 176.824 318.958 175.768V168.904H321.382V181H319.03V178.408H319.342C319.006 179.304 318.47 180 317.734 180.496C316.998 180.976 316.142 181.216 315.166 181.216ZM329.084 181.216C328.076 181.216 327.148 181.088 326.3 180.832C325.452 180.576 324.748 180.216 324.188 179.752L324.932 178.096C325.524 178.544 326.18 178.88 326.9 179.104C327.62 179.328 328.356 179.44 329.108 179.44C329.988 179.44 330.652 179.288 331.1 178.984C331.548 178.664 331.772 178.232 331.772 177.688C331.772 177.272 331.628 176.936 331.34 176.68C331.068 176.424 330.612 176.232 329.972 176.104L327.668 175.648C326.644 175.424 325.868 175.04 325.34 174.496C324.812 173.952 324.548 173.256 324.548 172.408C324.548 171.688 324.74 171.048 325.124 170.488C325.524 169.928 326.084 169.488 326.804 169.168C327.54 168.848 328.396 168.688 329.372 168.688C330.268 168.688 331.1 168.816 331.868 169.072C332.636 169.328 333.276 169.696 333.788 170.176L333.02 171.784C332.524 171.368 331.964 171.048 331.34 170.824C330.716 170.584 330.084 170.464 329.444 170.464C328.548 170.464 327.884 170.632 327.452 170.968C327.02 171.304 326.804 171.744 326.804 172.288C326.804 172.704 326.932 173.048 327.188 173.32C327.46 173.576 327.884 173.776 328.46 173.92L330.764 174.376C331.852 174.6 332.668 174.968 333.212 175.48C333.756 175.992 334.028 176.68 334.028 177.544C334.028 178.296 333.82 178.952 333.404 179.512C332.988 180.072 332.412 180.496 331.676 180.784C330.94 181.072 330.076 181.216 329.084 181.216ZM171.877 211.216C170.805 211.216 169.869 210.968 169.069 210.472C168.269 209.976 167.645 209.256 167.197 208.312C166.765 207.368 166.549 206.248 166.549 204.952C166.549 203.64 166.765 202.52 167.197 201.592C167.645 200.664 168.269 199.952 169.069 199.456C169.869 198.944 170.805 198.688 171.877 198.688C172.933 198.688 173.853 198.952 174.637 199.48C175.421 200.008 175.941 200.728 176.197 201.64H175.933L176.173 198.904H178.525C178.477 199.4 178.429 199.896 178.381 200.392C178.349 200.872 178.333 201.344 178.333 201.808V211H175.909V208.312H176.173C175.917 209.208 175.389 209.92 174.589 210.448C173.805 210.96 172.901 211.216 171.877 211.216ZM172.477 209.32C173.517 209.32 174.349 208.952 174.973 208.216C175.613 207.48 175.933 206.392 175.933 204.952C175.933 203.512 175.613 202.432 174.973 201.712C174.349 200.976 173.517 200.608 172.477 200.608C171.421 200.608 170.573 200.976 169.933 201.712C169.309 202.432 168.997 203.512 168.997 204.952C168.997 206.392 169.309 207.48 169.933 208.216C170.557 208.952 171.405 209.32 172.477 209.32ZM186.574 211.216C185.262 211.216 184.27 210.864 183.598 210.16C182.926 209.44 182.59 208.368 182.59 206.944V200.776H180.238V198.904H182.59V195.712L185.014 195.064V198.904H188.374V200.776H185.014V206.728C185.014 207.624 185.174 208.264 185.494 208.648C185.814 209.032 186.278 209.224 186.886 209.224C187.19 209.224 187.454 209.2 187.678 209.152C187.918 209.088 188.134 209.016 188.326 208.936V210.904C188.086 211 187.806 211.072 187.486 211.12C187.166 211.184 186.862 211.216 186.574 211.216ZM190.252 201.76V198.904H193.108V201.76H190.252ZM190.252 211V208.144H193.108V211H190.252Z" fill="white"/>
<path d="M47 291.42V294.956C47.0001 295.209 46.9042 295.453 46.7316 295.638C46.559 295.823 46.3226 295.936 46.07 295.954C45.633 295.984 45.276 296 45 296C36.163 296 29 288.837 29 280C29 279.724 29.015 279.367 29.046 278.93C29.0637 278.677 29.1766 278.441 29.3618 278.268C29.547 278.096 29.7908 278 30.044 278H33.58C33.704 278 33.8237 278.046 33.9157 278.129C34.0078 278.212 34.0656 278.327 34.078 278.45C34.101 278.68 34.122 278.863 34.142 279.002C34.3407 280.389 34.748 281.738 35.35 283.003C35.445 283.203 35.383 283.442 35.203 283.57L33.045 285.112C34.3645 288.186 36.8145 290.637 39.889 291.956L41.429 289.802C41.4919 289.714 41.5838 289.651 41.6885 289.624C41.7932 289.596 41.9042 289.607 42.002 289.653C43.267 290.254 44.6156 290.66 46.002 290.858C46.141 290.878 46.324 290.9 46.552 290.922C46.6752 290.935 46.7894 290.993 46.8724 291.085C46.9553 291.177 47.0012 291.296 47.001 291.42H47Z" fill="white"/>
<path d="M72.912 286.136H68.736V282.056H65.64V286.136H61.488V289.064H65.64V293.144H68.736V289.064H72.912V286.136ZM80.2562 292.832L84.1202 289.184C86.4722 287 86.9282 285.512 86.9282 283.88C86.9282 280.832 84.4322 278.912 80.6882 278.912C77.6642 278.912 75.3122 280.136 74.0162 282.032L76.8482 283.856C77.6642 282.728 78.8882 282.176 80.3282 282.176C82.1042 282.176 83.0162 282.944 83.0162 284.264C83.0162 285.08 82.7522 285.944 81.2642 287.36L74.7842 293.48V296H87.4802V292.832H80.2562ZM96.9324 286.04L100.724 281.72V279.2H88.9644V282.32H96.1164L92.6604 286.232V288.8H94.4364C96.6444 288.8 97.5804 289.592 97.5804 290.864C97.5804 292.232 96.3804 293.024 94.4364 293.024C92.6844 293.024 90.9084 292.472 89.6364 291.512L88.1244 294.488C89.7564 295.64 92.1804 296.288 94.5324 296.288C99.3084 296.288 101.492 293.696 101.492 290.864C101.492 288.392 99.9564 286.52 96.9324 286.04ZM118.672 289.304H115.936V286.16H112.264V289.304H107.752L115.096 279.2H111.016L103.096 289.856V292.472H112.144V296H115.936V292.472H118.672V289.304ZM132.535 278.912C128.983 278.912 126.175 281.072 126.175 284.504C126.175 287.672 128.719 289.736 131.959 289.736C133.711 289.736 135.151 289.208 136.135 288.224C136.015 291.464 134.191 293.12 131.407 293.12C130.255 293.12 129.175 292.904 128.263 292.28L126.823 295.136C127.999 295.88 129.703 296.288 131.479 296.288C136.567 296.288 140.047 293.048 140.047 287.24C140.047 281.816 137.191 278.912 132.535 278.912ZM132.823 286.832C131.095 286.832 129.967 285.848 129.967 284.312C129.967 282.776 131.119 281.816 132.775 281.816C134.623 281.816 135.703 282.872 135.703 284.312C135.703 285.776 134.527 286.832 132.823 286.832ZM141.004 279.2V282.32H144.364V296H148.252V279.2H141.004ZM159.018 286.04L162.81 281.72V279.2H151.05V282.32H158.202L154.746 286.232V288.8H156.522C158.73 288.8 159.666 289.592 159.666 290.864C159.666 292.232 158.466 293.024 156.522 293.024C154.77 293.024 152.994 292.472 151.722 291.512L150.21 294.488C151.842 295.64 154.266 296.288 156.618 296.288C161.394 296.288 163.578 293.696 163.578 290.864C163.578 288.392 162.042 286.52 159.018 286.04ZM171.278 278.912C167.726 278.912 164.918 281.072 164.918 284.504C164.918 287.672 167.462 289.736 170.702 289.736C172.454 289.736 173.894 289.208 174.878 288.224C174.758 291.464 172.934 293.12 170.15 293.12C168.998 293.12 167.918 292.904 167.006 292.28L165.566 295.136C166.742 295.88 168.446 296.288 170.222 296.288C175.31 296.288 178.79 293.048 178.79 287.24C178.79 281.816 175.934 278.912 171.278 278.912ZM171.566 286.832C169.838 286.832 168.71 285.848 168.71 284.312C168.71 282.776 169.862 281.816 171.518 281.816C173.366 281.816 174.446 282.872 174.446 284.312C174.446 285.776 173.27 286.832 171.566 286.832ZM195.3 286.04L199.092 281.72V279.2H187.332V282.32H194.484L191.028 286.232V288.8H192.804C195.012 288.8 195.948 289.592 195.948 290.864C195.948 292.232 194.748 293.024 192.804 293.024C191.052 293.024 189.276 292.472 188.004 291.512L186.492 294.488C188.124 295.64 190.548 296.288 192.9 296.288C197.676 296.288 199.86 293.696 199.86 290.864C199.86 288.392 198.324 286.52 195.3 286.04ZM217.039 289.304H214.303V286.16H210.631V289.304H206.119L213.463 279.2H209.383L201.463 289.856V292.472H210.511V296H214.303V292.472H217.039V289.304ZM223.915 285.512H222.547L222.811 282.32H229.819V279.2H219.571L218.707 288.656H223.003C226.051 288.656 226.915 289.52 226.915 290.84C226.915 292.208 225.715 293.024 223.771 293.024C222.019 293.024 220.267 292.472 218.995 291.512L217.459 294.488C219.091 295.64 221.539 296.288 223.867 296.288C228.667 296.288 230.851 293.696 230.851 290.72C230.851 287.744 228.883 285.512 223.915 285.512ZM247.073 286.04L250.865 281.72V279.2H239.105V282.32H246.257L242.801 286.232V288.8H244.577C246.785 288.8 247.721 289.592 247.721 290.864C247.721 292.232 246.521 293.024 244.577 293.024C242.825 293.024 241.049 292.472 239.777 291.512L238.265 294.488C239.897 295.64 242.321 296.288 244.673 296.288C249.449 296.288 251.633 293.696 251.633 290.864C251.633 288.392 250.097 286.52 247.073 286.04ZM258.954 285.512H257.586L257.85 282.32H264.858V279.2H254.61L253.746 288.656H258.042C261.09 288.656 261.954 289.52 261.954 290.84C261.954 292.208 260.754 293.024 258.81 293.024C257.058 293.024 255.306 292.472 254.034 291.512L252.498 294.488C254.13 295.64 256.578 296.288 258.906 296.288C263.706 296.288 265.89 293.696 265.89 290.72C265.89 287.744 263.922 285.512 258.954 285.512ZM266.874 279.2V285.104H270.33V282.368H275.898L269.874 296H274.098L280.338 281.72V279.2H266.874Z" fill="white"/>
<path d="M28.004 345L29.356 340.032C28.4652 338.505 27.9971 336.768 28 335C28 329.477 32.477 325 38 325C43.523 325 48 329.477 48 335C48 340.523 43.523 345 38 345C36.2328 345.003 34.4967 344.535 32.97 343.645L28.004 345ZM34.391 330.308C34.2619 330.316 34.1357 330.35 34.02 330.408C33.9115 330.469 33.8125 330.546 33.726 330.636C33.606 330.749 33.538 330.847 33.465 330.942C33.0954 331.423 32.8966 332.013 32.9 332.62C32.902 333.11 33.03 333.587 33.23 334.033C33.639 334.935 34.312 335.89 35.201 336.775C35.415 336.988 35.624 337.202 35.849 337.401C36.9524 338.372 38.2673 339.073 39.689 339.447L40.258 339.534C40.443 339.544 40.628 339.53 40.814 339.521C41.1053 339.506 41.3896 339.427 41.647 339.29C41.813 339.202 41.891 339.158 42.03 339.07C42.03 339.07 42.073 339.042 42.155 338.98C42.29 338.88 42.373 338.809 42.485 338.692C42.568 338.606 42.64 338.505 42.695 338.39C42.773 338.227 42.851 337.916 42.883 337.657C42.907 337.459 42.9 337.351 42.897 337.284C42.893 337.177 42.804 337.066 42.707 337.019L42.125 336.758C42.125 336.758 41.255 336.379 40.724 336.137C40.668 336.113 40.608 336.099 40.547 336.096C40.4786 336.089 40.4095 336.097 40.3443 336.119C40.2791 336.14 40.2193 336.176 40.169 336.223V336.221C40.164 336.221 40.097 336.278 39.374 337.154C39.3325 337.21 39.2754 337.252 39.2098 337.275C39.1443 337.298 39.0733 337.301 39.006 337.284C38.9409 337.267 38.877 337.245 38.815 337.218C38.691 337.166 38.648 337.146 38.563 337.109L38.558 337.107C37.9859 336.857 37.4562 336.52 36.988 336.107C36.862 335.997 36.745 335.877 36.625 335.761C36.2316 335.384 35.8887 334.958 35.605 334.493L35.546 334.398C35.5036 334.334 35.4694 334.265 35.444 334.193C35.406 334.046 35.505 333.928 35.505 333.928C35.505 333.928 35.748 333.662 35.861 333.518C35.9551 333.398 36.0429 333.274 36.124 333.145C36.242 332.955 36.279 332.76 36.217 332.609C35.937 331.925 35.647 331.244 35.349 330.568C35.29 330.434 35.115 330.338 34.956 330.319C34.902 330.313 34.848 330.307 34.794 330.303C34.6597 330.296 34.5251 330.298 34.391 330.307V330.308Z" fill="white"/>
<path d="M72.912 334.136H68.736V330.056H65.64V334.136H61.488V337.064H65.64V341.144H68.736V337.064H72.912V334.136ZM80.2562 340.832L84.1202 337.184C86.4722 335 86.9282 333.512 86.9282 331.88C86.9282 328.832 84.4322 326.912 80.6882 326.912C77.6642 326.912 75.3122 328.136 74.0162 330.032L76.8482 331.856C77.6642 330.728 78.8882 330.176 80.3282 330.176C82.1042 330.176 83.0162 330.944 83.0162 332.264C83.0162 333.08 82.7522 333.944 81.2642 335.36L74.7842 341.48V344H87.4802V340.832H80.2562ZM96.9324 334.04L100.724 329.72V327.2H88.9644V330.32H96.1164L92.6604 334.232V336.8H94.4364C96.6444 336.8 97.5804 337.592 97.5804 338.864C97.5804 340.232 96.3804 341.024 94.4364 341.024C92.6844 341.024 90.9084 340.472 89.6364 339.512L88.1244 342.488C89.7564 343.64 92.1804 344.288 94.5324 344.288C99.3084 344.288 101.492 341.696 101.492 338.864C101.492 336.392 99.9564 334.52 96.9324 334.04ZM118.672 337.304H115.936V334.16H112.264V337.304H107.752L115.096 327.2H111.016L103.096 337.856V340.472H112.144V344H115.936V340.472H118.672V337.304ZM132.535 326.912C128.983 326.912 126.175 329.072 126.175 332.504C126.175 335.672 128.719 337.736 131.959 337.736C133.711 337.736 135.151 337.208 136.135 336.224C136.015 339.464 134.191 341.12 131.407 341.12C130.255 341.12 129.175 340.904 128.263 340.28L126.823 343.136C127.999 343.88 129.703 344.288 131.479 344.288C136.567 344.288 140.047 341.048 140.047 335.24C140.047 329.816 137.191 326.912 132.535 326.912ZM132.823 334.832C131.095 334.832 129.967 333.848 129.967 332.312C129.967 330.776 131.119 329.816 132.775 329.816C134.623 329.816 135.703 330.872 135.703 332.312C135.703 333.776 134.527 334.832 132.823 334.832ZM141.004 327.2V330.32H144.364V344H148.252V327.2H141.004ZM159.018 334.04L162.81 329.72V327.2H151.05V330.32H158.202L154.746 334.232V336.8H156.522C158.73 336.8 159.666 337.592 159.666 338.864C159.666 340.232 158.466 341.024 156.522 341.024C154.77 341.024 152.994 340.472 151.722 339.512L150.21 342.488C151.842 343.64 154.266 344.288 156.618 344.288C161.394 344.288 163.578 341.696 163.578 338.864C163.578 336.392 162.042 334.52 159.018 334.04ZM171.278 326.912C167.726 326.912 164.918 329.072 164.918 332.504C164.918 335.672 167.462 337.736 170.702 337.736C172.454 337.736 173.894 337.208 174.878 336.224C174.758 339.464 172.934 341.12 170.15 341.12C168.998 341.12 167.918 340.904 167.006 340.28L165.566 343.136C166.742 343.88 168.446 344.288 170.222 344.288C175.31 344.288 178.79 341.048 178.79 335.24C178.79 329.816 175.934 326.912 171.278 326.912ZM171.566 334.832C169.838 334.832 168.71 333.848 168.71 332.312C168.71 330.776 169.862 329.816 171.518 329.816C173.366 329.816 174.446 330.872 174.446 332.312C174.446 333.776 173.27 334.832 171.566 334.832ZM195.3 334.04L199.092 329.72V327.2H187.332V330.32H194.484L191.028 334.232V336.8H192.804C195.012 336.8 195.948 337.592 195.948 338.864C195.948 340.232 194.748 341.024 192.804 341.024C191.052 341.024 189.276 340.472 188.004 339.512L186.492 342.488C188.124 343.64 190.548 344.288 192.9 344.288C197.676 344.288 199.86 341.696 199.86 338.864C199.86 336.392 198.324 334.52 195.3 334.04ZM217.039 337.304H214.303V334.16H210.631V337.304H206.119L213.463 327.2H209.383L201.463 337.856V340.472H210.511V344H214.303V340.472H217.039V337.304ZM223.915 333.512H222.547L222.811 330.32H229.819V327.2H219.571L218.707 336.656H223.003C226.051 336.656 226.915 337.52 226.915 338.84C226.915 340.208 225.715 341.024 223.771 341.024C222.019 341.024 220.267 340.472 218.995 339.512L217.459 342.488C219.091 343.64 221.539 344.288 223.867 344.288C228.667 344.288 230.851 341.696 230.851 338.72C230.851 335.744 228.883 333.512 223.915 333.512ZM247.073 334.04L250.865 329.72V327.2H239.105V330.32H246.257L242.801 334.232V336.8H244.577C246.785 336.8 247.721 337.592 247.721 338.864C247.721 340.232 246.521 341.024 244.577 341.024C242.825 341.024 241.049 340.472 239.777 339.512L238.265 342.488C239.897 343.64 242.321 344.288 244.673 344.288C249.449 344.288 251.633 341.696 251.633 338.864C251.633 336.392 250.097 334.52 247.073 334.04ZM258.954 333.512H257.586L257.85 330.32H264.858V327.2H254.61L253.746 336.656H258.042C261.09 336.656 261.954 337.52 261.954 338.84C261.954 340.208 260.754 341.024 258.81 341.024C257.058 341.024 255.306 340.472 254.034 339.512L252.498 342.488C254.13 343.64 256.578 344.288 258.906 344.288C263.706 344.288 265.89 341.696 265.89 338.72C265.89 335.744 263.922 333.512 258.954 333.512ZM266.874 327.2V333.104H270.33V330.368H275.898L269.874 344H274.098L280.338 329.72V327.2H266.874Z" fill="white"/>
<path d="M38 382.108L47.585 375.95C47.1997 375.661 46.7317 375.503 46.25 375.5H29.75C29.2683 375.503 28.8004 375.661 28.415 375.95L38 382.108Z" fill="white"/>
<path d="M38.405 383.63L38.2775 383.69H38.2175C38.1484 383.721 38.0751 383.741 38 383.75C37.9377 383.758 37.8748 383.758 37.8125 383.75H37.7525L37.625 383.69L27.575 377.195C27.527 377.376 27.5018 377.563 27.5 377.75V388.25C27.5 388.847 27.7371 389.419 28.159 389.841C28.581 390.263 29.1533 390.5 29.75 390.5H46.25C46.8467 390.5 47.419 390.263 47.841 389.841C48.2629 389.419 48.5 388.847 48.5 388.25V377.75C48.4982 377.563 48.473 377.376 48.425 377.195L38.405 383.63Z" fill="white"/>
<path d="M67.968 392.192C70.68 392.192 72.816 390.992 73.752 388.928L70.848 387.344C70.152 388.592 69.12 389.12 67.944 389.12C66.048 389.12 64.56 387.8 64.56 385.544C64.56 383.288 66.048 381.968 67.944 381.968C69.12 381.968 70.152 382.52 70.848 383.744L73.752 382.184C72.816 380.072 70.68 378.896 67.968 378.896C63.768 378.896 60.768 381.656 60.768 385.544C60.768 389.432 63.768 392.192 67.968 392.192ZM83.6619 378.896C82.0059 378.896 80.5659 379.424 79.5579 380.432V374.192H75.8139V392H79.5579V385.616C79.5579 383.24 80.8539 382.136 82.6539 382.136C84.3099 382.136 85.2699 383.096 85.2699 385.184V392H89.0139V384.608C89.0139 380.672 86.7099 378.896 83.6619 378.896ZM97.6157 378.896C95.5517 378.896 93.4637 379.448 92.0477 380.456L93.3917 383.072C94.3277 382.328 95.7437 381.872 97.1117 381.872C99.1277 381.872 100.088 382.808 100.088 384.416H97.1117C93.1757 384.416 91.5677 386 91.5677 388.28C91.5677 390.512 93.3677 392.192 96.3917 392.192C98.2877 392.192 99.6317 391.568 100.328 390.392V392H103.832V384.632C103.832 380.72 101.552 378.896 97.6157 378.896ZM97.3277 389.672C96.0077 389.672 95.2157 389.048 95.2157 388.112C95.2157 387.248 95.7677 386.6 97.5197 386.6H100.088V387.92C99.6557 389.096 98.5757 389.672 97.3277 389.672ZM107.22 392H110.964V374.192H107.22V392ZM114.439 392H118.183V374.192H114.439V392ZM134.306 385.592C134.306 381.44 131.378 378.896 127.586 378.896C123.65 378.896 120.698 381.68 120.698 385.544C120.698 389.384 123.602 392.192 128.066 392.192C130.394 392.192 132.194 391.472 133.394 390.104L131.402 387.944C130.514 388.784 129.53 389.192 128.162 389.192C126.194 389.192 124.826 388.208 124.466 386.6H134.234C134.258 386.288 134.306 385.88 134.306 385.592ZM127.61 381.728C129.29 381.728 130.514 382.784 130.778 384.416H124.418C124.682 382.76 125.906 381.728 127.61 381.728ZM144.646 378.896C142.894 378.896 141.382 379.496 140.374 380.6V379.088H136.798V392H140.542V385.616C140.542 383.24 141.838 382.136 143.638 382.136C145.294 382.136 146.254 383.096 146.254 385.184V392H149.998V384.608C149.998 380.672 147.694 378.896 144.646 378.896ZM163.301 379.088V380.744C162.317 379.496 160.829 378.896 159.029 378.896C155.453 378.896 152.573 381.368 152.573 385.136C152.573 388.904 155.453 391.376 159.029 391.376C160.709 391.376 162.125 390.848 163.109 389.768V390.32C163.109 392.648 161.957 393.848 159.317 393.848C157.661 393.848 155.861 393.272 154.757 392.384L153.269 395.072C154.781 396.248 157.157 396.848 159.605 396.848C164.261 396.848 166.853 394.64 166.853 389.84V379.088H163.301ZM159.773 388.304C157.805 388.304 156.365 387.032 156.365 385.136C156.365 383.24 157.805 381.968 159.773 381.968C161.741 381.968 163.157 383.24 163.157 385.136C163.157 387.032 161.741 388.304 159.773 388.304ZM182.985 385.592C182.985 381.44 180.057 378.896 176.265 378.896C172.329 378.896 169.377 381.68 169.377 385.544C169.377 389.384 172.281 392.192 176.745 392.192C179.073 392.192 180.873 391.472 182.073 390.104L180.081 387.944C179.193 388.784 178.209 389.192 176.841 389.192C174.873 389.192 173.505 388.208 173.145 386.6H182.913C182.937 386.288 182.985 385.88 182.985 385.592ZM176.289 381.728C177.969 381.728 179.193 382.784 179.457 384.416H173.097C173.361 382.76 174.585 381.728 176.289 381.728ZM196.302 374.96C189.318 374.96 184.686 379.64 184.686 385.904C184.686 392.24 189.27 396.944 196.206 396.944C198.102 396.944 200.238 396.536 201.702 395.792L200.934 393.584C199.422 394.328 197.718 394.64 196.206 394.64C190.878 394.64 187.374 391.016 187.374 385.904C187.374 380.888 190.95 377.24 196.302 377.24C201.63 377.24 205.23 380.6 205.23 385.472C205.23 388.256 204.558 389.528 203.454 389.528C202.806 389.528 202.302 389.144 202.302 387.992V380.216H199.038V381.632C198.174 380.6 196.926 380.048 195.342 380.048C192.222 380.048 189.798 382.496 189.798 386.096C189.798 389.72 192.246 392.168 195.342 392.168C197.238 392.168 198.606 391.424 199.446 390.08C199.95 391.448 201.102 392.168 202.734 392.168C205.686 392.168 207.654 389.72 207.654 385.424C207.654 379.4 203.046 374.96 196.302 374.96ZM196.086 389.408C194.334 389.408 193.11 388.16 193.11 386.096C193.11 384.056 194.334 382.832 196.086 382.832C197.814 382.832 199.086 384.008 199.086 386.096C199.086 388.208 197.814 389.408 196.086 389.408ZM219.586 379.088V385.472C219.586 387.848 218.338 388.952 216.61 388.952C214.954 388.952 213.994 387.992 213.994 385.832V379.088H210.25V386.384C210.25 390.368 212.53 392.192 215.77 392.192C217.354 392.192 218.794 391.592 219.778 390.464V392H223.33V379.088H219.586ZM226.798 392H230.542V374.192H226.798V392ZM246.665 385.592C246.665 381.44 243.737 378.896 239.945 378.896C236.009 378.896 233.057 381.68 233.057 385.544C233.057 389.384 235.961 392.192 240.425 392.192C242.753 392.192 244.553 391.472 245.753 390.104L243.761 387.944C242.873 388.784 241.889 389.192 240.521 389.192C238.553 389.192 237.185 388.208 236.825 386.6H246.593C246.617 386.288 246.665 385.88 246.665 385.592ZM239.969 381.728C241.649 381.728 242.873 382.784 243.137 384.416H236.777C237.041 382.76 238.265 381.728 239.969 381.728ZM253.502 392.192C257.366 392.192 259.598 390.488 259.598 388.088C259.598 383 251.798 385.136 251.798 382.928C251.798 382.256 252.518 381.728 254.198 381.728C255.374 381.728 256.646 381.968 257.918 382.688L259.166 380.024C257.942 379.304 255.974 378.896 254.198 378.896C250.43 378.896 248.222 380.624 248.222 383.072C248.222 388.232 256.022 386.072 256.022 388.184C256.022 388.904 255.374 389.36 253.646 389.36C252.062 389.36 250.31 388.856 249.158 388.112L247.91 390.8C249.11 391.592 251.318 392.192 253.502 392.192ZM266.252 392.192C270.116 392.192 272.348 390.488 272.348 388.088C272.348 383 264.548 385.136 264.548 382.928C264.548 382.256 265.268 381.728 266.948 381.728C268.124 381.728 269.396 381.968 270.668 382.688L271.916 380.024C270.692 379.304 268.724 378.896 266.948 378.896C263.18 378.896 260.972 380.624 260.972 383.072C260.972 388.232 268.772 386.072 268.772 388.184C268.772 388.904 268.124 389.36 266.396 389.36C264.812 389.36 263.06 388.856 261.908 388.112L260.66 390.8C261.86 391.592 264.068 392.192 266.252 392.192ZM280.802 392.192C284.906 392.192 287.882 389.432 287.882 385.544C287.882 381.656 284.906 378.896 280.802 378.896C276.698 378.896 273.698 381.656 273.698 385.544C273.698 389.432 276.698 392.192 280.802 392.192ZM280.802 389.12C278.93 389.12 277.49 387.776 277.49 385.544C277.49 383.312 278.93 381.968 280.802 381.968C282.674 381.968 284.09 383.312 284.09 385.544C284.09 387.776 282.674 389.12 280.802 389.12ZM298.232 378.896C296.48 378.896 294.968 379.496 293.96 380.6V379.088H290.384V392H294.128V385.616C294.128 383.24 295.424 382.136 297.224 382.136C298.88 382.136 299.84 383.096 299.84 385.184V392H303.584V384.608C303.584 380.672 301.28 378.896 298.232 378.896ZM308.394 392.192C309.69 392.192 310.722 391.208 310.722 389.84C310.722 388.448 309.69 387.536 308.394 387.536C307.098 387.536 306.066 388.448 306.066 389.84C306.066 391.208 307.098 392.192 308.394 392.192ZM67.968 416.192C70.68 416.192 72.816 414.992 73.752 412.928L70.848 411.344C70.152 412.592 69.12 413.12 67.944 413.12C66.048 413.12 64.56 411.8 64.56 409.544C64.56 407.288 66.048 405.968 67.944 405.968C69.12 405.968 70.152 406.52 70.848 407.744L73.752 406.184C72.816 404.072 70.68 402.896 67.968 402.896C63.768 402.896 60.768 405.656 60.768 409.544C60.768 413.432 63.768 416.192 67.968 416.192ZM81.8876 416.192C85.9916 416.192 88.9676 413.432 88.9676 409.544C88.9676 405.656 85.9916 402.896 81.8876 402.896C77.7836 402.896 74.7836 405.656 74.7836 409.544C74.7836 413.432 77.7836 416.192 81.8876 416.192ZM81.8876 413.12C80.0156 413.12 78.5756 411.776 78.5756 409.544C78.5756 407.312 80.0156 405.968 81.8876 405.968C83.7596 405.968 85.1756 407.312 85.1756 409.544C85.1756 411.776 83.7596 413.12 81.8876 413.12ZM108.006 402.896C106.062 402.896 104.382 403.688 103.35 405.008C102.438 403.592 100.902 402.896 99.1022 402.896C97.4462 402.896 96.0062 403.472 95.0462 404.576V403.088H91.4702V416H95.2142V409.52C95.2142 407.216 96.3902 406.136 98.0462 406.136C99.6062 406.136 100.494 407.096 100.494 409.184V416H104.238V409.52C104.238 407.216 105.414 406.136 107.094 406.136C108.606 406.136 109.542 407.096 109.542 409.184V416H113.286V408.608C113.286 404.672 111.078 402.896 108.006 402.896Z" fill="white"/>
</svg>
