<svg width="1283" height="40" viewBox="0 0 1283 40" fill="none" xmlns="http://www.w3.org/2000/svg">
<path d="M41.1719 28.7949C36.4283 28.7949 36.082 25.8159 36.082 22.5772V12.6558H39.9291V22.1419C39.9291 24.4271 40.3051 25.4102 42.3875 25.4102C44.0359 25.4102 45.7424 24.5718 46.4943 24.1662V12.6558H50.3414V28.4474H46.4943V26.7408C45.4531 27.4939 43.4287 28.7949 41.1719 28.7949ZM55.1988 28.4474V8H59.1325V25.2668H68.0113V28.4486H55.1988V28.4474ZM77.8164 28.7949C72.8415 28.7949 69.6894 27.0018 69.6894 20.8125C69.6894 14.3624 72.9578 12.2811 77.412 12.2811C81.9813 12.2811 83.8325 15.2886 83.8325 20.235V21.6237H73.5365C73.5365 25.0949 75.7055 25.6724 78.5114 25.6724C79.6107 25.6724 81.4904 25.2965 82.7913 25.0356L83.3985 28.0146C82.0963 28.4189 79.9854 28.7949 77.8164 28.7949ZM73.6231 19.0479H79.8704C79.8989 16.6761 78.9454 15.0277 77.0361 15.0277C75.0971 15.0277 73.7962 16.4448 73.6231 19.0479ZM91.5836 28.7949C89.3565 28.7949 87.5918 28.5055 86.2625 28.1296L86.725 25.1506C88.3734 25.4102 89.9933 25.6712 91.2077 25.6712C93.6661 25.6712 94.3895 24.9193 94.3895 24.0512C94.3895 21.6213 86.4356 22.5759 86.4356 16.9939C86.4356 13.8121 89.328 12.2502 92.6248 12.2502C94.476 12.2502 96.1529 12.6262 97.3685 13.0602L96.7316 15.923C95.4876 15.6336 94.3017 15.3442 92.6248 15.3442C90.8602 15.3442 90.2827 16.1245 90.2827 16.7898C90.2827 19.3063 98.1785 18.6114 98.1785 23.8472C98.1772 27.8117 94.2151 28.7949 91.5836 28.7949ZM105.87 28.7949C103.643 28.7949 101.878 28.5055 100.549 28.1296L101.012 25.1506C102.66 25.4102 104.28 25.6712 105.494 25.6712C107.953 25.6712 108.676 24.9193 108.676 24.0512C108.676 21.6213 100.722 22.5759 100.722 16.9939C100.722 13.8121 103.615 12.2502 106.911 12.2502C108.763 12.2502 110.439 12.6262 111.655 13.0602L111.018 15.923C109.774 15.6336 108.588 15.3442 106.911 15.3442C105.147 15.3442 104.569 16.1245 104.569 16.7898C104.569 19.3063 112.465 18.6114 112.465 23.8472C112.465 27.8117 108.503 28.7949 105.87 28.7949ZM122.558 28.7949C117.67 28.7949 114.923 25.7293 114.923 20.6963C114.923 15.3751 118.105 12.2515 122.791 12.2515C128.055 12.2515 130.484 15.3467 130.484 20.5516C130.484 25.989 127.129 28.7949 122.558 28.7949ZM122.761 25.7009C125.827 25.7009 126.578 23.4156 126.578 20.5528C126.578 17.8632 125.827 15.3183 122.703 15.3183C119.637 15.3183 118.799 17.8632 118.799 20.5825C118.799 23.5022 119.754 25.7009 122.761 25.7009ZM134.04 28.4474V12.6558H137.887V14.3339C139.045 13.4955 140.983 12.2515 143.18 12.2515C148.01 12.2515 148.328 15.1723 148.328 18.4407V28.4474H144.511V18.8748C144.511 16.4745 144.048 15.6064 141.936 15.6064C140.346 15.6064 138.841 16.3298 137.887 16.8504V28.4486H134.04V28.4474Z" fill="#301446"/>
<path fill-rule="evenodd" clip-rule="evenodd" d="M13.5891 11.5365C14.435 9.89677 16.1477 8.77393 18.1151 8.77393H27.1733V28.0317H18.1139C14.2393 28.0317 14.1563 31.7964 14.1518 31.9971L14.1518 32H13.4754H13.0203C13.0203 31.8367 12.9547 28.0317 9.09528 28.0317H0.0395716L0 27.4678V8.77393H9.05941C11.0269 8.77393 12.7396 9.89677 13.5891 11.5365ZM6.12962 18.4837C5.5175 18.041 4.99689 17.5352 4.56531 16.9639L3.51172 17.7343C3.85673 18.433 4.34149 19.1366 4.96721 19.8427C5.5917 20.5488 6.33614 21.1844 7.19929 21.7483C8.06245 22.3122 9.03319 22.7685 10.1115 23.1185C11.1898 23.4684 12.3547 23.6428 13.6062 23.6428C14.8576 23.6428 16.0225 23.4684 17.1008 23.1185C18.1792 22.7685 19.1499 22.3122 20.0131 21.7483C20.875 21.1844 21.6194 20.5488 22.2451 19.8427C22.8696 19.1366 23.3556 18.4342 23.7006 17.7343L22.6433 16.9639C22.2118 17.5339 21.6899 18.041 21.079 18.4837C20.4669 18.9264 19.8016 19.2899 19.0831 19.5756C18.3647 19.8612 17.6054 20.0789 16.8078 20.2285C16.0101 20.3781 15.2076 20.4536 14.4026 20.4536H12.8061C12.0011 20.4536 11.1985 20.3781 10.4009 20.2285C9.60326 20.0789 8.84399 19.8612 8.12551 19.5756C7.40581 19.2899 6.74051 18.9264 6.12962 18.4837Z" fill="#7B7FDA"/>
<path d="M409.656 26V14.72H414.36C415.576 14.72 416.509 14.976 417.16 15.488C417.821 16 418.152 16.72 418.152 17.648C418.152 18.3413 417.944 18.9227 417.528 19.392C417.112 19.8613 416.541 20.176 415.816 20.336V20.096C416.648 20.2027 417.293 20.496 417.752 20.976C418.211 21.456 418.44 22.0907 418.44 22.88C418.44 23.8827 418.099 24.656 417.416 25.2C416.744 25.7333 415.795 26 414.568 26H409.656ZM411.272 24.704H414.392C415.149 24.704 415.741 24.56 416.168 24.272C416.605 23.984 416.824 23.4987 416.824 22.816C416.824 22.1333 416.605 21.648 416.168 21.36C415.741 21.072 415.149 20.928 414.392 20.928H411.272V24.704ZM411.272 19.648H414.104C414.915 19.648 415.523 19.4933 415.928 19.184C416.333 18.8747 416.536 18.4213 416.536 17.824C416.536 17.2267 416.333 16.7733 415.928 16.464C415.523 16.1547 414.915 16 414.104 16H411.272V19.648ZM420.305 26V14.224H421.921V26H420.305ZM427.586 26.144C426.786 26.144 426.092 25.9787 425.506 25.648C424.919 25.3067 424.466 24.8267 424.146 24.208C423.826 23.5787 423.666 22.832 423.666 21.968C423.666 21.104 423.826 20.3627 424.146 19.744C424.466 19.1147 424.919 18.6347 425.506 18.304C426.092 17.9627 426.786 17.792 427.586 17.792C428.386 17.792 429.079 17.9627 429.666 18.304C430.263 18.6347 430.722 19.1147 431.042 19.744C431.372 20.3627 431.538 21.104 431.538 21.968C431.538 22.832 431.372 23.5787 431.042 24.208C430.722 24.8267 430.263 25.3067 429.666 25.648C429.079 25.9787 428.386 26.144 427.586 26.144ZM427.586 24.88C428.29 24.88 428.85 24.6347 429.266 24.144C429.682 23.6533 429.89 22.928 429.89 21.968C429.89 21.008 429.682 20.288 429.266 19.808C428.85 19.3173 428.29 19.072 427.586 19.072C426.892 19.072 426.338 19.3173 425.922 19.808C425.506 20.288 425.298 21.008 425.298 21.968C425.298 22.928 425.5 23.6533 425.906 24.144C426.322 24.6347 426.882 24.88 427.586 24.88ZM436.899 29.584C436.173 29.584 435.512 29.4987 434.915 29.328C434.328 29.1573 433.8 28.9013 433.331 28.56L433.731 27.376C434.061 27.6 434.387 27.776 434.707 27.904C435.027 28.0427 435.363 28.144 435.715 28.208C436.067 28.272 436.429 28.304 436.803 28.304C437.571 28.304 438.147 28.1067 438.531 27.712C438.925 27.328 439.123 26.768 439.123 26.032V23.872H439.283C439.112 24.4693 438.76 24.944 438.227 25.296C437.704 25.6373 437.096 25.808 436.403 25.808C435.667 25.808 435.027 25.648 434.483 25.328C433.949 24.9973 433.533 24.5333 433.235 23.936C432.947 23.328 432.803 22.6133 432.803 21.792C432.803 20.9707 432.947 20.2613 433.235 19.664C433.533 19.0667 433.949 18.608 434.483 18.288C435.027 17.9573 435.667 17.792 436.403 17.792C437.107 17.792 437.715 17.968 438.227 18.32C438.749 18.6613 439.096 19.1307 439.267 19.728L439.123 19.6L439.267 17.936H440.835C440.792 18.2667 440.76 18.5973 440.739 18.928C440.717 19.248 440.707 19.5627 440.707 19.872V25.84C440.707 27.056 440.381 27.984 439.731 28.624C439.091 29.264 438.147 29.584 436.899 29.584ZM436.787 24.544C437.491 24.544 438.051 24.304 438.467 23.824C438.893 23.344 439.107 22.6667 439.107 21.792C439.107 20.9173 438.893 20.2453 438.467 19.776C438.051 19.3067 437.491 19.072 436.787 19.072C436.061 19.072 435.485 19.3067 435.059 19.776C434.643 20.2453 434.435 20.9173 434.435 21.792C434.435 22.6667 434.643 23.344 435.059 23.824C435.485 24.304 436.061 24.544 436.787 24.544Z" fill="#301446"/>
<path d="M491.656 26V14.72H496.44C497.645 14.72 498.568 15.0133 499.208 15.6C499.859 16.176 500.184 16.976 500.184 18C500.184 19.024 499.859 19.8293 499.208 20.416C498.568 21.0027 497.645 21.296 496.44 21.296H493.32V26H491.656ZM493.32 19.968H496.264C497.021 19.968 497.592 19.7973 497.976 19.456C498.36 19.1147 498.552 18.6293 498.552 18C498.552 17.3813 498.36 16.9013 497.976 16.56C497.592 16.2187 497.021 16.048 496.264 16.048H493.32V19.968ZM501.695 26V19.936C501.695 19.6053 501.684 19.2747 501.663 18.944C501.652 18.6027 501.631 18.2667 501.599 17.936H503.167L503.343 20.016H503.087C503.194 19.5147 503.375 19.0987 503.631 18.768C503.887 18.4373 504.196 18.192 504.559 18.032C504.932 17.872 505.322 17.792 505.727 17.792C505.898 17.792 506.042 17.8027 506.159 17.824C506.276 17.8347 506.394 17.856 506.511 17.888L506.495 19.328C506.314 19.2533 506.154 19.2107 506.015 19.2C505.887 19.1787 505.727 19.168 505.535 19.168C505.066 19.168 504.666 19.2747 504.335 19.488C504.004 19.6907 503.754 19.968 503.583 20.32C503.412 20.672 503.327 21.0507 503.327 21.456V26H501.695ZM507.598 26V17.936H509.214V26H507.598ZM507.47 16.256V14.576H509.342V16.256H507.47ZM513.791 26L510.335 17.936H512.063L514.783 24.672H514.319L517.087 17.936H518.735L515.263 26H513.791ZM522.788 26.144C522.074 26.144 521.45 25.9787 520.916 25.648C520.383 25.3173 519.967 24.8373 519.668 24.208C519.38 23.5787 519.236 22.832 519.236 21.968C519.236 21.0933 519.38 20.3467 519.668 19.728C519.967 19.1093 520.383 18.6347 520.916 18.304C521.45 17.9627 522.074 17.792 522.788 17.792C523.492 17.792 524.106 17.968 524.628 18.32C525.151 18.672 525.498 19.152 525.668 19.76H525.492L525.652 17.936H527.22C527.188 18.2667 527.156 18.5973 527.124 18.928C527.103 19.248 527.092 19.5627 527.092 19.872V26H525.476V24.208H525.652C525.482 24.8053 525.13 25.28 524.596 25.632C524.074 25.9733 523.471 26.144 522.788 26.144ZM523.188 24.88C523.882 24.88 524.436 24.6347 524.852 24.144C525.279 23.6533 525.492 22.928 525.492 21.968C525.492 21.008 525.279 20.288 524.852 19.808C524.436 19.3173 523.882 19.072 523.188 19.072C522.484 19.072 521.919 19.3173 521.492 19.808C521.076 20.288 520.868 21.008 520.868 21.968C520.868 22.928 521.076 23.6533 521.492 24.144C521.908 24.6347 522.474 24.88 523.188 24.88ZM532.826 26.144C532.016 26.144 531.306 25.9787 530.698 25.648C530.101 25.3067 529.637 24.8213 529.306 24.192C528.986 23.552 528.826 22.7947 528.826 21.92C528.826 21.056 528.992 20.3147 529.322 19.696C529.653 19.0773 530.117 18.608 530.714 18.288C531.312 17.9573 532.016 17.792 532.826 17.792C533.349 17.792 533.856 17.8827 534.346 18.064C534.837 18.2347 535.242 18.48 535.562 18.8L535.034 19.936C534.736 19.648 534.4 19.4347 534.026 19.296C533.653 19.1467 533.29 19.072 532.938 19.072C532.17 19.072 531.568 19.3173 531.13 19.808C530.693 20.2987 530.474 21.008 530.474 21.936C530.474 22.8747 530.693 23.5947 531.13 24.096C531.568 24.5973 532.17 24.848 532.938 24.848C533.28 24.848 533.637 24.784 534.01 24.656C534.384 24.5173 534.725 24.2987 535.034 24L535.562 25.136C535.232 25.456 534.816 25.7067 534.314 25.888C533.824 26.0587 533.328 26.144 532.826 26.144ZM536.968 29.632L536.584 28.32C537.086 28.2133 537.502 28.0853 537.832 27.936C538.174 27.7867 538.456 27.5893 538.68 27.344C538.904 27.1093 539.096 26.8053 539.256 26.432L539.656 25.488L539.624 26.144L536.12 17.936H537.848L540.568 24.656H540.136L542.856 17.936H544.52L540.824 26.576C540.59 27.1093 540.339 27.5573 540.072 27.92C539.806 28.2827 539.518 28.576 539.208 28.8C538.899 29.024 538.558 29.2 538.184 29.328C537.811 29.456 537.406 29.5573 536.968 29.632ZM549.876 26V14.72H554.66C555.865 14.72 556.788 15.0133 557.428 15.6C558.079 16.176 558.404 16.976 558.404 18C558.404 19.024 558.079 19.8293 557.428 20.416C556.788 21.0027 555.865 21.296 554.66 21.296H551.54V26H549.876ZM551.54 19.968H554.484C555.241 19.968 555.812 19.7973 556.196 19.456C556.58 19.1147 556.772 18.6293 556.772 18C556.772 17.3813 556.58 16.9013 556.196 16.56C555.812 16.2187 555.241 16.048 554.484 16.048H551.54V19.968ZM563.169 26.144C562.369 26.144 561.675 25.9787 561.089 25.648C560.502 25.3067 560.049 24.8267 559.729 24.208C559.409 23.5787 559.249 22.832 559.249 21.968C559.249 21.104 559.409 20.3627 559.729 19.744C560.049 19.1147 560.502 18.6347 561.089 18.304C561.675 17.9627 562.369 17.792 563.169 17.792C563.969 17.792 564.662 17.9627 565.249 18.304C565.846 18.6347 566.305 19.1147 566.625 19.744C566.955 20.3627 567.121 21.104 567.121 21.968C567.121 22.832 566.955 23.5787 566.625 24.208C566.305 24.8267 565.846 25.3067 565.249 25.648C564.662 25.9787 563.969 26.144 563.169 26.144ZM563.169 24.88C563.873 24.88 564.433 24.6347 564.849 24.144C565.265 23.6533 565.473 22.928 565.473 21.968C565.473 21.008 565.265 20.288 564.849 19.808C564.433 19.3173 563.873 19.072 563.169 19.072C562.475 19.072 561.921 19.3173 561.505 19.808C561.089 20.288 560.881 21.008 560.881 21.968C560.881 22.928 561.083 23.6533 561.489 24.144C561.905 24.6347 562.465 24.88 563.169 24.88ZM568.85 26V14.224H570.466V26H568.85ZM572.674 26V17.936H574.29V26H572.674ZM572.546 16.256V14.576H574.418V16.256H572.546ZM580.034 26.144C579.224 26.144 578.514 25.9787 577.906 25.648C577.309 25.3067 576.845 24.8213 576.514 24.192C576.194 23.552 576.034 22.7947 576.034 21.92C576.034 21.056 576.2 20.3147 576.53 19.696C576.861 19.0773 577.325 18.608 577.922 18.288C578.52 17.9573 579.224 17.792 580.034 17.792C580.557 17.792 581.064 17.8827 581.554 18.064C582.045 18.2347 582.45 18.48 582.77 18.8L582.242 19.936C581.944 19.648 581.608 19.4347 581.234 19.296C580.861 19.1467 580.498 19.072 580.146 19.072C579.378 19.072 578.776 19.3173 578.338 19.808C577.901 20.2987 577.682 21.008 577.682 21.936C577.682 22.8747 577.901 23.5947 578.338 24.096C578.776 24.5973 579.378 24.848 580.146 24.848C580.488 24.848 580.845 24.784 581.218 24.656C581.592 24.5173 581.933 24.2987 582.242 24L582.77 25.136C582.44 25.456 582.024 25.7067 581.522 25.888C581.032 26.0587 580.536 26.144 580.034 26.144ZM584.176 29.632L583.792 28.32C584.294 28.2133 584.71 28.0853 585.04 27.936C585.382 27.7867 585.664 27.5893 585.888 27.344C586.112 27.1093 586.304 26.8053 586.464 26.432L586.864 25.488L586.832 26.144L583.328 17.936H585.056L587.776 24.656H587.344L590.064 17.936H591.728L588.032 26.576C587.798 27.1093 587.547 27.5573 587.28 27.92C587.014 28.2827 586.726 28.576 586.416 28.8C586.107 29.024 585.766 29.2 585.392 29.328C585.019 29.456 584.614 29.5573 584.176 29.632Z" fill="#301446"/>
<path d="M635.36 26V16.112H631.504V14.72H640.88V16.112H637.024V26H635.36ZM644.627 26.144C643.326 26.144 642.302 25.776 641.555 25.04C640.808 24.304 640.435 23.2853 640.435 21.984C640.435 21.1413 640.595 20.4053 640.915 19.776C641.246 19.1467 641.699 18.6613 642.275 18.32C642.862 17.968 643.539 17.792 644.307 17.792C645.064 17.792 645.699 17.952 646.211 18.272C646.723 18.592 647.112 19.0453 647.379 19.632C647.646 20.208 647.779 20.8907 647.779 21.68V22.192H641.699V21.264H646.675L646.403 21.472C646.403 20.672 646.222 20.0533 645.859 19.616C645.507 19.168 644.995 18.944 644.323 18.944C643.576 18.944 643 19.2053 642.595 19.728C642.19 20.24 641.987 20.9493 641.987 21.856V22.016C641.987 22.9653 642.216 23.68 642.675 24.16C643.144 24.64 643.806 24.88 644.659 24.88C645.128 24.88 645.566 24.816 645.971 24.688C646.387 24.5493 646.782 24.3253 647.155 24.016L647.683 25.12C647.31 25.4507 646.856 25.7067 646.323 25.888C645.79 26.0587 645.224 26.144 644.627 26.144ZM649.441 26V19.936C649.441 19.6053 649.431 19.2747 649.409 18.944C649.399 18.6027 649.377 18.2667 649.345 17.936H650.913L651.089 20.016H650.833C650.94 19.5147 651.121 19.0987 651.377 18.768C651.633 18.4373 651.943 18.192 652.305 18.032C652.679 17.872 653.068 17.792 653.473 17.792C653.644 17.792 653.788 17.8027 653.905 17.824C654.023 17.8347 654.14 17.856 654.257 17.888L654.241 19.328C654.06 19.2533 653.9 19.2107 653.761 19.2C653.633 19.1787 653.473 19.168 653.281 19.168C652.812 19.168 652.412 19.2747 652.081 19.488C651.751 19.6907 651.5 19.968 651.329 20.32C651.159 20.672 651.073 21.0507 651.073 21.456V26H649.441ZM655.345 26V19.872C655.345 19.5627 655.329 19.248 655.297 18.928C655.275 18.5973 655.249 18.2667 655.217 17.936H656.785L656.929 19.632H656.737C656.961 19.0453 657.302 18.592 657.761 18.272C658.23 17.952 658.79 17.792 659.441 17.792C660.102 17.792 660.641 17.952 661.057 18.272C661.483 18.5813 661.777 19.0613 661.937 19.712H661.681C661.894 19.1253 662.257 18.6613 662.769 18.32C663.281 17.968 663.873 17.792 664.545 17.792C665.441 17.792 666.113 18.0533 666.561 18.576C667.009 19.0987 667.233 19.9093 667.233 21.008V26H665.617V21.088C665.617 20.384 665.494 19.8773 665.249 19.568C665.014 19.248 664.63 19.088 664.097 19.088C663.478 19.088 662.987 19.3013 662.625 19.728C662.262 20.1547 662.081 20.7307 662.081 21.456V26H660.465V21.088C660.465 20.384 660.342 19.8773 660.097 19.568C659.862 19.248 659.478 19.088 658.945 19.088C658.326 19.088 657.841 19.3013 657.489 19.728C657.137 20.1547 656.961 20.7307 656.961 21.456V26H655.345ZM672.156 26.144C671.484 26.144 670.865 26.0587 670.3 25.888C669.734 25.7173 669.265 25.4773 668.892 25.168L669.388 24.064C669.782 24.3627 670.22 24.5867 670.7 24.736C671.18 24.8853 671.67 24.96 672.172 24.96C672.758 24.96 673.201 24.8587 673.5 24.656C673.798 24.4427 673.948 24.1547 673.948 23.792C673.948 23.5147 673.852 23.2907 673.66 23.12C673.478 22.9493 673.174 22.8213 672.748 22.736L671.212 22.432C670.529 22.2827 670.012 22.0267 669.66 21.664C669.308 21.3013 669.132 20.8373 669.132 20.272C669.132 19.792 669.26 19.3653 669.516 18.992C669.782 18.6187 670.156 18.3253 670.636 18.112C671.126 17.8987 671.697 17.792 672.348 17.792C672.945 17.792 673.5 17.8773 674.012 18.048C674.524 18.2187 674.95 18.464 675.292 18.784L674.78 19.856C674.449 19.5787 674.076 19.3653 673.66 19.216C673.244 19.056 672.822 18.976 672.396 18.976C671.798 18.976 671.356 19.088 671.068 19.312C670.78 19.536 670.636 19.8293 670.636 20.192C670.636 20.4693 670.721 20.6987 670.892 20.88C671.073 21.0507 671.356 21.184 671.74 21.28L673.276 21.584C674.001 21.7333 674.545 21.9787 674.908 22.32C675.27 22.6613 675.452 23.12 675.452 23.696C675.452 24.1973 675.313 24.6347 675.036 25.008C674.758 25.3813 674.374 25.664 673.884 25.856C673.393 26.048 672.817 26.144 672.156 26.144ZM684.758 26.144C683.958 26.144 683.265 25.9787 682.678 25.648C682.091 25.3067 681.638 24.8267 681.318 24.208C680.998 23.5787 680.838 22.832 680.838 21.968C680.838 21.104 680.998 20.3627 681.318 19.744C681.638 19.1147 682.091 18.6347 682.678 18.304C683.265 17.9627 683.958 17.792 684.758 17.792C685.558 17.792 686.251 17.9627 686.838 18.304C687.435 18.6347 687.894 19.1147 688.214 19.744C688.545 20.3627 688.71 21.104 688.71 21.968C688.71 22.832 688.545 23.5787 688.214 24.208C687.894 24.8267 687.435 25.3067 686.838 25.648C686.251 25.9787 685.558 26.144 684.758 26.144ZM684.758 24.88C685.462 24.88 686.022 24.6347 686.438 24.144C686.854 23.6533 687.062 22.928 687.062 21.968C687.062 21.008 686.854 20.288 686.438 19.808C686.022 19.3173 685.462 19.072 684.758 19.072C684.065 19.072 683.51 19.3173 683.094 19.808C682.678 20.288 682.47 21.008 682.47 21.968C682.47 22.928 682.673 23.6533 683.078 24.144C683.494 24.6347 684.054 24.88 684.758 24.88ZM690.841 26V19.184H689.273V17.936H691.289L690.841 18.352V17.072C690.841 16.1227 691.081 15.4027 691.561 14.912C692.041 14.4107 692.745 14.16 693.673 14.16C693.897 14.16 694.132 14.176 694.377 14.208C694.622 14.24 694.825 14.2933 694.985 14.368V15.68C694.857 15.6267 694.697 15.584 694.505 15.552C694.324 15.5093 694.137 15.488 693.945 15.488C693.636 15.488 693.369 15.552 693.145 15.68C692.921 15.7973 692.745 15.9787 692.617 16.224C692.5 16.4693 692.441 16.784 692.441 17.168V18.256L692.201 17.936H694.633V19.184H692.457V26H690.841ZM703.883 26.144C702.977 26.144 702.155 26.032 701.419 25.808C700.683 25.5733 700.043 25.2427 699.499 24.816L700.059 23.504C700.422 23.7813 700.795 24.0107 701.179 24.192C701.574 24.3733 701.99 24.512 702.427 24.608C702.875 24.6933 703.361 24.736 703.883 24.736C704.779 24.736 705.435 24.576 705.851 24.256C706.278 23.936 706.491 23.5147 706.491 22.992C706.491 22.544 706.342 22.1973 706.043 21.952C705.755 21.7067 705.243 21.5093 704.507 21.36L702.763 21.008C701.729 20.7947 700.955 20.448 700.443 19.968C699.942 19.4773 699.691 18.8107 699.691 17.968C699.691 17.2853 699.873 16.688 700.235 16.176C700.598 15.664 701.099 15.2693 701.739 14.992C702.39 14.7147 703.147 14.576 704.011 14.576C704.811 14.576 705.547 14.6933 706.219 14.928C706.891 15.152 707.457 15.488 707.915 15.936L707.371 17.2C706.891 16.784 706.379 16.48 705.835 16.288C705.291 16.0853 704.673 15.984 703.979 15.984C703.158 15.984 702.513 16.1547 702.043 16.496C701.585 16.8373 701.355 17.3013 701.355 17.888C701.355 18.3573 701.499 18.7253 701.787 18.992C702.086 19.2587 702.577 19.4613 703.259 19.6L705.003 19.936C706.081 20.16 706.875 20.5067 707.387 20.976C707.899 21.4347 708.155 22.0693 708.155 22.88C708.155 23.5307 707.979 24.1013 707.627 24.592C707.286 25.0827 706.795 25.4667 706.155 25.744C705.515 26.0107 704.758 26.144 703.883 26.144ZM713.625 26.144C712.323 26.144 711.299 25.776 710.553 25.04C709.806 24.304 709.433 23.2853 709.433 21.984C709.433 21.1413 709.593 20.4053 709.913 19.776C710.243 19.1467 710.697 18.6613 711.273 18.32C711.859 17.968 712.537 17.792 713.305 17.792C714.062 17.792 714.697 17.952 715.209 18.272C715.721 18.592 716.11 19.0453 716.377 19.632C716.643 20.208 716.777 20.8907 716.777 21.68V22.192H710.697V21.264H715.673L715.401 21.472C715.401 20.672 715.219 20.0533 714.857 19.616C714.505 19.168 713.993 18.944 713.321 18.944C712.574 18.944 711.998 19.2053 711.593 19.728C711.187 20.24 710.985 20.9493 710.985 21.856V22.016C710.985 22.9653 711.214 23.68 711.673 24.16C712.142 24.64 712.803 24.88 713.657 24.88C714.126 24.88 714.563 24.816 714.969 24.688C715.385 24.5493 715.779 24.3253 716.153 24.016L716.681 25.12C716.307 25.4507 715.854 25.7067 715.321 25.888C714.787 26.0587 714.222 26.144 713.625 26.144ZM718.439 26V19.936C718.439 19.6053 718.428 19.2747 718.407 18.944C718.396 18.6027 718.375 18.2667 718.343 17.936H719.911L720.087 20.016H719.831C719.938 19.5147 720.119 19.0987 720.375 18.768C720.631 18.4373 720.94 18.192 721.303 18.032C721.676 17.872 722.066 17.792 722.471 17.792C722.642 17.792 722.786 17.8027 722.903 17.824C723.02 17.8347 723.138 17.856 723.255 17.888L723.239 19.328C723.058 19.2533 722.898 19.2107 722.759 19.2C722.631 19.1787 722.471 19.168 722.279 19.168C721.81 19.168 721.41 19.2747 721.079 19.488C720.748 19.6907 720.498 19.968 720.327 20.32C720.156 20.672 720.071 21.0507 720.071 21.456V26H718.439ZM727.195 26L723.739 17.936H725.467L728.187 24.672H727.723L730.491 17.936H732.139L728.667 26H727.195ZM733.26 26V17.936H734.876V26H733.26ZM733.132 16.256V14.576H735.004V16.256H733.132ZM740.621 26.144C739.81 26.144 739.101 25.9787 738.493 25.648C737.895 25.3067 737.431 24.8213 737.101 24.192C736.781 23.552 736.621 22.7947 736.621 21.92C736.621 21.056 736.786 20.3147 737.117 19.696C737.447 19.0773 737.911 18.608 738.509 18.288C739.106 17.9573 739.81 17.792 740.621 17.792C741.143 17.792 741.65 17.8827 742.141 18.064C742.631 18.2347 743.037 18.48 743.357 18.8L742.829 19.936C742.53 19.648 742.194 19.4347 741.821 19.296C741.447 19.1467 741.085 19.072 740.733 19.072C739.965 19.072 739.362 19.3173 738.925 19.808C738.487 20.2987 738.269 21.008 738.269 21.936C738.269 22.8747 738.487 23.5947 738.925 24.096C739.362 24.5973 739.965 24.848 740.733 24.848C741.074 24.848 741.431 24.784 741.805 24.656C742.178 24.5173 742.519 24.2987 742.829 24L743.357 25.136C743.026 25.456 742.61 25.7067 742.109 25.888C741.618 26.0587 741.122 26.144 740.621 26.144ZM748.481 26.144C747.179 26.144 746.155 25.776 745.409 25.04C744.662 24.304 744.289 23.2853 744.289 21.984C744.289 21.1413 744.449 20.4053 744.769 19.776C745.099 19.1467 745.553 18.6613 746.129 18.32C746.715 17.968 747.393 17.792 748.161 17.792C748.918 17.792 749.553 17.952 750.065 18.272C750.577 18.592 750.966 19.0453 751.233 19.632C751.499 20.208 751.633 20.8907 751.633 21.68V22.192H745.553V21.264H750.529L750.257 21.472C750.257 20.672 750.075 20.0533 749.713 19.616C749.361 19.168 748.849 18.944 748.177 18.944C747.43 18.944 746.854 19.2053 746.449 19.728C746.043 20.24 745.841 20.9493 745.841 21.856V22.016C745.841 22.9653 746.07 23.68 746.529 24.16C746.998 24.64 747.659 24.88 748.513 24.88C748.982 24.88 749.419 24.816 749.825 24.688C750.241 24.5493 750.635 24.3253 751.009 24.016L751.537 25.12C751.163 25.4507 750.71 25.7067 750.177 25.888C749.643 26.0587 749.078 26.144 748.481 26.144Z" fill="#301446"/>
<path d="M793.736 26V14.72H795.064V19.712H801.864V14.72H803.176V26H801.864V20.848H795.064V26H793.736ZM809.25 26.144C808.418 26.144 807.698 25.984 807.09 25.664C806.482 25.3333 806.013 24.8587 805.682 24.24C805.351 23.6107 805.186 22.864 805.186 22C805.186 21.1573 805.346 20.4267 805.666 19.808C805.986 19.1787 806.434 18.6933 807.01 18.352C807.586 18 808.247 17.824 808.994 17.824C809.73 17.824 810.349 17.9787 810.85 18.288C811.351 18.5973 811.735 19.04 812.002 19.616C812.269 20.1813 812.402 20.8533 812.402 21.632V22.112H806.178V21.296H811.554L811.282 21.504C811.282 20.6507 811.09 19.984 810.706 19.504C810.322 19.024 809.751 18.784 808.994 18.784C808.45 18.784 807.986 18.912 807.602 19.168C807.229 19.424 806.941 19.7813 806.738 20.24C806.546 20.6987 806.45 21.248 806.45 21.888V22.032C806.45 23.0347 806.695 23.7973 807.186 24.32C807.687 24.832 808.386 25.088 809.282 25.088C809.762 25.088 810.21 25.0187 810.626 24.88C811.053 24.7307 811.458 24.4907 811.842 24.16L812.29 25.072C811.938 25.4133 811.49 25.68 810.946 25.872C810.413 26.0533 809.847 26.144 809.25 26.144ZM814.225 26V14.224H815.521V26H814.225ZM817.878 29.456V19.824C817.878 19.5253 817.862 19.2213 817.83 18.912C817.808 18.592 817.782 18.2773 817.75 17.968H818.998L819.174 19.872H818.982C819.152 19.2427 819.499 18.7467 820.022 18.384C820.544 18.0107 821.168 17.824 821.894 17.824C822.619 17.824 823.243 17.9893 823.766 18.32C824.299 18.6507 824.715 19.1253 825.014 19.744C825.312 20.3627 825.462 21.1093 825.462 21.984C825.462 22.848 825.312 23.5893 825.014 24.208C824.726 24.8267 824.315 25.3067 823.782 25.648C823.248 25.9787 822.619 26.144 821.894 26.144C821.179 26.144 820.56 25.9627 820.038 25.6C819.515 25.2373 819.168 24.7413 818.998 24.112H819.174V29.456H817.878ZM821.638 25.088C822.406 25.088 823.014 24.8267 823.462 24.304C823.92 23.7707 824.15 22.9973 824.15 21.984C824.15 20.96 823.92 20.1867 823.462 19.664C823.014 19.1307 822.406 18.864 821.638 18.864C820.88 18.864 820.272 19.1307 819.814 19.664C819.366 20.1867 819.142 20.96 819.142 21.984C819.142 22.9973 819.366 23.7707 819.814 24.304C820.272 24.8267 820.88 25.088 821.638 25.088ZM826.8 26.88H825.68L829.872 14.032H830.992L826.8 26.88ZM831.874 26V14.72H838.914V15.808H833.202V19.76H838.562V20.848H833.202V26H831.874ZM838.656 26L843.632 14.72H844.784L849.84 26H848.464L847.056 22.784L847.648 23.12H840.752L841.392 22.784L840.016 26H838.656ZM844.192 16.24L841.6 22.32L841.216 22.032H847.168L846.88 22.32L844.224 16.24H844.192ZM859.002 29.056C858.693 28.8533 858.373 28.592 858.042 28.272C857.712 27.952 857.397 27.5947 857.098 27.2C856.81 26.8053 856.56 26.4107 856.346 26.016L857.514 25.584C857.792 26.1387 858.149 26.64 858.586 27.088C859.024 27.5467 859.466 27.9413 859.914 28.272L859.002 29.056ZM850.778 20.352C850.778 19.1573 850.981 18.1333 851.386 17.28C851.802 16.416 852.394 15.7493 853.162 15.28C853.941 14.8107 854.874 14.576 855.962 14.576C857.018 14.576 857.936 14.8107 858.714 15.28C859.493 15.7493 860.09 16.416 860.506 17.28C860.933 18.1333 861.146 19.152 861.146 20.336C861.146 21.5307 860.933 22.56 860.506 23.424C860.08 24.288 859.477 24.96 858.698 25.44C857.93 25.9093 857.018 26.144 855.962 26.144C854.874 26.144 853.946 25.9093 853.178 25.44C852.41 24.96 851.818 24.288 851.402 23.424C850.986 22.56 850.778 21.536 850.778 20.352ZM852.17 20.352C852.17 21.3227 852.314 22.1547 852.602 22.848C852.89 23.5307 853.317 24.0587 853.882 24.432C854.448 24.7947 855.141 24.976 855.962 24.976C857.157 24.976 858.085 24.5707 858.746 23.76C859.418 22.9387 859.754 21.8027 859.754 20.352C859.754 19.3707 859.605 18.5387 859.306 17.856C859.008 17.1733 858.576 16.6507 858.01 16.288C857.445 15.9253 856.762 15.744 855.962 15.744C854.714 15.744 853.77 16.1493 853.13 16.96C852.49 17.76 852.17 18.8907 852.17 20.352Z" fill="#301446"/>
<path d="M1140.04 14.245C1139.64 14.4226 1139.23 14.5628 1138.8 14.6643C1139.27 14.2174 1139.62 13.6585 1139.82 13.0346C1139.88 12.8565 1139.69 12.7025 1139.53 12.7978C1138.93 13.15 1138.29 13.4142 1137.63 13.5831C1137.59 13.5929 1137.55 13.5979 1137.51 13.5979C1137.39 13.5979 1137.27 13.5528 1137.18 13.4708C1136.47 12.8448 1135.56 12.5 1134.61 12.5C1134.2 12.5 1133.79 12.564 1133.38 12.6902C1132.12 13.0811 1131.15 14.121 1130.85 15.4039C1130.73 15.8851 1130.7 16.3668 1130.75 16.8354C1130.76 16.8893 1130.73 16.9269 1130.72 16.9445C1130.69 16.9754 1130.65 16.9931 1130.61 16.9931C1130.61 16.9931 1130.6 16.9929 1130.6 16.9925C1127.84 16.7361 1125.36 15.4067 1123.6 13.2492C1123.52 13.1392 1123.34 13.1527 1123.27 13.2753C1122.93 13.8662 1122.75 14.542 1122.75 15.2298C1122.75 16.2837 1123.17 17.2769 1123.9 18.001C1123.59 17.9277 1123.3 17.8122 1123.02 17.6577C1122.88 17.583 1122.72 17.6791 1122.72 17.8329C1122.7 19.3987 1123.61 20.7918 1124.98 21.4192C1124.96 21.4199 1124.93 21.4202 1124.9 21.4202C1124.68 21.4202 1124.46 21.3992 1124.25 21.3577C1124.1 21.3288 1123.97 21.4725 1124.02 21.6194C1124.46 23.0109 1125.66 24.0367 1127.09 24.2696C1125.9 25.0684 1124.52 25.4897 1123.08 25.4897L1122.63 25.4895C1122.49 25.4895 1122.37 25.5798 1122.34 25.714C1122.3 25.8461 1122.37 25.9855 1122.48 26.0543C1124.11 27.0001 1125.96 27.5 1127.84 27.5C1129.48 27.5 1131.02 27.1729 1132.41 26.528C1133.68 25.9367 1134.81 25.0914 1135.76 24.0157C1136.64 23.0136 1137.33 21.8568 1137.81 20.5775C1138.26 19.358 1138.5 18.0568 1138.5 16.8145V16.7553C1138.5 16.5559 1138.59 16.3682 1138.75 16.2404C1139.35 15.7555 1139.87 15.1846 1140.29 14.5437C1140.41 14.3745 1140.23 14.1624 1140.04 14.245Z" fill="#301446"/>
<path d="M1226.97 12.5H1214.69C1212.28 12.5 1210.33 14.4711 1210.33 16.9025V23.0975C1210.33 25.5289 1212.28 27.5 1214.69 27.5H1226.97C1229.38 27.5 1231.33 25.5289 1231.33 23.0975V16.9025C1231.33 14.4711 1229.38 12.5 1226.97 12.5ZM1224.02 20.3014L1218.27 23.066C1218.12 23.1396 1217.94 23.027 1217.94 22.8559V17.154C1217.94 16.9805 1218.13 16.868 1218.28 16.9464L1224.02 19.8838C1224.19 19.9711 1224.19 20.2183 1224.02 20.3014Z" fill="#301446"/>
<path d="M1270.23 10.5031C1270.56 10.5025 1270.92 10.5031 1271.33 10.5031C1274.59 10.5031 1274.97 10.5147 1276.26 10.5732C1277.45 10.6276 1278.09 10.8263 1278.52 10.9933C1279.09 11.2145 1279.5 11.4788 1279.92 11.9058C1280.35 12.3328 1280.62 12.7394 1280.84 13.3088C1281 13.7383 1281.2 14.3839 1281.26 15.5734C1281.32 16.8595 1281.33 17.2458 1281.33 20.5017C1281.33 23.7575 1281.32 24.1438 1281.26 25.4299C1281.2 26.6194 1281 27.265 1280.84 27.6945C1280.62 28.2639 1280.35 28.6693 1279.92 29.096C1279.5 29.523 1279.09 29.7873 1278.52 30.0084C1278.09 30.1762 1277.45 30.3744 1276.26 30.4288C1274.97 30.4873 1274.59 30.5 1271.33 30.5C1268.07 30.5 1267.69 30.4873 1266.4 30.4288C1265.21 30.3739 1264.56 30.1752 1264.13 30.0082C1263.56 29.7871 1263.16 29.5227 1262.73 29.0957C1262.3 28.6687 1262.04 28.2631 1261.82 27.6935C1261.65 27.264 1261.45 26.6184 1261.4 25.4289C1261.34 24.1428 1261.33 23.7565 1261.33 20.4986C1261.33 17.2407 1261.34 16.8564 1261.4 15.5703C1261.45 14.3808 1261.65 13.7353 1261.82 13.3052C1262.04 12.7359 1262.3 12.3292 1262.73 11.9022C1263.16 11.4752 1263.56 11.2109 1264.13 10.9893C1264.56 10.8215 1265.21 10.6233 1266.4 10.5686C1267.52 10.5178 1267.96 10.5025 1270.23 10.5V10.5031Z" fill="#301446" stroke="white" stroke-width="2"/>
<path d="M1276.83 14.0005H1276.86C1277.4 14.0177 1277.83 14.4589 1277.83 15C1277.83 15.552 1277.38 16 1276.83 16C1276.28 16 1275.83 15.552 1275.83 15C1275.83 14.448 1276.28 14.0005 1276.83 14.0005Z" fill="#301446" stroke="white"/>
<path d="M1271.53 16.5C1273.85 16.5 1275.73 18.3803 1275.73 20.7C1275.73 23.0194 1273.85 24.9 1271.53 24.9C1269.21 24.9 1267.33 23.0194 1267.33 20.7C1267.33 18.3803 1269.21 16.5 1271.53 16.5Z" fill="#301446" stroke="white"/>
<path d="M1179.93 19.9798H1176.96V30.5H1172.47V19.9798H1170.33V16.2825H1172.47V13.89C1172.47 12.1791 1173.3 9.5 1177 9.5L1180.33 9.51348V13.1023H1177.91C1177.52 13.1023 1176.96 13.2939 1176.96 14.1101V16.286H1180.32L1179.93 19.9798Z" fill="#301446"/>
</svg>
