<svg width="254" height="698" viewBox="0 0 254 698" fill="none" xmlns="http://www.w3.org/2000/svg">
<rect x="11.1611" y="40.3518" width="242.111" height="118.48" rx="3.43419" fill="white"/>
<path d="M36.1621 76.0984V64.9373L37.1408 65.9503H33.6208V64.0787H38.3943V76.0984H36.1621ZM43.2341 76.2186C42.4671 76.2186 41.7288 76.1213 41.019 75.9267C40.3208 75.7206 39.7656 75.4745 39.3535 75.1883L40.1777 73.5571C40.5898 73.8204 41.082 74.0379 41.6544 74.2096C42.2267 74.3813 42.7991 74.4671 43.3715 74.4671C44.0469 74.4671 44.5334 74.3756 44.831 74.1924C45.1401 74.0093 45.2946 73.7631 45.2946 73.4541C45.2946 73.2022 45.1916 73.0133 44.9855 72.8874C44.7795 72.75 44.5105 72.647 44.1785 72.5783C43.8465 72.5097 43.4745 72.4467 43.0624 72.3895C42.6617 72.3322 42.2554 72.2578 41.8432 72.1662C41.4426 72.0632 41.0763 71.9201 40.7443 71.737C40.4123 71.5424 40.1433 71.2848 39.9373 70.9643C39.7312 70.6437 39.6282 70.2202 39.6282 69.6936C39.6282 69.1098 39.7942 68.6061 40.1261 68.1826C40.4581 67.7476 40.9217 67.4156 41.517 67.1867C42.1237 66.9463 42.8392 66.8261 43.6634 66.8261C44.2815 66.8261 44.9054 66.8947 45.535 67.0321C46.1646 67.1695 46.6855 67.3641 47.0976 67.6159L46.2734 69.2472C45.8384 68.9839 45.3976 68.8064 44.9512 68.7149C44.5162 68.6118 44.0812 68.5603 43.6462 68.5603C42.9937 68.5603 42.5072 68.6576 42.1867 68.8522C41.8776 69.0468 41.7231 69.293 41.7231 69.5906C41.7231 69.8653 41.8261 70.0714 42.0321 70.2087C42.2382 70.3461 42.5072 70.4549 42.8392 70.535C43.1711 70.6151 43.5374 70.6838 43.9381 70.741C44.3502 70.7868 44.7566 70.8612 45.1572 70.9643C45.5579 71.0673 45.9242 71.2104 46.2562 71.3935C46.5996 71.5653 46.8743 71.8114 47.0804 72.1319C47.2864 72.4524 47.3895 72.8702 47.3895 73.3854C47.3895 73.9577 47.2178 74.4557 46.8743 74.8792C46.5424 75.3028 46.0673 75.6348 45.4492 75.8752C44.831 76.1041 44.0926 76.2186 43.2341 76.2186ZM51.659 76.2186C50.6516 76.2186 49.8732 75.961 49.3238 75.4459C48.7743 74.9193 48.4995 74.1466 48.4995 73.1278V64.9029H50.6459V73.0763C50.6459 73.5113 50.7547 73.849 50.9722 74.0894C51.2011 74.3298 51.5159 74.45 51.9166 74.45C52.3974 74.45 52.798 74.3241 53.1185 74.0722L53.7195 75.6004C53.4677 75.8065 53.1586 75.961 52.7923 76.064C52.426 76.1671 52.0482 76.2186 51.659 76.2186ZM46.9885 68.7149V66.9978H53.1014V68.7149H46.9885ZM58.3762 76.0984V64.0787H63.3214C64.386 64.0787 65.2961 64.2504 66.0516 64.5938C66.8186 64.9373 67.4081 65.4295 67.8202 66.0705C68.2323 66.7116 68.4384 67.4728 68.4384 68.3543C68.4384 69.2357 68.2323 69.997 67.8202 70.638C67.4081 71.2791 66.8186 71.7713 66.0516 72.1147C65.2961 72.4581 64.386 72.6299 63.3214 72.6299H59.6125L60.6084 71.5824V76.0984H58.3762ZM60.6084 71.8228L59.6125 70.741H63.2184C64.2029 70.741 64.9412 70.535 65.4335 70.1229C65.9372 69.6993 66.189 69.1098 66.189 68.3543C66.189 67.5873 65.9372 66.9978 65.4335 66.5857C64.9412 66.1736 64.2029 65.9675 63.2184 65.9675H59.6125L60.6084 64.8686V71.8228ZM69.5989 76.0984V63.3575H71.7453V76.0984H69.5989ZM79.1814 76.0984V74.2439L79.0612 73.849V70.6037C79.0612 69.9741 78.8723 69.4876 78.4945 69.1441C78.1168 68.7893 77.5444 68.6118 76.7775 68.6118C76.2623 68.6118 75.7529 68.692 75.2492 68.8522C74.757 69.0125 74.3392 69.2357 73.9958 69.5219L73.1544 67.9593C73.6466 67.5816 74.2304 67.3011 74.9058 67.118C75.5927 66.9234 76.3024 66.8261 77.035 66.8261C78.3629 66.8261 79.3874 67.1466 80.1086 67.7876C80.8412 68.4172 81.2076 69.396 81.2076 70.7239V76.0984H79.1814ZM76.2967 76.2186C75.6098 76.2186 75.0088 76.1041 74.4937 75.8752C73.9786 75.6348 73.5779 75.3085 73.2917 74.8964C73.017 74.4729 72.8796 73.9978 72.8796 73.4712C72.8796 72.9561 72.9998 72.4925 73.2402 72.0804C73.4921 71.6683 73.8985 71.342 74.4594 71.1016C75.0203 70.8612 75.7644 70.741 76.6916 70.741H79.3531V72.1662H76.8461C76.1135 72.1662 75.6213 72.2864 75.3694 72.5268C75.1176 72.7558 74.9917 73.042 74.9917 73.3854C74.9917 73.7746 75.1462 74.0837 75.4553 74.3126C75.7644 74.5416 76.1936 74.656 76.7431 74.656C77.2697 74.656 77.739 74.5358 78.1511 74.2954C78.5747 74.055 78.878 73.7002 79.0612 73.2308L79.4218 74.5187C79.2157 75.0567 78.8437 75.4745 78.3057 75.7721C77.7791 76.0698 77.1094 76.2186 76.2967 76.2186ZM87.1556 76.2186C86.194 76.2186 85.3354 76.0183 84.5799 75.6176C83.8358 75.2055 83.252 74.6446 82.8285 73.9348C82.4049 73.2251 82.1932 72.4181 82.1932 71.5137C82.1932 70.598 82.4049 69.7909 82.8285 69.0926C83.252 68.3829 83.8358 67.8277 84.5799 67.427C85.3354 67.0264 86.194 66.8261 87.1556 66.8261C88.0485 66.8261 88.8326 67.0092 89.508 67.3755C90.1948 67.7304 90.7157 68.257 91.0705 68.9553L89.4221 69.9168C89.1474 69.4818 88.8097 69.1613 88.409 68.9553C88.0198 68.7492 87.5963 68.6462 87.1384 68.6462C86.6118 68.6462 86.1367 68.7607 85.7132 68.9896C85.2896 69.2186 84.9577 69.5505 84.7173 69.9855C84.4769 70.4091 84.3567 70.9185 84.3567 71.5137C84.3567 72.109 84.4769 72.6241 84.7173 73.0591C84.9577 73.4827 85.2896 73.8089 85.7132 74.0379C86.1367 74.2668 86.6118 74.3813 87.1384 74.3813C87.5963 74.3813 88.0198 74.2783 88.409 74.0722C88.8097 73.8662 89.1474 73.5456 89.4221 73.1106L91.0705 74.0722C90.7157 74.7591 90.1948 75.2914 89.508 75.6691C88.8326 76.0354 88.0485 76.2186 87.1556 76.2186ZM96.0715 76.2186C95.0526 76.2186 94.1598 76.0183 93.3928 75.6176C92.6373 75.2055 92.0477 74.6446 91.6242 73.9348C91.2121 73.2251 91.006 72.4181 91.006 71.5137C91.006 70.598 91.2063 69.7909 91.607 69.0926C92.0191 68.3829 92.58 67.8277 93.2898 67.427C94.0109 67.0264 94.8294 66.8261 95.7452 66.8261C96.6381 66.8261 97.4337 67.0207 98.132 67.4099C98.8303 67.7991 99.3797 68.3486 99.7804 69.0583C100.181 69.768 100.381 70.6037 100.381 71.5653C100.381 71.6568 100.376 71.7599 100.364 71.8743C100.364 71.9888 100.358 72.0976 100.347 72.2006H92.7059V70.7754H99.2137L98.3724 71.2218C98.3838 70.6953 98.2751 70.2316 98.0461 69.831C97.8172 69.4303 97.5024 69.1155 97.1017 68.8866C96.7125 68.6576 96.2603 68.5432 95.7452 68.5432C95.2186 68.5432 94.755 68.6576 94.3544 68.8866C93.9651 69.1155 93.6561 69.4361 93.4271 69.8482C93.2096 70.2488 93.1009 70.7239 93.1009 71.2733V71.6168C93.1009 72.1662 93.2268 72.6527 93.4786 73.0763C93.7305 73.4998 94.0853 73.8261 94.5432 74.055C95.0011 74.284 95.5277 74.3985 96.123 74.3985C96.6381 74.3985 97.1017 74.3183 97.5138 74.1581C97.9259 73.9978 98.2922 73.746 98.6128 73.4025L99.7632 74.7247C99.3511 75.2055 98.8303 75.5775 98.2007 75.8408C97.5825 76.0927 96.8728 76.2186 96.0715 76.2186Z" fill="#68BC98"/>
<path d="M37.1923 133.177V113.946H40.132L52.1654 128.754H50.7093V113.946H54.2534V133.177H51.3137L39.2528 118.369H40.7364V133.177H37.1923ZM34.3076 126.419V124.496H38.566V126.419H34.3076ZM34.3076 122.627V120.704H38.566V122.627H34.3076ZM53.0171 126.419V124.496H57.1381V126.419H53.0171ZM53.0171 122.627V120.704H57.1381V122.627H53.0171ZM66.5339 133.177V115.319L68.0999 116.94H62.4678V113.946H70.1054V133.177H66.5339ZM72.4093 137.326L74.0028 131.254L74.4699 133.287C73.8288 133.287 73.2885 133.095 72.8489 132.71C72.4277 132.307 72.217 131.767 72.217 131.089C72.217 130.393 72.4277 129.844 72.8489 129.441C73.2885 129.02 73.8197 128.809 74.4424 128.809C75.0834 128.809 75.6146 129.02 76.0359 129.441C76.4571 129.862 76.6677 130.412 76.6677 131.089C76.6677 131.272 76.6494 131.474 76.6128 131.694C76.5762 131.895 76.5121 132.133 76.4205 132.408C76.3472 132.683 76.219 133.031 76.0359 133.452L74.6347 137.326H72.4093ZM85.0313 133.452C83.5111 133.452 82.1374 133.067 80.9103 132.298C79.7014 131.529 78.749 130.412 78.053 128.946C77.357 127.463 77.009 125.668 77.009 123.562C77.009 121.455 77.357 119.669 78.053 118.204C78.749 116.721 79.7014 115.594 80.9103 114.825C82.1374 114.056 83.5111 113.671 85.0313 113.671C86.5698 113.671 87.9435 114.056 89.1523 114.825C90.3612 115.594 91.3136 116.721 92.0096 118.204C92.7239 119.669 93.0811 121.455 93.0811 123.562C93.0811 125.668 92.7239 127.463 92.0096 128.946C91.3136 130.412 90.3612 131.529 89.1523 132.298C87.9435 133.067 86.5698 133.452 85.0313 133.452ZM85.0313 130.347C85.9288 130.347 86.7072 130.109 87.3666 129.633C88.0259 129.139 88.5388 128.388 88.9051 127.38C89.2897 126.373 89.482 125.1 89.482 123.562C89.482 122.005 89.2897 120.732 88.9051 119.743C88.5388 118.735 88.0259 117.994 87.3666 117.517C86.7072 117.023 85.9288 116.776 85.0313 116.776C84.1705 116.776 83.4012 117.023 82.7235 117.517C82.0642 117.994 81.5422 118.735 81.1575 119.743C80.7912 120.732 80.6081 122.005 80.6081 123.562C80.6081 125.1 80.7912 126.373 81.1575 127.38C81.5422 128.388 82.0642 129.139 82.7235 129.633C83.4012 130.109 84.1705 130.347 85.0313 130.347ZM101.869 133.452C100.348 133.452 98.9746 133.067 97.7475 132.298C96.5386 131.529 95.5862 130.412 94.8902 128.946C94.1942 127.463 93.8462 125.668 93.8462 123.562C93.8462 121.455 94.1942 119.669 94.8902 118.204C95.5862 116.721 96.5386 115.594 97.7475 114.825C98.9746 114.056 100.348 113.671 101.869 113.671C103.407 113.671 104.781 114.056 105.99 114.825C107.198 115.594 108.151 116.721 108.847 118.204C109.561 119.669 109.918 121.455 109.918 123.562C109.918 125.668 109.561 127.463 108.847 128.946C108.151 130.412 107.198 131.529 105.99 132.298C104.781 133.067 103.407 133.452 101.869 133.452ZM101.869 130.347C102.766 130.347 103.544 130.109 104.204 129.633C104.863 129.139 105.376 128.388 105.742 127.38C106.127 126.373 106.319 125.1 106.319 123.562C106.319 122.005 106.127 120.732 105.742 119.743C105.376 118.735 104.863 117.994 104.204 117.517C103.544 117.023 102.766 116.776 101.869 116.776C101.008 116.776 100.238 117.023 99.5607 117.517C98.9014 117.994 98.3794 118.735 97.9947 119.743C97.6284 120.732 97.4453 122.005 97.4453 123.562C97.4453 125.1 97.6284 126.373 97.9947 127.38C98.3794 128.388 98.9014 129.139 99.5607 129.633C100.238 130.109 101.008 130.347 101.869 130.347ZM118.706 133.452C117.186 133.452 115.812 133.067 114.585 132.298C113.376 131.529 112.423 130.412 111.727 128.946C111.031 127.463 110.683 125.668 110.683 123.562C110.683 121.455 111.031 119.669 111.727 118.204C112.423 116.721 113.376 115.594 114.585 114.825C115.812 114.056 117.186 113.671 118.706 113.671C120.244 113.671 121.618 114.056 122.827 114.825C124.036 115.594 124.988 116.721 125.684 118.204C126.398 119.669 126.755 121.455 126.755 123.562C126.755 125.668 126.398 127.463 125.684 128.946C124.988 130.412 124.036 131.529 122.827 132.298C121.618 133.067 120.244 133.452 118.706 133.452ZM118.706 130.347C119.603 130.347 120.382 130.109 121.041 129.633C121.7 129.139 122.213 128.388 122.579 127.38C122.964 126.373 123.156 125.1 123.156 123.562C123.156 122.005 122.964 120.732 122.579 119.743C122.213 118.735 121.7 117.994 121.041 117.517C120.382 117.023 119.603 116.776 118.706 116.776C117.845 116.776 117.076 117.023 116.398 117.517C115.739 117.994 115.217 118.735 114.832 119.743C114.466 120.732 114.282 122.005 114.282 123.562C114.282 125.1 114.466 126.373 114.832 127.38C115.217 128.388 115.739 129.139 116.398 129.633C117.076 130.109 117.845 130.347 118.706 130.347ZM127.336 137.326L128.93 131.254L129.397 133.287C128.756 133.287 128.215 133.095 127.776 132.71C127.354 132.307 127.144 131.767 127.144 131.089C127.144 130.393 127.354 129.844 127.776 129.441C128.215 129.02 128.746 128.809 129.369 128.809C130.01 128.809 130.541 129.02 130.963 129.441C131.384 129.862 131.594 130.412 131.594 131.089C131.594 131.272 131.576 131.474 131.54 131.694C131.503 131.895 131.439 132.133 131.347 132.408C131.274 132.683 131.146 133.031 130.963 133.452L129.561 137.326H127.336ZM139.958 133.452C138.438 133.452 137.064 133.067 135.837 132.298C134.628 131.529 133.676 130.412 132.98 128.946C132.284 127.463 131.936 125.668 131.936 123.562C131.936 121.455 132.284 119.669 132.98 118.204C133.676 116.721 134.628 115.594 135.837 114.825C137.064 114.056 138.438 113.671 139.958 113.671C141.497 113.671 142.87 114.056 144.079 114.825C145.288 115.594 146.24 116.721 146.936 118.204C147.651 119.669 148.008 121.455 148.008 123.562C148.008 125.668 147.651 127.463 146.936 128.946C146.24 130.412 145.288 131.529 144.079 132.298C142.87 133.067 141.497 133.452 139.958 133.452ZM139.958 130.347C140.855 130.347 141.634 130.109 142.293 129.633C142.953 129.139 143.465 128.388 143.832 127.38C144.216 126.373 144.409 125.1 144.409 123.562C144.409 122.005 144.216 120.732 143.832 119.743C143.465 118.735 142.953 117.994 142.293 117.517C141.634 117.023 140.855 116.776 139.958 116.776C139.097 116.776 138.328 117.023 137.65 117.517C136.991 117.994 136.469 118.735 136.084 119.743C135.718 120.732 135.535 122.005 135.535 123.562C135.535 125.1 135.718 126.373 136.084 127.38C136.469 128.388 136.991 129.139 137.65 129.633C138.328 130.109 139.097 130.347 139.958 130.347ZM156.795 133.452C155.275 133.452 153.901 133.067 152.674 132.298C151.465 131.529 150.513 130.412 149.817 128.946C149.121 127.463 148.773 125.668 148.773 123.562C148.773 121.455 149.121 119.669 149.817 118.204C150.513 116.721 151.465 115.594 152.674 114.825C153.901 114.056 155.275 113.671 156.795 113.671C158.334 113.671 159.707 114.056 160.916 114.825C162.125 115.594 163.078 116.721 163.774 118.204C164.488 119.669 164.845 121.455 164.845 123.562C164.845 125.668 164.488 127.463 163.774 128.946C163.078 130.412 162.125 131.529 160.916 132.298C159.707 133.067 158.334 133.452 156.795 133.452ZM156.795 130.347C157.693 130.347 158.471 130.109 159.13 129.633C159.79 129.139 160.303 128.388 160.669 127.38C161.054 126.373 161.246 125.1 161.246 123.562C161.246 122.005 161.054 120.732 160.669 119.743C160.303 118.735 159.79 117.994 159.13 117.517C158.471 117.023 157.693 116.776 156.795 116.776C155.934 116.776 155.165 117.023 154.487 117.517C153.828 117.994 153.306 118.735 152.921 119.743C152.555 120.732 152.372 122.005 152.372 123.562C152.372 125.1 152.555 126.373 152.921 127.38C153.306 128.388 153.828 129.139 154.487 129.633C155.165 130.109 155.934 130.347 156.795 130.347ZM173.632 133.452C172.112 133.452 170.739 133.067 169.511 132.298C168.303 131.529 167.35 130.412 166.654 128.946C165.958 127.463 165.61 125.668 165.61 123.562C165.61 121.455 165.958 119.669 166.654 118.204C167.35 116.721 168.303 115.594 169.511 114.825C170.739 114.056 172.112 113.671 173.632 113.671C175.171 113.671 176.545 114.056 177.753 114.825C178.962 115.594 179.915 116.721 180.611 118.204C181.325 119.669 181.682 121.455 181.682 123.562C181.682 125.668 181.325 127.463 180.611 128.946C179.915 130.412 178.962 131.529 177.753 132.298C176.545 133.067 175.171 133.452 173.632 133.452ZM173.632 130.347C174.53 130.347 175.308 130.109 175.968 129.633C176.627 129.139 177.14 128.388 177.506 127.38C177.891 126.373 178.083 125.1 178.083 123.562C178.083 122.005 177.891 120.732 177.506 119.743C177.14 118.735 176.627 117.994 175.968 117.517C175.308 117.023 174.53 116.776 173.632 116.776C172.772 116.776 172.002 117.023 171.325 117.517C170.665 117.994 170.143 118.735 169.759 119.743C169.392 120.732 169.209 122.005 169.209 123.562C169.209 125.1 169.392 126.373 169.759 127.38C170.143 128.388 170.665 129.139 171.325 129.633C172.002 130.109 172.772 130.347 173.632 130.347Z" fill="#301446"/>
<path d="M188.617 1.54032C189.172 0.77925 190.307 0.779249 190.861 1.54032L201.028 15.499C201.335 15.9199 201.851 16.1338 202.366 16.053L219.425 13.3719C220.355 13.2257 221.158 14.0284 221.012 14.9586L218.331 32.0181C218.25 32.5325 218.464 33.0489 218.885 33.3555L232.843 43.5226C233.605 44.0769 233.605 45.2121 232.843 45.7665L218.885 55.9336C218.464 56.2401 218.25 56.7565 218.331 57.271L221.012 74.3305C221.158 75.2606 220.355 76.0633 219.425 75.9171L202.366 73.2361C201.851 73.1552 201.335 73.3691 201.028 73.7901L190.861 87.7487C190.307 88.5098 189.172 88.5098 188.617 87.7487L178.45 73.7901C178.144 73.3691 177.627 73.1552 177.113 73.2361L160.053 75.9171C159.123 76.0633 158.32 75.2606 158.467 74.3305L161.148 57.271C161.229 56.7565 161.015 56.2401 160.594 55.9336L146.635 45.7665C145.874 45.2121 145.874 44.0769 146.635 43.5226L160.594 33.3555C161.015 33.0489 161.229 32.5325 161.148 32.0181L158.467 14.9586C158.32 14.0284 159.123 13.2257 160.053 13.3719L177.113 16.053C177.627 16.1338 178.144 15.9199 178.45 15.499L188.617 1.54032Z" fill="white"/>
<path d="M170.627 53.8936C171.066 53.053 172.103 52.7274 172.944 53.1664L188.165 61.1148C189.005 61.5537 189.331 62.5911 188.892 63.4317L177.355 85.5234C176.639 86.8944 174.618 86.6941 174.185 85.2092L171.716 76.7419C171.442 75.8051 170.445 75.284 169.52 75.5951L161.16 78.4076C159.694 78.9008 158.375 77.3564 159.091 75.9853L170.627 53.8936Z" fill="#7B7FDA"/>
<path d="M208.799 53.8936C208.36 53.053 207.322 52.7274 206.482 53.1664L191.261 61.1148C190.421 61.5537 190.095 62.5911 190.534 63.4317L202.071 85.5234C202.787 86.8944 204.808 86.6941 205.241 85.2092L207.71 76.7419C207.983 75.8051 208.981 75.284 209.906 75.5951L218.266 78.4076C219.732 78.9008 221.051 77.3564 220.335 75.9853L208.799 53.8936Z" fill="#7B7FDA"/>
<g filter="url(#filter0_d_553_2890)">
<path d="M189.74 21.4636L196.087 30.1784L206.738 28.5046L205.064 39.1554L213.779 45.503L205.064 51.8506L206.738 62.5014L196.087 60.8275L189.74 69.5423L183.392 60.8275L172.741 62.5014L174.415 51.8506L165.7 45.503L174.415 39.1554L172.741 28.5046L183.392 30.1784L189.74 21.4636Z" fill="#68BC98"/>
<path d="M191.821 19.9472L189.74 17.0889L187.658 19.9472L182.237 27.3896L173.141 25.9602L169.648 25.4112L170.197 28.9045L171.626 38.0002L164.184 43.4211L161.325 45.503L164.184 47.5849L171.626 53.0058L170.197 62.1015L169.648 65.5948L173.141 65.0458L182.237 63.6163L187.658 71.0588L189.74 73.9171L191.821 71.0588L197.242 63.6163L206.338 65.0458L209.831 65.5948L209.282 62.1015L207.853 53.0058L215.295 47.5849L218.154 45.503L215.295 43.4211L207.853 38.0002L209.282 28.9045L209.831 25.4112L206.338 25.9602L197.242 27.3896L191.821 19.9472Z" stroke="url(#paint0_linear_553_2890)" stroke-width="5.15129"/>
</g>
<path d="M186.408 40.0394V42.6666H188.64V52.0591H192.04V40.0394H186.408Z" fill="white"/>
<rect x="11.1611" y="219.788" width="242.111" height="118.48" rx="3.43419" fill="white"/>
<path d="M34.0844 255.535V254.041L38.8579 249.508C39.2586 249.13 39.5562 248.798 39.7508 248.512C39.9454 248.226 40.0713 247.963 40.1286 247.722C40.1972 247.471 40.2316 247.236 40.2316 247.018C40.2316 246.469 40.0427 246.045 39.6649 245.748C39.2872 245.439 38.732 245.284 37.9994 245.284C37.4156 245.284 36.8833 245.387 36.4025 245.593C35.9331 245.799 35.5267 246.114 35.1833 246.538L33.6208 245.336C34.0901 244.706 34.7197 244.219 35.5096 243.876C36.3109 243.521 37.2038 243.344 38.1882 243.344C39.0582 243.344 39.8138 243.487 40.4548 243.773C41.1073 244.048 41.6053 244.443 41.9487 244.958C42.3036 245.473 42.481 246.085 42.481 246.795C42.481 247.184 42.4295 247.574 42.3264 247.963C42.2234 248.341 42.0288 248.741 41.7426 249.165C41.4565 249.588 41.0386 250.063 40.4892 250.59L36.3853 254.488L35.9217 253.646H42.9446V255.535H34.0844ZM49.058 246.263C49.7906 246.263 50.4431 246.406 51.0155 246.692C51.5993 246.978 52.0572 247.419 52.3892 248.014C52.7211 248.598 52.8871 249.354 52.8871 250.281V255.535H50.7408V250.556C50.7408 249.743 50.5462 249.136 50.1569 248.735C49.7792 248.335 49.2469 248.134 48.56 248.134C48.0564 248.134 47.6099 248.237 47.2207 248.444C46.8315 248.65 46.5281 248.959 46.3107 249.371C46.1046 249.771 46.0016 250.281 46.0016 250.899V255.535H43.8552V246.366H45.8985V248.838L45.538 248.083C45.8585 247.499 46.3221 247.053 46.9288 246.744C47.547 246.423 48.2567 246.263 49.058 246.263ZM58.4771 255.655C57.5956 255.655 56.8001 255.461 56.0903 255.072C55.392 254.671 54.8426 254.121 54.4419 253.423C54.0413 252.725 53.8409 251.901 53.8409 250.951C53.8409 250 54.0413 249.176 54.4419 248.478C54.8426 247.78 55.392 247.236 56.0903 246.847C56.8001 246.457 57.5956 246.263 58.4771 246.263C59.2441 246.263 59.9309 246.435 60.5376 246.778C61.1443 247.11 61.6251 247.619 61.98 248.306C62.3348 248.993 62.5123 249.874 62.5123 250.951C62.5123 252.015 62.3406 252.897 61.9971 253.595C61.6537 254.282 61.1787 254.797 60.5719 255.14C59.9652 255.484 59.267 255.655 58.4771 255.655ZM58.7347 253.818C59.2498 253.818 59.7077 253.704 60.1083 253.475C60.5204 253.246 60.8467 252.914 61.0871 252.479C61.3389 252.044 61.4648 251.534 61.4648 250.951C61.4648 250.355 61.3389 249.846 61.0871 249.422C60.8467 248.987 60.5204 248.655 60.1083 248.426C59.7077 248.197 59.2498 248.083 58.7347 248.083C58.2195 248.083 57.7559 248.197 57.3438 248.426C56.9431 248.655 56.6169 248.987 56.3651 249.422C56.1247 249.846 56.0045 250.355 56.0045 250.951C56.0045 251.534 56.1247 252.044 56.3651 252.479C56.6169 252.914 56.9431 253.246 57.3438 253.475C57.7559 253.704 58.2195 253.818 58.7347 253.818ZM61.5164 255.535V253.372L61.6022 250.933L61.4305 248.495V242.794H63.5597V255.535H61.5164ZM69.2757 255.535V243.515H74.221C75.2856 243.515 76.1957 243.687 76.9512 244.031C77.7181 244.374 78.3077 244.866 78.7198 245.507C79.1319 246.148 79.3379 246.91 79.3379 247.791C79.3379 248.672 79.1319 249.434 78.7198 250.075C78.3077 250.716 77.7181 251.208 76.9512 251.551C76.1957 251.895 75.2856 252.067 74.221 252.067H70.5121L71.508 251.019V255.535H69.2757ZM71.508 251.26L70.5121 250.178H74.118C75.1024 250.178 75.8408 249.972 76.333 249.56C76.8367 249.136 77.0885 248.547 77.0885 247.791C77.0885 247.024 76.8367 246.435 76.333 246.022C75.8408 245.61 75.1024 245.404 74.118 245.404H70.5121L71.508 244.305V251.26ZM80.4985 255.535V242.794H82.6448V255.535H80.4985ZM90.0809 255.535V253.681L89.9607 253.286V250.04C89.9607 249.411 89.7719 248.924 89.3941 248.581C89.0163 248.226 88.444 248.049 87.677 248.049C87.1619 248.049 86.6525 248.129 86.1488 248.289C85.6565 248.449 85.2387 248.672 84.8953 248.959L84.0539 247.396C84.5462 247.018 85.13 246.738 85.8054 246.555C86.4922 246.36 87.2019 246.263 87.9346 246.263C89.2624 246.263 90.287 246.583 91.0082 247.224C91.7408 247.854 92.1071 248.833 92.1071 250.161V255.535H90.0809ZM87.1962 255.655C86.5094 255.655 85.9084 255.541 85.3933 255.312C84.8781 255.072 84.4775 254.745 84.1913 254.333C83.9166 253.91 83.7792 253.435 83.7792 252.908C83.7792 252.393 83.8994 251.929 84.1398 251.517C84.3916 251.105 84.798 250.779 85.3589 250.538C85.9198 250.298 86.6639 250.178 87.5911 250.178H90.2526V251.603H87.7457C87.0131 251.603 86.5208 251.723 86.269 251.964C86.0171 252.193 85.8912 252.479 85.8912 252.822C85.8912 253.211 86.0458 253.52 86.3548 253.749C86.6639 253.978 87.0932 254.093 87.6427 254.093C88.1692 254.093 88.6386 253.973 89.0507 253.732C89.4742 253.492 89.7776 253.137 89.9607 252.668L90.3213 253.955C90.1153 254.493 89.7432 254.911 89.2052 255.209C88.6786 255.507 88.009 255.655 87.1962 255.655ZM98.0551 255.655C97.0935 255.655 96.235 255.455 95.4795 255.054C94.7354 254.642 94.1516 254.081 93.728 253.372C93.3045 252.662 93.0927 251.855 93.0927 250.951C93.0927 250.035 93.3045 249.228 93.728 248.529C94.1516 247.82 94.7354 247.264 95.4795 246.864C96.235 246.463 97.0935 246.263 98.0551 246.263C98.948 246.263 99.7321 246.446 100.408 246.812C101.094 247.167 101.615 247.694 101.97 248.392L100.322 249.354C100.047 248.919 99.7092 248.598 99.3086 248.392C98.9194 248.186 98.4958 248.083 98.0379 248.083C97.5114 248.083 97.0363 248.197 96.6127 248.426C96.1892 248.655 95.8572 248.987 95.6168 249.422C95.3764 249.846 95.2562 250.355 95.2562 250.951C95.2562 251.546 95.3764 252.061 95.6168 252.496C95.8572 252.919 96.1892 253.246 96.6127 253.475C97.0363 253.704 97.5114 253.818 98.0379 253.818C98.4958 253.818 98.9194 253.715 99.3086 253.509C99.7092 253.303 100.047 252.982 100.322 252.547L101.97 253.509C101.615 254.196 101.094 254.728 100.408 255.106C99.7321 255.472 98.948 255.655 98.0551 255.655ZM106.971 255.655C105.952 255.655 105.059 255.455 104.292 255.054C103.537 254.642 102.947 254.081 102.524 253.372C102.112 252.662 101.906 251.855 101.906 250.951C101.906 250.035 102.106 249.228 102.507 248.529C102.919 247.82 103.48 247.264 104.189 246.864C104.91 246.463 105.729 246.263 106.645 246.263C107.538 246.263 108.333 246.457 109.032 246.847C109.73 247.236 110.279 247.785 110.68 248.495C111.081 249.205 111.281 250.04 111.281 251.002C111.281 251.094 111.275 251.197 111.264 251.311C111.264 251.426 111.258 251.534 111.247 251.637H103.605V250.212H110.113L109.272 250.659C109.283 250.132 109.175 249.668 108.946 249.268C108.717 248.867 108.402 248.552 108.001 248.323C107.612 248.094 107.16 247.98 106.645 247.98C106.118 247.98 105.655 248.094 105.254 248.323C104.865 248.552 104.556 248.873 104.327 249.285C104.109 249.686 104 250.161 104 250.71V251.054C104 251.603 104.126 252.09 104.378 252.513C104.63 252.937 104.985 253.263 105.443 253.492C105.901 253.721 106.427 253.835 107.023 253.835C107.538 253.835 108.001 253.755 108.413 253.595C108.825 253.435 109.192 253.183 109.512 252.839L110.663 254.161C110.251 254.642 109.73 255.014 109.1 255.278C108.482 255.529 107.772 255.655 106.971 255.655Z" fill="#7B7FDA"/>
<path d="M37.1923 312.614V293.382H40.132L52.1654 308.191H50.7093V293.382H54.2534V312.614H51.3137L39.2528 297.806H40.7364V312.614H37.1923ZM34.3076 305.855V303.932H38.566V305.855H34.3076ZM34.3076 302.064V300.141H38.566V302.064H34.3076ZM53.0171 305.855V303.932H57.1381V305.855H53.0171ZM53.0171 302.064V300.141H57.1381V302.064H53.0171ZM63.2096 312.614V310.224L70.8472 302.971C71.4883 302.366 71.9645 301.835 72.2758 301.377C72.5872 300.919 72.7887 300.498 72.8803 300.113C72.9902 299.71 73.0451 299.335 73.0451 298.987C73.0451 298.108 72.7429 297.43 72.1385 296.954C71.5341 296.459 70.6457 296.212 69.4735 296.212C68.5394 296.212 67.6878 296.377 66.9185 296.707C66.1676 297.036 65.5173 297.54 64.9679 298.218L62.4678 296.294C63.2187 295.287 64.2261 294.509 65.4899 293.959C66.772 293.391 68.2006 293.108 69.7757 293.108C71.1677 293.108 72.3766 293.336 73.4023 293.794C74.4463 294.234 75.243 294.866 75.7925 295.69C76.3602 296.514 76.6441 297.494 76.6441 298.63C76.6441 299.252 76.5617 299.875 76.3969 300.498C76.232 301.102 75.9207 301.743 75.4628 302.421C75.0049 303.099 74.3364 303.859 73.4572 304.701L66.891 310.938L66.1492 309.592H77.3859V312.614H63.2096ZM84.1728 312.889C82.8174 312.889 81.4895 312.696 80.1891 312.312C78.907 311.909 77.8264 311.359 76.9472 310.663L78.4583 307.888C79.1542 308.456 79.9968 308.914 80.9858 309.262C81.9932 309.61 83.0372 309.784 84.1178 309.784C85.3816 309.784 86.3706 309.518 87.0849 308.987C87.8176 308.456 88.1839 307.742 88.1839 306.844C88.1839 306.24 88.0282 305.709 87.7168 305.251C87.4238 304.793 86.8926 304.445 86.1234 304.207C85.3724 303.969 84.3376 303.85 83.0189 303.85H78.3758L79.3649 293.382H90.6565V296.377H80.6836L82.5518 294.674L81.81 302.504L79.9418 300.828H83.8156C85.7204 300.828 87.2498 301.084 88.4037 301.597C89.5759 302.091 90.4276 302.787 90.9587 303.685C91.5082 304.564 91.7829 305.571 91.7829 306.707C91.7829 307.824 91.5082 308.85 90.9587 309.784C90.4092 310.718 89.5667 311.469 88.4312 312.037C87.3139 312.605 85.8944 312.889 84.1728 312.889ZM100.217 312.889C98.6967 312.889 97.323 312.504 96.0958 311.735C94.887 310.965 93.9346 309.848 93.2386 308.383C92.5426 306.899 92.1946 305.104 92.1946 302.998C92.1946 300.892 92.5426 299.106 93.2386 297.641C93.9346 296.157 94.887 295.031 96.0958 294.261C97.323 293.492 98.6967 293.108 100.217 293.108C101.755 293.108 103.129 293.492 104.338 294.261C105.547 295.031 106.499 296.157 107.195 297.641C107.909 299.106 108.267 300.892 108.267 302.998C108.267 305.104 107.909 306.899 107.195 308.383C106.499 309.848 105.547 310.965 104.338 311.735C103.129 312.504 101.755 312.889 100.217 312.889ZM100.217 309.784C101.114 309.784 101.893 309.546 102.552 309.07C103.211 308.575 103.724 307.824 104.091 306.817C104.475 305.809 104.668 304.537 104.668 302.998C104.668 301.441 104.475 300.168 104.091 299.179C103.724 298.172 103.211 297.43 102.552 296.954C101.893 296.459 101.114 296.212 100.217 296.212C99.356 296.212 98.5868 296.459 97.9091 296.954C97.2497 297.43 96.7277 298.172 96.3431 299.179C95.9768 300.168 95.7936 301.441 95.7936 302.998C95.7936 304.537 95.9768 305.809 96.3431 306.817C96.7277 307.824 97.2497 308.575 97.9091 309.07C98.5868 309.546 99.356 309.784 100.217 309.784ZM108.847 316.762L110.441 310.691L110.908 312.724C110.267 312.724 109.726 312.531 109.287 312.147C108.866 311.744 108.655 311.203 108.655 310.526C108.655 309.83 108.866 309.28 109.287 308.877C109.726 308.456 110.258 308.245 110.88 308.245C111.521 308.245 112.052 308.456 112.474 308.877C112.895 309.299 113.106 309.848 113.106 310.526C113.106 310.709 113.087 310.91 113.051 311.13C113.014 311.332 112.95 311.57 112.858 311.845C112.785 312.119 112.657 312.467 112.474 312.889L111.073 316.762H108.847ZM121.469 312.889C119.949 312.889 118.575 312.504 117.348 311.735C116.139 310.965 115.187 309.848 114.491 308.383C113.795 306.899 113.447 305.104 113.447 302.998C113.447 300.892 113.795 299.106 114.491 297.641C115.187 296.157 116.139 295.031 117.348 294.261C118.575 293.492 119.949 293.108 121.469 293.108C123.008 293.108 124.381 293.492 125.59 294.261C126.799 295.031 127.751 296.157 128.447 297.641C129.162 299.106 129.519 300.892 129.519 302.998C129.519 305.104 129.162 306.899 128.447 308.383C127.751 309.848 126.799 310.965 125.59 311.735C124.381 312.504 123.008 312.889 121.469 312.889ZM121.469 309.784C122.367 309.784 123.145 309.546 123.804 309.07C124.464 308.575 124.977 307.824 125.343 306.817C125.728 305.809 125.92 304.537 125.92 302.998C125.92 301.441 125.728 300.168 125.343 299.179C124.977 298.172 124.464 297.43 123.804 296.954C123.145 296.459 122.367 296.212 121.469 296.212C120.608 296.212 119.839 296.459 119.161 296.954C118.502 297.43 117.98 298.172 117.595 299.179C117.229 300.168 117.046 301.441 117.046 302.998C117.046 304.537 117.229 305.809 117.595 306.817C117.98 307.824 118.502 308.575 119.161 309.07C119.839 309.546 120.608 309.784 121.469 309.784ZM138.306 312.889C136.786 312.889 135.413 312.504 134.185 311.735C132.977 310.965 132.024 309.848 131.328 308.383C130.632 306.899 130.284 305.104 130.284 302.998C130.284 300.892 130.632 299.106 131.328 297.641C132.024 296.157 132.977 295.031 134.185 294.261C135.413 293.492 136.786 293.108 138.306 293.108C139.845 293.108 141.219 293.492 142.427 294.261C143.636 295.031 144.589 296.157 145.285 297.641C145.999 299.106 146.356 300.892 146.356 302.998C146.356 305.104 145.999 306.899 145.285 308.383C144.589 309.848 143.636 310.965 142.427 311.735C141.219 312.504 139.845 312.889 138.306 312.889ZM138.306 309.784C139.204 309.784 139.982 309.546 140.642 309.07C141.301 308.575 141.814 307.824 142.18 306.817C142.565 305.809 142.757 304.537 142.757 302.998C142.757 301.441 142.565 300.168 142.18 299.179C141.814 298.172 141.301 297.43 140.642 296.954C139.982 296.459 139.204 296.212 138.306 296.212C137.446 296.212 136.676 296.459 135.999 296.954C135.339 297.43 134.817 298.172 134.433 299.179C134.066 300.168 133.883 301.441 133.883 302.998C133.883 304.537 134.066 305.809 134.433 306.817C134.817 307.824 135.339 308.575 135.999 309.07C136.676 309.546 137.446 309.784 138.306 309.784ZM155.144 312.889C153.623 312.889 152.25 312.504 151.023 311.735C149.814 310.965 148.861 309.848 148.165 308.383C147.469 306.899 147.121 305.104 147.121 302.998C147.121 300.892 147.469 299.106 148.165 297.641C148.861 296.157 149.814 295.031 151.023 294.261C152.25 293.492 153.623 293.108 155.144 293.108C156.682 293.108 158.056 293.492 159.265 294.261C160.473 295.031 161.426 296.157 162.122 297.641C162.836 299.106 163.193 300.892 163.193 302.998C163.193 305.104 162.836 306.899 162.122 308.383C161.426 309.848 160.473 310.965 159.265 311.735C158.056 312.504 156.682 312.889 155.144 312.889ZM155.144 309.784C156.041 309.784 156.819 309.546 157.479 309.07C158.138 308.575 158.651 307.824 159.017 306.817C159.402 305.809 159.594 304.537 159.594 302.998C159.594 301.441 159.402 300.168 159.017 299.179C158.651 298.172 158.138 297.43 157.479 296.954C156.819 296.459 156.041 296.212 155.144 296.212C154.283 296.212 153.514 296.459 152.836 296.954C152.176 297.43 151.654 298.172 151.27 299.179C150.904 300.168 150.72 301.441 150.72 302.998C150.72 304.537 150.904 305.809 151.27 306.817C151.654 307.824 152.176 308.575 152.836 309.07C153.514 309.546 154.283 309.784 155.144 309.784Z" fill="#301446"/>
<path d="M190.242 180.651C190.913 179.98 192 179.98 192.671 180.651L231.453 219.433C232.123 220.103 232.123 221.191 231.453 221.861L192.671 260.643C192 261.314 190.913 261.314 190.242 260.643L151.46 221.861C150.79 221.191 150.79 220.103 151.46 219.433L190.242 180.651Z" fill="white"/>
<path d="M172.344 225.603C172.783 224.763 173.82 224.437 174.661 224.876L189.881 232.824C190.722 233.263 191.048 234.301 190.609 235.141L179.072 257.233C178.356 258.604 176.335 258.404 175.902 256.919L173.432 248.452C173.159 247.515 172.161 246.994 171.236 247.305L162.877 250.117C161.411 250.611 160.091 249.066 160.807 247.695L172.344 225.603Z" fill="#7B7FDA"/>
<path d="M210.517 225.603C210.078 224.763 209.04 224.437 208.2 224.876L192.979 232.824C192.138 233.263 191.813 234.301 192.252 235.141L203.788 257.233C204.504 258.604 206.526 258.404 206.959 256.919L209.428 248.452C209.701 247.515 210.699 246.994 211.624 247.305L219.983 250.117C221.449 250.611 222.769 249.066 222.053 247.695L210.517 225.603Z" fill="#7B7FDA"/>
<g filter="url(#filter1_d_553_2890)">
<path d="M191.456 196.608L215.496 220.647L191.456 244.686L167.417 220.647L191.456 196.608Z" fill="#7B7FDA"/>
<path d="M191.456 196.608L215.496 220.647L191.456 244.686L167.417 220.647L191.456 196.608Z" stroke="url(#paint1_linear_553_2890)" stroke-width="6.86839"/>
</g>
<path d="M191.542 224.507L193.808 222.412C195.525 220.832 195.852 219.768 195.852 218.6C195.852 216.368 193.946 214.943 191.181 214.943C188.812 214.943 187.112 215.939 186.202 217.45L188.726 218.858C189.207 218.085 189.996 217.69 190.872 217.69C191.902 217.69 192.418 218.154 192.418 218.926C192.418 219.424 192.28 219.974 191.319 220.867L186.82 225.074V227.203H196.178V224.507H191.542Z" fill="white"/>
<rect x="11.1611" y="399.225" width="242.111" height="118.48" rx="3.43419" fill="white"/>
<path d="M36.2997 435.143C35.4526 435.143 34.6227 435.023 33.8099 434.783C33.0086 434.531 32.3332 434.188 31.7838 433.753L32.7453 432.018C33.1803 432.373 33.7069 432.659 34.3251 432.877C34.9432 433.094 35.59 433.203 36.2654 433.203C37.0667 433.203 37.6906 433.043 38.137 432.722C38.5835 432.39 38.8067 431.944 38.8067 431.383C38.8067 430.833 38.6006 430.398 38.1885 430.078C37.7764 429.757 37.1125 429.597 36.1967 429.597H35.0978V428.069L38.532 423.982L38.8239 424.824H32.3676V422.952H40.5581V424.446L37.1239 428.533L35.9563 427.846H36.626C38.1027 427.846 39.2074 428.178 39.94 428.842C40.6841 429.494 41.0561 430.336 41.0561 431.366C41.0561 432.041 40.8844 432.665 40.541 433.237C40.1975 433.81 39.671 434.273 38.9612 434.628C38.263 434.972 37.3758 435.143 36.2997 435.143ZM42.1384 434.972V425.802H44.1818V428.327L43.9414 427.588C44.2161 426.97 44.6454 426.501 45.2292 426.18C45.8244 425.86 46.5628 425.699 47.4442 425.699V427.743C47.3527 427.72 47.2668 427.708 47.1867 427.708C47.1065 427.697 47.0264 427.691 46.9463 427.691C46.1335 427.691 45.4867 427.932 45.006 428.412C44.5252 428.882 44.2848 429.586 44.2848 430.524V434.972H42.1384ZM52.0316 435.092C51.1501 435.092 50.3545 434.897 49.6448 434.508C48.9465 434.107 48.397 433.558 47.9964 432.86C47.5957 432.161 47.3954 431.337 47.3954 430.387C47.3954 429.437 47.5957 428.613 47.9964 427.914C48.397 427.216 48.9465 426.672 49.6448 426.283C50.3545 425.894 51.1501 425.699 52.0316 425.699C52.7985 425.699 53.4854 425.871 54.0921 426.214C54.6988 426.546 55.1796 427.056 55.5344 427.743C55.8893 428.43 56.0667 429.311 56.0667 430.387C56.0667 431.452 55.895 432.333 55.5516 433.031C55.2082 433.718 54.7331 434.233 54.1264 434.577C53.5197 434.92 52.8214 435.092 52.0316 435.092ZM52.2891 433.255C52.8043 433.255 53.2622 433.14 53.6628 432.911C54.0749 432.682 54.4012 432.35 54.6416 431.915C54.8934 431.48 55.0193 430.971 55.0193 430.387C55.0193 429.792 54.8934 429.282 54.6416 428.859C54.4012 428.424 54.0749 428.092 53.6628 427.863C53.2622 427.634 52.8043 427.519 52.2891 427.519C51.774 427.519 51.3104 427.634 50.8983 427.863C50.4976 428.092 50.1714 428.424 49.9195 428.859C49.6791 429.282 49.5589 429.792 49.5589 430.387C49.5589 430.971 49.6791 431.48 49.9195 431.915C50.1714 432.35 50.4976 432.682 50.8983 432.911C51.3104 433.14 51.774 433.255 52.2891 433.255ZM55.0708 434.972V432.808L55.1567 430.37L54.985 427.932V422.231H57.1142V434.972H55.0708ZM62.8302 434.972V422.952H67.7755C68.8401 422.952 69.7501 423.124 70.5057 423.467C71.2726 423.811 71.8622 424.303 72.2743 424.944C72.6864 425.585 72.8924 426.346 72.8924 427.228C72.8924 428.109 72.6864 428.87 72.2743 429.511C71.8622 430.152 71.2726 430.645 70.5057 430.988C69.7501 431.331 68.8401 431.503 67.7755 431.503H64.0665L65.0625 430.456V434.972H62.8302ZM65.0625 430.696L64.0665 429.614H67.6724C68.6569 429.614 69.3953 429.408 69.8875 428.996C70.3912 428.573 70.643 427.983 70.643 427.228C70.643 426.461 70.3912 425.871 69.8875 425.459C69.3953 425.047 68.6569 424.841 67.6724 424.841H64.0665L65.0625 423.742V430.696ZM74.0529 434.972V422.231H76.1993V434.972H74.0529ZM83.6354 434.972V433.117L83.5152 432.722V429.477C83.5152 428.847 83.3263 428.361 82.9486 428.017C82.5708 427.663 81.9984 427.485 81.2315 427.485C80.7163 427.485 80.2069 427.565 79.7033 427.726C79.211 427.886 78.7932 428.109 78.4498 428.395L77.6084 426.833C78.1006 426.455 78.6844 426.174 79.3598 425.991C80.0467 425.797 80.7564 425.699 81.489 425.699C82.8169 425.699 83.8415 426.02 84.5626 426.661C85.2953 427.291 85.6616 428.269 85.6616 429.597V434.972H83.6354ZM80.7507 435.092C80.0638 435.092 79.4629 434.977 78.9477 434.748C78.4326 434.508 78.0319 434.182 77.7458 433.77C77.471 433.346 77.3337 432.871 77.3337 432.345C77.3337 431.829 77.4539 431.366 77.6943 430.954C77.9461 430.542 78.3525 430.215 78.9134 429.975C79.4743 429.735 80.2184 429.614 81.1456 429.614H83.8071V431.04H81.3002C80.5675 431.04 80.0753 431.16 79.8235 431.4C79.5716 431.629 79.4457 431.915 79.4457 432.259C79.4457 432.648 79.6002 432.957 79.9093 433.186C80.2184 433.415 80.6477 433.529 81.1971 433.529C81.7237 433.529 82.193 433.409 82.6052 433.169C83.0287 432.928 83.3321 432.573 83.5152 432.104L83.8758 433.392C83.6698 433.93 83.2977 434.348 82.7597 434.645C82.2331 434.943 81.5634 435.092 80.7507 435.092ZM91.6096 435.092C90.648 435.092 89.7895 434.892 89.0339 434.491C88.2899 434.079 87.706 433.518 87.2825 432.808C86.8589 432.098 86.6472 431.291 86.6472 430.387C86.6472 429.471 86.8589 428.664 87.2825 427.966C87.706 427.256 88.2899 426.701 89.0339 426.3C89.7895 425.9 90.648 425.699 91.6096 425.699C92.5025 425.699 93.2866 425.883 93.962 426.249C94.6488 426.604 95.1697 427.13 95.5246 427.829L93.8762 428.79C93.6014 428.355 93.2637 428.035 92.8631 427.829C92.4739 427.623 92.0503 427.519 91.5924 427.519C91.0658 427.519 90.5908 427.634 90.1672 427.863C89.7437 428.092 89.4117 428.424 89.1713 428.859C88.9309 429.282 88.8107 429.792 88.8107 430.387C88.8107 430.982 88.9309 431.497 89.1713 431.932C89.4117 432.356 89.7437 432.682 90.1672 432.911C90.5908 433.14 91.0658 433.255 91.5924 433.255C92.0503 433.255 92.4739 433.152 92.8631 432.946C93.2637 432.739 93.6014 432.419 93.8762 431.984L95.5246 432.946C95.1697 433.632 94.6488 434.165 93.962 434.542C93.2866 434.909 92.5025 435.092 91.6096 435.092ZM100.525 435.092C99.5067 435.092 98.6138 434.892 97.8468 434.491C97.0913 434.079 96.5017 433.518 96.0782 432.808C95.6661 432.098 95.46 431.291 95.46 430.387C95.46 429.471 95.6604 428.664 96.061 427.966C96.4731 427.256 97.034 426.701 97.7438 426.3C98.465 425.9 99.2834 425.699 100.199 425.699C101.092 425.699 101.888 425.894 102.586 426.283C103.284 426.672 103.834 427.222 104.234 427.932C104.635 428.641 104.835 429.477 104.835 430.439C104.835 430.53 104.83 430.633 104.818 430.748C104.818 430.862 104.812 430.971 104.801 431.074H97.16V429.649H103.668L102.826 430.095C102.838 429.569 102.729 429.105 102.5 428.704C102.271 428.304 101.956 427.989 101.556 427.76C101.167 427.531 100.714 427.416 100.199 427.416C99.6726 427.416 99.209 427.531 98.8084 427.76C98.4192 427.989 98.1101 428.309 97.8811 428.721C97.6636 429.122 97.5549 429.597 97.5549 430.147V430.49C97.5549 431.04 97.6808 431.526 97.9327 431.95C98.1845 432.373 98.5394 432.699 98.9973 432.928C99.4552 433.157 99.9817 433.272 100.577 433.272C101.092 433.272 101.556 433.192 101.968 433.031C102.38 432.871 102.746 432.619 103.067 432.276L104.217 433.598C103.805 434.079 103.284 434.451 102.655 434.714C102.037 434.966 101.327 435.092 100.525 435.092Z" fill="#F9AD6D"/>
<path d="M35.4755 492.051V472.819H38.4152L50.4486 487.627H48.9925V472.819H52.5366V492.051H49.5969L37.536 477.242H39.0196V492.051H35.4755ZM32.5908 485.292V483.369H36.8492V485.292H32.5908ZM32.5908 481.501V479.578H36.8492V481.501H32.5908ZM51.3003 485.292V483.369H55.4213V485.292H51.3003ZM51.3003 481.501V479.578H55.4213V481.501H51.3003ZM64.8171 492.051V474.193L66.3831 475.814H60.751V472.819H68.3886V492.051H64.8171ZM76.929 492.325C75.5737 492.325 74.2458 492.133 72.9454 491.748C71.6633 491.345 70.5827 490.796 69.7035 490.1L71.2145 487.325C71.9105 487.893 72.7531 488.351 73.7421 488.699C74.7495 489.047 75.7935 489.221 76.8741 489.221C78.1379 489.221 79.1269 488.955 79.8412 488.424C80.5739 487.893 80.9402 487.179 80.9402 486.281C80.9402 485.677 80.7845 485.146 80.4731 484.688C80.1801 484.23 79.6489 483.882 78.8797 483.644C78.1287 483.406 77.0939 483.286 75.7752 483.286H71.1321L72.1212 472.819H83.4128V475.814H73.4399L75.3081 474.11L74.5663 481.94L72.6981 480.264H76.5719C78.4767 480.264 80.0061 480.521 81.16 481.034C82.3322 481.528 83.1839 482.224 83.715 483.122C84.2645 484.001 84.5392 485.008 84.5392 486.144C84.5392 487.261 84.2645 488.287 83.715 489.221C83.1655 490.155 82.323 490.906 81.1874 491.474C80.0702 492.041 78.6507 492.325 76.929 492.325ZM92.9732 492.325C91.453 492.325 90.0793 491.941 88.8521 491.171C87.6433 490.402 86.6909 489.285 85.9949 487.82C85.2989 486.336 84.9509 484.541 84.9509 482.435C84.9509 480.328 85.2989 478.543 85.9949 477.077C86.6909 475.594 87.6433 474.467 88.8521 473.698C90.0793 472.929 91.453 472.544 92.9732 472.544C94.5117 472.544 95.8854 472.929 97.0942 473.698C98.303 474.467 99.2555 475.594 99.9515 477.077C100.666 478.543 101.023 480.328 101.023 482.435C101.023 484.541 100.666 486.336 99.9515 487.82C99.2555 489.285 98.303 490.402 97.0942 491.171C95.8854 491.941 94.5117 492.325 92.9732 492.325ZM92.9732 489.221C93.8706 489.221 94.6491 488.983 95.3084 488.506C95.9678 488.012 96.4806 487.261 96.8469 486.254C97.2316 485.246 97.4239 483.973 97.4239 482.435C97.4239 480.878 97.2316 479.605 96.8469 478.616C96.4806 477.609 95.9678 476.867 95.3084 476.391C94.6491 475.896 93.8706 475.649 92.9732 475.649C92.1123 475.649 91.3431 475.896 90.6654 476.391C90.006 476.867 89.484 477.609 89.0994 478.616C88.7331 479.605 88.5499 480.878 88.5499 482.435C88.5499 483.973 88.7331 485.246 89.0994 486.254C89.484 487.261 90.006 488.012 90.6654 488.506C91.3431 488.983 92.1123 489.221 92.9732 489.221ZM101.604 496.199L103.197 490.127L103.664 492.16C103.023 492.16 102.483 491.968 102.043 491.583C101.622 491.181 101.411 490.64 101.411 489.963C101.411 489.267 101.622 488.717 102.043 488.314C102.483 487.893 103.014 487.682 103.637 487.682C104.278 487.682 104.809 487.893 105.23 488.314C105.651 488.735 105.862 489.285 105.862 489.963C105.862 490.146 105.844 490.347 105.807 490.567C105.77 490.768 105.706 491.007 105.615 491.281C105.541 491.556 105.413 491.904 105.23 492.325L103.829 496.199H101.604ZM114.225 492.325C112.705 492.325 111.332 491.941 110.104 491.171C108.896 490.402 107.943 489.285 107.247 487.82C106.551 486.336 106.203 484.541 106.203 482.435C106.203 480.328 106.551 478.543 107.247 477.077C107.943 475.594 108.896 474.467 110.104 473.698C111.332 472.929 112.705 472.544 114.225 472.544C115.764 472.544 117.138 472.929 118.347 473.698C119.555 474.467 120.508 475.594 121.204 477.077C121.918 478.543 122.275 480.328 122.275 482.435C122.275 484.541 121.918 486.336 121.204 487.82C120.508 489.285 119.555 490.402 118.347 491.171C117.138 491.941 115.764 492.325 114.225 492.325ZM114.225 489.221C115.123 489.221 115.901 488.983 116.561 488.506C117.22 488.012 117.733 487.261 118.099 486.254C118.484 485.246 118.676 483.973 118.676 482.435C118.676 480.878 118.484 479.605 118.099 478.616C117.733 477.609 117.22 476.867 116.561 476.391C115.901 475.896 115.123 475.649 114.225 475.649C113.365 475.649 112.595 475.896 111.918 476.391C111.258 476.867 110.736 477.609 110.352 478.616C109.985 479.605 109.802 480.878 109.802 482.435C109.802 483.973 109.985 485.246 110.352 486.254C110.736 487.261 111.258 488.012 111.918 488.506C112.595 488.983 113.365 489.221 114.225 489.221ZM131.063 492.325C129.542 492.325 128.169 491.941 126.942 491.171C125.733 490.402 124.78 489.285 124.084 487.82C123.388 486.336 123.04 484.541 123.04 482.435C123.04 480.328 123.388 478.543 124.084 477.077C124.78 475.594 125.733 474.467 126.942 473.698C128.169 472.929 129.542 472.544 131.063 472.544C132.601 472.544 133.975 472.929 135.184 473.698C136.393 474.467 137.345 475.594 138.041 477.077C138.755 478.543 139.112 480.328 139.112 482.435C139.112 484.541 138.755 486.336 138.041 487.82C137.345 489.285 136.393 490.402 135.184 491.171C133.975 491.941 132.601 492.325 131.063 492.325ZM131.063 489.221C131.96 489.221 132.739 488.983 133.398 488.506C134.057 488.012 134.57 487.261 134.936 486.254C135.321 485.246 135.513 483.973 135.513 482.435C135.513 480.878 135.321 479.605 134.936 478.616C134.57 477.609 134.057 476.867 133.398 476.391C132.739 475.896 131.96 475.649 131.063 475.649C130.202 475.649 129.433 475.896 128.755 476.391C128.096 476.867 127.574 477.609 127.189 478.616C126.823 479.605 126.639 480.878 126.639 482.435C126.639 483.973 126.823 485.246 127.189 486.254C127.574 487.261 128.096 488.012 128.755 488.506C129.433 488.983 130.202 489.221 131.063 489.221ZM147.9 492.325C146.38 492.325 145.006 491.941 143.779 491.171C142.57 490.402 141.618 489.285 140.922 487.82C140.226 486.336 139.878 484.541 139.878 482.435C139.878 480.328 140.226 478.543 140.922 477.077C141.618 475.594 142.57 474.467 143.779 473.698C145.006 472.929 146.38 472.544 147.9 472.544C149.438 472.544 150.812 472.929 152.021 473.698C153.23 474.467 154.182 475.594 154.878 477.077C155.592 478.543 155.95 480.328 155.95 482.435C155.95 484.541 155.592 486.336 154.878 487.82C154.182 489.285 153.23 490.402 152.021 491.171C150.812 491.941 149.438 492.325 147.9 492.325ZM147.9 489.221C148.797 489.221 149.576 488.983 150.235 488.506C150.895 488.012 151.407 487.261 151.774 486.254C152.158 485.246 152.351 483.973 152.351 482.435C152.351 480.878 152.158 479.605 151.774 478.616C151.407 477.609 150.895 476.867 150.235 476.391C149.576 475.896 148.797 475.649 147.9 475.649C147.039 475.649 146.27 475.896 145.592 476.391C144.933 476.867 144.411 477.609 144.026 478.616C143.66 479.605 143.477 480.878 143.477 482.435C143.477 483.973 143.66 485.246 144.026 486.254C144.411 487.261 144.933 488.012 145.592 488.506C146.27 488.983 147.039 489.221 147.9 489.221Z" fill="#301446"/>
<ellipse cx="190.598" cy="398.827" rx="41.2103" ry="39.9533" fill="white"/>
<path d="M171.466 406.997C171.916 406.162 172.966 405.833 173.812 406.261L189.013 413.957C189.859 414.385 190.18 415.409 189.731 416.244L178.236 437.584C177.506 438.939 175.477 438.765 175.04 437.31L172.573 429.109C172.299 428.198 171.31 427.697 170.382 427.999L162.03 430.723C160.548 431.207 159.242 429.692 159.972 428.337L171.466 406.997Z" fill="#7B7FDA"/>
<path d="M209.678 406.997C209.228 406.162 208.177 405.833 207.331 406.261L192.131 413.957C191.284 414.385 190.963 415.409 191.413 416.244L202.907 437.584C203.637 438.939 205.666 438.765 206.104 437.31L208.571 429.109C208.845 428.198 209.834 427.697 210.762 427.999L219.113 430.723C220.595 431.207 221.902 429.692 221.172 428.337L209.678 406.997Z" fill="#7B7FDA"/>
<g filter="url(#filter2_d_553_2890)">
<ellipse cx="190.598" cy="398.827" rx="24.0394" ry="23.3061" fill="#F9AD6D"/>
<ellipse cx="190.598" cy="398.827" rx="24.0394" ry="23.3061" stroke="url(#paint2_linear_553_2890)" stroke-width="6.86839"/>
</g>
<path d="M192.194 399.428L194.684 396.749V394.62H185.996V397.247H190.735L188.589 399.565V401.712H190.014C191.319 401.712 191.851 402.158 191.851 402.879C191.851 403.686 191.096 404.133 189.945 404.133C188.812 404.133 187.575 403.789 186.614 403.137L185.378 405.695C186.614 406.468 188.383 406.88 190.048 406.88C193.671 406.88 195.285 404.923 195.285 402.879C195.285 401.162 194.221 399.857 192.194 399.428Z" fill="white"/>
<rect y="579.52" width="242.111" height="118.48" rx="3.43419" fill="white"/>
<path d="M21.1893 612.537V610.991L27.1133 603.247H29.5L23.6619 610.991L22.5458 610.648H32.0757V612.537H21.1893ZM27.7829 615.267V612.537L27.8516 610.648V608.227H29.9465V615.267H27.7829ZM36.1055 615.387C35.0981 615.387 34.3197 615.129 33.7702 614.614C33.2208 614.088 32.946 613.315 32.946 612.296V604.071H35.0924V612.245C35.0924 612.68 35.2012 613.017 35.4187 613.258C35.6476 613.498 35.9624 613.618 36.3631 613.618C36.8438 613.618 37.2445 613.493 37.565 613.241L38.166 614.769C37.9142 614.975 37.6051 615.129 37.2388 615.233C36.8725 615.336 36.4947 615.387 36.1055 615.387ZM31.435 607.883V606.166H37.5479V607.883H31.435ZM44.1042 605.995C44.8368 605.995 45.4893 606.138 46.0617 606.424C46.6455 606.71 47.1034 607.151 47.4354 607.746C47.7674 608.33 47.9333 609.085 47.9333 610.013V615.267H45.787V610.287C45.787 609.475 45.5924 608.868 45.2032 608.467C44.8254 608.066 44.2931 607.866 43.6063 607.866C43.1026 607.866 42.6561 607.969 42.2669 608.175C41.8777 608.381 41.5744 608.69 41.3569 609.102C41.1508 609.503 41.0478 610.013 41.0478 610.631V615.267H38.9014V602.526H41.0478V608.57L40.5842 607.815C40.9047 607.231 41.3683 606.784 41.975 606.475C42.5932 606.155 43.3029 605.995 44.1042 605.995ZM52.8775 611.386V609.6H57.5995V611.386H52.8775ZM63.9035 615.267V604.106L64.8823 605.119H61.3622V603.247H66.1358V615.267H63.9035ZM72.5038 615.439C71.5537 615.439 70.6951 615.198 69.9281 614.717C69.1726 614.237 68.5774 613.538 68.1424 612.623C67.7074 611.695 67.4899 610.573 67.4899 609.257C67.4899 607.941 67.7074 606.824 68.1424 605.909C68.5774 604.981 69.1726 604.277 69.9281 603.797C70.6951 603.316 71.5537 603.075 72.5038 603.075C73.4654 603.075 74.3239 603.316 75.0794 603.797C75.835 604.277 76.4302 604.981 76.8652 605.909C77.3117 606.824 77.5349 607.941 77.5349 609.257C77.5349 610.573 77.3117 611.695 76.8652 612.623C76.4302 613.538 75.835 614.237 75.0794 614.717C74.3239 615.198 73.4654 615.439 72.5038 615.439ZM72.5038 613.498C73.0647 613.498 73.5512 613.349 73.9633 613.052C74.3754 612.743 74.696 612.273 74.9249 611.644C75.1653 611.014 75.2855 610.219 75.2855 609.257C75.2855 608.284 75.1653 607.488 74.9249 606.87C74.696 606.241 74.3754 605.777 73.9633 605.479C73.5512 605.17 73.0647 605.016 72.5038 605.016C71.9658 605.016 71.485 605.17 71.0614 605.479C70.6493 605.777 70.3231 606.241 70.0827 606.87C69.8537 607.488 69.7393 608.284 69.7393 609.257C69.7393 610.219 69.8537 611.014 70.0827 611.644C70.3231 612.273 70.6493 612.743 71.0614 613.052C71.485 613.349 71.9658 613.498 72.5038 613.498ZM82.2847 615.387C81.2773 615.387 80.4989 615.129 79.9494 614.614C79.3999 614.088 79.1252 613.315 79.1252 612.296V604.071H81.2716V612.245C81.2716 612.68 81.3803 613.017 81.5978 613.258C81.8268 613.498 82.1416 613.618 82.5422 613.618C83.023 613.618 83.4237 613.493 83.7442 613.241L84.3452 614.769C84.0933 614.975 83.7843 615.129 83.418 615.233C83.0516 615.336 82.6739 615.387 82.2847 615.387ZM77.6142 607.883V606.166H83.727V607.883H77.6142ZM90.2834 605.995C91.016 605.995 91.6685 606.138 92.2409 606.424C92.8247 606.71 93.2826 607.151 93.6146 607.746C93.9465 608.33 94.1125 609.085 94.1125 610.013V615.267H91.9661V610.287C91.9661 609.475 91.7715 608.868 91.3823 608.467C91.0046 608.066 90.4723 607.866 89.7854 607.866C89.2817 607.866 88.8353 607.969 88.4461 608.175C88.0569 608.381 87.7535 608.69 87.536 609.102C87.33 609.503 87.227 610.013 87.227 610.631V615.267H85.0806V602.526H87.227V608.57L86.7633 607.815C87.0839 607.231 87.5475 606.784 88.1542 606.475C88.7723 606.155 89.4821 605.995 90.2834 605.995ZM99.7264 615.267V603.247H104.672C105.736 603.247 106.646 603.419 107.402 603.762C108.169 604.106 108.758 604.598 109.17 605.239C109.582 605.88 109.789 606.641 109.789 607.523C109.789 608.404 109.582 609.165 109.17 609.806C108.758 610.448 108.169 610.94 107.402 611.283C106.646 611.627 105.736 611.798 104.672 611.798H100.963L101.959 610.751V615.267H99.7264ZM101.959 610.991L100.963 609.91H104.569C105.553 609.91 106.291 609.703 106.784 609.291C107.287 608.868 107.539 608.278 107.539 607.523C107.539 606.756 107.287 606.166 106.784 605.754C106.291 605.342 105.553 605.136 104.569 605.136H100.963L101.959 604.037V610.991ZM110.949 615.267V602.526H113.095V615.267H110.949ZM120.532 615.267V613.412L120.411 613.017V609.772C120.411 609.143 120.222 608.656 119.845 608.313C119.467 607.958 118.895 607.78 118.128 607.78C117.612 607.78 117.103 607.86 116.599 608.021C116.107 608.181 115.689 608.404 115.346 608.69L114.505 607.128C114.997 606.75 115.581 606.47 116.256 606.286C116.943 606.092 117.653 605.995 118.385 605.995C119.713 605.995 120.738 606.315 121.459 606.956C122.191 607.586 122.558 608.564 122.558 609.892V615.267H120.532ZM117.647 615.387C116.96 615.387 116.359 615.273 115.844 615.044C115.329 614.803 114.928 614.477 114.642 614.065C114.367 613.641 114.23 613.166 114.23 612.64C114.23 612.125 114.35 611.661 114.59 611.249C114.842 610.837 115.249 610.51 115.81 610.27C116.37 610.03 117.115 609.91 118.042 609.91H120.703V611.335H118.196C117.464 611.335 116.971 611.455 116.72 611.695C116.468 611.924 116.342 612.21 116.342 612.554C116.342 612.943 116.496 613.252 116.805 613.481C117.115 613.71 117.544 613.824 118.093 613.824C118.62 613.824 119.089 613.704 119.501 613.464C119.925 613.224 120.228 612.869 120.411 612.399L120.772 613.687C120.566 614.225 120.194 614.643 119.656 614.941C119.129 615.238 118.46 615.387 117.647 615.387ZM128.506 615.387C127.544 615.387 126.686 615.187 125.93 614.786C125.186 614.374 124.602 613.813 124.179 613.103C123.755 612.394 123.543 611.587 123.543 610.682C123.543 609.766 123.755 608.959 124.179 608.261C124.602 607.551 125.186 606.996 125.93 606.596C126.686 606.195 127.544 605.995 128.506 605.995C129.399 605.995 130.183 606.178 130.858 606.544C131.545 606.899 132.066 607.425 132.421 608.124L130.772 609.085C130.498 608.65 130.16 608.33 129.759 608.124C129.37 607.918 128.946 607.815 128.489 607.815C127.962 607.815 127.487 607.929 127.063 608.158C126.64 608.387 126.308 608.719 126.067 609.154C125.827 609.578 125.707 610.087 125.707 610.682C125.707 611.277 125.827 611.793 126.067 612.228C126.308 612.651 126.64 612.977 127.063 613.206C127.487 613.435 127.962 613.55 128.489 613.55C128.946 613.55 129.37 613.447 129.759 613.241C130.16 613.035 130.498 612.714 130.772 612.279L132.421 613.241C132.066 613.928 131.545 614.46 130.858 614.838C130.183 615.204 129.399 615.387 128.506 615.387ZM137.422 615.387C136.403 615.387 135.51 615.187 134.743 614.786C133.987 614.374 133.398 613.813 132.974 613.103C132.562 612.394 132.356 611.587 132.356 610.682C132.356 609.766 132.556 608.959 132.957 608.261C133.369 607.551 133.93 606.996 134.64 606.596C135.361 606.195 136.18 605.995 137.095 605.995C137.988 605.995 138.784 606.189 139.482 606.578C140.18 606.968 140.73 607.517 141.131 608.227C141.531 608.936 141.732 609.772 141.732 610.734C141.732 610.825 141.726 610.928 141.714 611.043C141.714 611.157 141.709 611.266 141.697 611.369H134.056V609.944H140.564L139.723 610.39C139.734 609.864 139.625 609.4 139.396 608.999C139.167 608.599 138.853 608.284 138.452 608.055C138.063 607.826 137.61 607.712 137.095 607.712C136.569 607.712 136.105 607.826 135.704 608.055C135.315 608.284 135.006 608.605 134.777 609.017C134.56 609.417 134.451 609.892 134.451 610.442V610.785C134.451 611.335 134.577 611.821 134.829 612.245C135.081 612.668 135.435 612.995 135.893 613.224C136.351 613.452 136.878 613.567 137.473 613.567C137.988 613.567 138.452 613.487 138.864 613.327C139.276 613.166 139.642 612.914 139.963 612.571L141.113 613.893C140.701 614.374 140.18 614.746 139.551 615.009C138.933 615.261 138.223 615.387 137.422 615.387Z" fill="#301446"/>
<path d="M32.1993 672.62C30.6974 672.62 29.3146 672.373 28.0508 671.879C26.787 671.384 25.6881 670.697 24.754 669.818C23.8199 668.921 23.0964 667.877 22.5836 666.686C22.0707 665.477 21.8143 664.159 21.8143 662.73C21.8143 661.301 22.0707 659.992 22.5836 658.801C23.0964 657.592 23.8199 656.548 24.754 655.669C25.6881 654.772 26.787 654.076 28.0508 653.581C29.3146 653.087 30.6883 652.839 32.1718 652.839C33.6737 652.839 35.0474 653.087 36.2929 653.581C37.5567 654.076 38.6556 654.772 39.5897 655.669C40.5238 656.548 41.2473 657.592 41.7601 658.801C42.2729 659.992 42.5294 661.301 42.5294 662.73C42.5294 664.159 42.2729 665.477 41.7601 666.686C41.2473 667.895 40.5238 668.939 39.5897 669.818C38.6556 670.697 37.5567 671.384 36.2929 671.879C35.0474 672.373 33.6829 672.62 32.1993 672.62ZM32.1718 669.488C33.1426 669.488 34.04 669.324 34.8642 668.994C35.6885 668.664 36.4028 668.197 37.0072 667.593C37.6116 666.97 38.0787 666.256 38.4083 665.45C38.7563 664.626 38.9303 663.719 38.9303 662.73C38.9303 661.741 38.7563 660.843 38.4083 660.038C38.0787 659.213 37.6116 658.499 37.0072 657.895C36.4028 657.272 35.6885 656.796 34.8642 656.466C34.04 656.136 33.1426 655.971 32.1718 655.971C31.2011 655.971 30.3036 656.136 29.4794 656.466C28.6735 656.796 27.9592 657.272 27.3365 657.895C26.7321 658.499 26.2559 659.213 25.9079 660.038C25.5782 660.843 25.4133 661.741 25.4133 662.73C25.4133 663.701 25.5782 664.598 25.9079 665.422C26.2559 666.247 26.7321 666.97 27.3365 667.593C27.9409 668.197 28.6552 668.664 29.4794 668.994C30.3036 669.324 31.2011 669.488 32.1718 669.488ZM49.9934 672.538C48.3816 672.538 47.1361 672.126 46.257 671.302C45.3778 670.459 44.9382 669.223 44.9382 667.593V654.433H48.3724V667.51C48.3724 668.206 48.5464 668.747 48.8944 669.131C49.2607 669.516 49.7644 669.708 50.4055 669.708C51.1747 669.708 51.8158 669.507 52.3286 669.104L53.2902 671.549C52.8873 671.879 52.3927 672.126 51.8066 672.291C51.2205 672.456 50.6161 672.538 49.9934 672.538ZM42.5206 660.532V657.785H52.3012V660.532H42.5206ZM62.7913 657.51C63.9635 657.51 65.0075 657.739 65.9233 658.197C66.8574 658.655 67.59 659.36 68.1212 660.312C68.6524 661.246 68.9179 662.455 68.9179 663.939V672.346H65.4837V664.378C65.4837 663.078 65.1724 662.107 64.5496 661.466C63.9452 660.825 63.0935 660.505 61.9946 660.505C61.1887 660.505 60.4744 660.669 59.8517 660.999C59.2289 661.329 58.7436 661.823 58.3956 662.483C58.0659 663.124 57.901 663.939 57.901 664.928V672.346H54.4668V651.96H57.901V661.631L57.1592 660.422C57.6721 659.488 58.4139 658.774 59.3846 658.279C60.3737 657.766 61.5092 657.51 62.7913 657.51ZM78.5487 672.538C76.9186 672.538 75.49 672.217 74.2628 671.576C73.054 670.917 72.1107 670.02 71.433 668.884C70.7737 667.748 70.444 666.457 70.444 665.01C70.444 663.545 70.7645 662.254 71.4056 661.136C72.0649 660.001 72.9624 659.113 74.098 658.472C75.2519 657.831 76.5614 657.51 78.0267 657.51C79.4553 657.51 80.7283 657.821 81.8455 658.444C82.9628 659.067 83.8419 659.946 84.483 661.082C85.124 662.217 85.4446 663.554 85.4446 665.093C85.4446 665.239 85.4354 665.404 85.4171 665.587C85.4171 665.77 85.4079 665.944 85.3896 666.109H73.1639V663.829H83.5764L82.2302 664.543C82.2485 663.701 82.0745 662.959 81.7082 662.318C81.3418 661.677 80.8382 661.173 80.1971 660.807C79.5744 660.44 78.8509 660.257 78.0267 660.257C77.1842 660.257 76.4424 660.44 75.8013 660.807C75.1786 661.173 74.6841 661.686 74.3178 662.345C73.9698 662.986 73.7958 663.746 73.7958 664.626V665.175C73.7958 666.054 73.9972 666.833 74.4002 667.51C74.8031 668.188 75.3709 668.71 76.1036 669.076C76.8362 669.443 77.6787 669.626 78.6311 669.626C79.4553 669.626 80.1971 669.498 80.8565 669.241C81.5158 668.985 82.1019 668.582 82.6148 668.032L84.4555 670.148C83.7961 670.917 82.9628 671.512 81.9554 671.934C80.9664 672.337 79.8308 672.538 78.5487 672.538ZM87.0949 672.346V657.675H90.3643V661.713L89.9796 660.532C90.4192 659.543 91.106 658.792 92.0401 658.279C92.9926 657.766 94.1739 657.51 95.5842 657.51V660.779C95.4377 660.743 95.3003 660.724 95.1721 660.724C95.0439 660.706 94.9157 660.697 94.7875 660.697C93.4871 660.697 92.4522 661.082 91.683 661.851C90.9137 662.602 90.5291 663.728 90.5291 665.23V672.346H87.0949ZM103.257 672.346V653.114H111.17C112.873 653.114 114.329 653.389 115.538 653.938C116.765 654.488 117.708 655.275 118.368 656.301C119.027 657.327 119.357 658.545 119.357 659.955C119.357 661.365 119.027 662.583 118.368 663.609C117.708 664.635 116.765 665.422 115.538 665.972C114.329 666.521 112.873 666.796 111.17 666.796H105.235L106.829 665.12V672.346H103.257ZM106.829 665.505L105.235 663.774H111.005C112.58 663.774 113.761 663.444 114.549 662.785C115.355 662.107 115.758 661.164 115.758 659.955C115.758 658.728 115.355 657.785 114.549 657.125C113.761 656.466 112.58 656.136 111.005 656.136H105.235L106.829 654.378V665.505ZM120.811 672.346V657.675H124.081V661.713L123.696 660.532C124.135 659.543 124.822 658.792 125.756 658.279C126.709 657.766 127.89 657.51 129.301 657.51V660.779C129.154 660.743 129.017 660.724 128.888 660.724C128.76 660.706 128.632 660.697 128.504 660.697C127.203 660.697 126.169 661.082 125.399 661.851C124.63 662.602 124.245 663.728 124.245 665.23V672.346H120.811ZM130.565 672.346V657.675H134V672.346H130.565ZM132.296 655.257C131.655 655.257 131.124 655.056 130.703 654.653C130.3 654.25 130.098 653.764 130.098 653.197C130.098 652.611 130.3 652.125 130.703 651.741C131.124 651.338 131.655 651.136 132.296 651.136C132.937 651.136 133.459 651.328 133.862 651.713C134.283 652.079 134.494 652.546 134.494 653.114C134.494 653.719 134.293 654.231 133.89 654.653C133.487 655.056 132.956 655.257 132.296 655.257ZM135.65 672.346V670.175L144.688 659.241L145.32 660.422H135.815V657.675H148.068V659.845L139.029 670.78L138.342 669.598H148.315V672.346H135.65ZM156.513 672.538C154.883 672.538 153.455 672.217 152.228 671.576C151.019 670.917 150.076 670.02 149.398 668.884C148.738 667.748 148.409 666.457 148.409 665.01C148.409 663.545 148.729 662.254 149.37 661.136C150.03 660.001 150.927 659.113 152.063 658.472C153.217 657.831 154.526 657.51 155.991 657.51C157.42 657.51 158.693 657.821 159.81 658.444C160.928 659.067 161.807 659.946 162.448 661.082C163.089 662.217 163.409 663.554 163.409 665.093C163.409 665.239 163.4 665.404 163.382 665.587C163.382 665.77 163.373 665.944 163.354 666.109H151.129V663.829H161.541L160.195 664.543C160.213 663.701 160.039 662.959 159.673 662.318C159.307 661.677 158.803 661.173 158.162 660.807C157.539 660.44 156.816 660.257 155.991 660.257C155.149 660.257 154.407 660.44 153.766 660.807C153.143 661.173 152.649 661.686 152.283 662.345C151.935 662.986 151.761 663.746 151.761 664.626V665.175C151.761 666.054 151.962 666.833 152.365 667.51C152.768 668.188 153.336 668.71 154.068 669.076C154.801 669.443 155.643 669.626 156.596 669.626C157.42 669.626 158.162 669.498 158.821 669.241C159.481 668.985 160.067 668.582 160.58 668.032L162.42 670.148C161.761 670.917 160.928 671.512 159.92 671.934C158.931 672.337 157.796 672.538 156.513 672.538ZM169.593 672.538C168.366 672.538 167.184 672.382 166.049 672.071C164.931 671.741 164.043 671.347 163.384 670.89L164.703 668.28C165.362 668.701 166.149 669.049 167.065 669.324C167.981 669.598 168.897 669.736 169.813 669.736C170.893 669.736 171.672 669.589 172.148 669.296C172.642 669.003 172.89 668.609 172.89 668.115C172.89 667.712 172.725 667.41 172.395 667.208C172.065 666.988 171.635 666.824 171.104 666.714C170.573 666.604 169.977 666.503 169.318 666.411C168.677 666.32 168.027 666.201 167.367 666.054C166.726 665.889 166.14 665.66 165.609 665.367C165.078 665.056 164.648 664.644 164.318 664.131C163.988 663.618 163.823 662.941 163.823 662.098C163.823 661.164 164.089 660.358 164.62 659.68C165.151 658.984 165.893 658.453 166.845 658.087C167.816 657.702 168.961 657.51 170.28 657.51C171.269 657.51 172.267 657.62 173.274 657.84C174.282 658.059 175.115 658.371 175.774 658.774L174.456 661.384C173.76 660.962 173.055 660.679 172.34 660.532C171.644 660.367 170.948 660.285 170.252 660.285C169.208 660.285 168.43 660.44 167.917 660.752C167.422 661.063 167.175 661.457 167.175 661.933C167.175 662.373 167.34 662.702 167.67 662.922C167.999 663.142 168.43 663.316 168.961 663.444C169.492 663.572 170.078 663.682 170.719 663.774C171.379 663.847 172.029 663.966 172.67 664.131C173.311 664.296 173.897 664.525 174.428 664.818C174.978 665.093 175.417 665.486 175.747 665.999C176.077 666.512 176.241 667.181 176.241 668.005C176.241 668.921 175.967 669.717 175.417 670.395C174.886 671.073 174.126 671.604 173.137 671.989C172.148 672.355 170.967 672.538 169.593 672.538Z" fill="#301446"/>
<path d="M190.661 541.176C191.69 539.761 193.799 539.761 194.828 541.176L242.19 606.338C243.428 608.041 242.211 610.428 240.107 610.428H145.382C143.277 610.428 142.061 608.041 143.299 606.338L190.661 541.176Z" fill="white"/>
<path d="M172.209 587.653C172.671 586.767 173.764 586.424 174.649 586.887L190.684 595.26C191.57 595.723 191.913 596.815 191.45 597.701L179.297 620.974C178.542 622.419 176.413 622.208 175.957 620.643L173.355 611.723C173.068 610.736 172.016 610.187 171.042 610.515L162.235 613.478C160.691 613.998 159.301 612.371 160.055 610.926L172.209 587.653Z" fill="#F2F2FB"/>
<path d="M212.422 587.653C211.96 586.767 210.867 586.424 209.981 586.887L193.947 595.26C193.061 595.723 192.718 596.815 193.181 597.701L205.334 620.974C206.089 622.419 208.218 622.208 208.674 620.643L211.275 611.723C211.563 610.736 212.615 610.187 213.589 610.515L222.396 613.478C223.94 613.998 225.33 612.371 224.576 610.926L212.422 587.653Z" fill="#F2F2FB"/>
<g filter="url(#filter3_d_553_2890)">
<path d="M192.745 558.915L217.653 596.906H167.837L192.745 558.915Z" fill="#7B7FDA"/>
<path d="M192.745 558.915L217.653 596.906H167.837L192.745 558.915Z" stroke="#F2F2FB" stroke-width="5.42683"/>
</g>
<path d="M198.222 584.514H196.437V582.47H193.226V584.514H190.787L195.681 577.491H192.161L186.769 584.995V587.21H193.123V589.51H196.437V587.21H198.222V584.514Z" fill="white"/>
<defs>
<filter id="filter0_d_553_2890" x="148.366" y="7.56282" width="82.7481" height="82.7486" filterUnits="userSpaceOnUse" color-interpolation-filters="sRGB">
<feFlood flood-opacity="0" result="BackgroundImageFix"/>
<feColorMatrix in="SourceAlpha" type="matrix" values="0 0 0 0 0 0 0 0 0 0 0 0 0 0 0 0 0 0 127 0" result="hardAlpha"/>
<feOffset dy="3.43419"/>
<feGaussianBlur stdDeviation="4.29274"/>
<feComposite in2="hardAlpha" operator="out"/>
<feColorMatrix type="matrix" values="0 0 0 0 0.188235 0 0 0 0 0.0784314 0 0 0 0 0.27451 0 0 0 0.25 0"/>
<feBlend mode="normal" in2="BackgroundImageFix" result="effect1_dropShadow_553_2890"/>
<feBlend mode="normal" in="SourceGraphic" in2="effect1_dropShadow_553_2890" result="shape"/>
</filter>
<filter id="filter1_d_553_2890" x="153.975" y="186.6" width="74.963" height="74.963" filterUnits="userSpaceOnUse" color-interpolation-filters="sRGB">
<feFlood flood-opacity="0" result="BackgroundImageFix"/>
<feColorMatrix in="SourceAlpha" type="matrix" values="0 0 0 0 0 0 0 0 0 0 0 0 0 0 0 0 0 0 127 0" result="hardAlpha"/>
<feOffset dy="3.43419"/>
<feGaussianBlur stdDeviation="4.29274"/>
<feComposite in2="hardAlpha" operator="out"/>
<feColorMatrix type="matrix" values="0 0 0 0 0.188235 0 0 0 0 0.0784314 0 0 0 0 0.27451 0 0 0 0.25 0"/>
<feBlend mode="normal" in2="BackgroundImageFix" result="effect1_dropShadow_553_2890"/>
<feBlend mode="normal" in="SourceGraphic" in2="effect1_dropShadow_553_2890" result="shape"/>
</filter>
<filter id="filter2_d_553_2890" x="154.539" y="366.935" width="72.1182" height="70.6514" filterUnits="userSpaceOnUse" color-interpolation-filters="sRGB">
<feFlood flood-opacity="0" result="BackgroundImageFix"/>
<feColorMatrix in="SourceAlpha" type="matrix" values="0 0 0 0 0 0 0 0 0 0 0 0 0 0 0 0 0 0 127 0" result="hardAlpha"/>
<feOffset dy="3.43419"/>
<feGaussianBlur stdDeviation="4.29274"/>
<feComposite in2="hardAlpha" operator="out"/>
<feColorMatrix type="matrix" values="0 0 0 0 0.188235 0 0 0 0 0.0784314 0 0 0 0 0.27451 0 0 0 0.25 0"/>
<feBlend mode="normal" in2="BackgroundImageFix" result="effect1_dropShadow_553_2890"/>
<feBlend mode="normal" in="SourceGraphic" in2="effect1_dropShadow_553_2890" result="shape"/>
</filter>
<filter id="filter3_d_553_2890" x="153.769" y="548.539" width="77.9527" height="63.7423" filterUnits="userSpaceOnUse" color-interpolation-filters="sRGB">
<feFlood flood-opacity="0" result="BackgroundImageFix"/>
<feColorMatrix in="SourceAlpha" type="matrix" values="0 0 0 0 0 0 0 0 0 0 0 0 0 0 0 0 0 0 127 0" result="hardAlpha"/>
<feOffset dy="3.61789"/>
<feGaussianBlur stdDeviation="4.52236"/>
<feComposite in2="hardAlpha" operator="out"/>
<feColorMatrix type="matrix" values="0 0 0 0 0.188235 0 0 0 0 0.0784314 0 0 0 0 0.27451 0 0 0 0.25 0"/>
<feBlend mode="normal" in2="BackgroundImageFix" result="effect1_dropShadow_553_2890"/>
<feBlend mode="normal" in="SourceGraphic" in2="effect1_dropShadow_553_2890" result="shape"/>
</filter>
<linearGradient id="paint0_linear_553_2890" x1="189.74" y1="21.4636" x2="189.74" y2="69.5423" gradientUnits="userSpaceOnUse">
<stop stop-color="#FFA037"/>
<stop offset="1" stop-color="#FA7025"/>
</linearGradient>
<linearGradient id="paint1_linear_553_2890" x1="191.456" y1="196.608" x2="191.456" y2="244.686" gradientUnits="userSpaceOnUse">
<stop stop-color="#F9AD6D"/>
<stop offset="1" stop-color="#EA7052"/>
</linearGradient>
<linearGradient id="paint2_linear_553_2890" x1="190.598" y1="375.521" x2="190.598" y2="422.133" gradientUnits="userSpaceOnUse">
<stop stop-color="#7B7FDA"/>
<stop offset="1" stop-color="#7175CC"/>
</linearGradient>
</defs>
</svg>
