<svg width="1213" height="186" viewBox="0 0 1213 186" fill="none" xmlns="http://www.w3.org/2000/svg">
<rect y="48" width="282" height="138" rx="4" fill="white"/>
<path d="M29.12 89V76L30.26 77.18H26.16V75H31.72V89H29.12ZM37.3572 89.14C36.4639 89.14 35.6039 89.0267 34.7772 88.8C33.9639 88.56 33.3172 88.2733 32.8372 87.94L33.7972 86.04C34.2772 86.3467 34.8505 86.6 35.5172 86.8C36.1839 87 36.8505 87.1 37.5172 87.1C38.3039 87.1 38.8705 86.9933 39.2172 86.78C39.5772 86.5667 39.7572 86.28 39.7572 85.92C39.7572 85.6267 39.6372 85.4067 39.3972 85.26C39.1572 85.1 38.8439 84.98 38.4572 84.9C38.0705 84.82 37.6372 84.7467 37.1572 84.68C36.6905 84.6133 36.2172 84.5267 35.7372 84.42C35.2705 84.3 34.8439 84.1333 34.4572 83.92C34.0705 83.6933 33.7572 83.3933 33.5172 83.02C33.2772 82.6467 33.1572 82.1533 33.1572 81.54C33.1572 80.86 33.3505 80.2733 33.7372 79.78C34.1239 79.2733 34.6639 78.8867 35.3572 78.62C36.0639 78.34 36.8972 78.2 37.8572 78.2C38.5772 78.2 39.3039 78.28 40.0372 78.44C40.7705 78.6 41.3772 78.8267 41.8572 79.12L40.8972 81.02C40.3905 80.7133 39.8772 80.5067 39.3572 80.4C38.8505 80.28 38.3439 80.22 37.8372 80.22C37.0772 80.22 36.5105 80.3333 36.1372 80.56C35.7772 80.7867 35.5972 81.0733 35.5972 81.42C35.5972 81.74 35.7172 81.98 35.9572 82.14C36.1972 82.3 36.5105 82.4267 36.8972 82.52C37.2839 82.6133 37.7105 82.6933 38.1772 82.76C38.6572 82.8133 39.1305 82.9 39.5972 83.02C40.0639 83.14 40.4905 83.3067 40.8772 83.52C41.2772 83.72 41.5972 84.0067 41.8372 84.38C42.0772 84.7533 42.1972 85.24 42.1972 85.84C42.1972 86.5067 41.9972 87.0867 41.5972 87.58C41.2105 88.0733 40.6572 88.46 39.9372 88.74C39.2172 89.0067 38.3572 89.14 37.3572 89.14ZM47.1702 89.14C45.9968 89.14 45.0902 88.84 44.4502 88.24C43.8102 87.6267 43.4902 86.7267 43.4902 85.54V75.96H45.9902V85.48C45.9902 85.9867 46.1168 86.38 46.3702 86.66C46.6368 86.94 47.0035 87.08 47.4702 87.08C48.0302 87.08 48.4968 86.9333 48.8702 86.64L49.5702 88.42C49.2768 88.66 48.9168 88.84 48.4902 88.96C48.0635 89.08 47.6235 89.14 47.1702 89.14ZM41.7302 80.4V78.4H48.8502V80.4H41.7302ZM54.9941 89V75H60.7541C61.9941 75 63.0541 75.2 63.9341 75.6C64.8274 76 65.5141 76.5733 65.9941 77.32C66.4741 78.0667 66.7141 78.9533 66.7141 79.98C66.7141 81.0067 66.4741 81.8933 65.9941 82.64C65.5141 83.3867 64.8274 83.96 63.9341 84.36C63.0541 84.76 61.9941 84.96 60.7541 84.96H56.4341L57.5941 83.74V89H54.9941ZM57.5941 84.02L56.4341 82.76H60.6341C61.7807 82.76 62.6407 82.52 63.2141 82.04C63.8007 81.5467 64.0941 80.86 64.0941 79.98C64.0941 79.0867 63.8007 78.4 63.2141 77.92C62.6407 77.44 61.7807 77.2 60.6341 77.2H56.4341L57.5941 75.92V84.02ZM68.0658 89V74.16H70.5658V89H68.0658ZM79.227 89V86.84L79.087 86.38V82.6C79.087 81.8667 78.867 81.3 78.427 80.9C77.987 80.4867 77.3204 80.28 76.427 80.28C75.827 80.28 75.2337 80.3733 74.647 80.56C74.0737 80.7467 73.587 81.0067 73.187 81.34L72.207 79.52C72.7804 79.08 73.4604 78.7533 74.247 78.54C75.047 78.3133 75.8737 78.2 76.727 78.2C78.2737 78.2 79.467 78.5733 80.307 79.32C81.1604 80.0533 81.587 81.1933 81.587 82.74V89H79.227ZM75.867 89.14C75.067 89.14 74.367 89.0067 73.767 88.74C73.167 88.46 72.7004 88.08 72.367 87.6C72.047 87.1067 71.887 86.5533 71.887 85.94C71.887 85.34 72.027 84.8 72.307 84.32C72.6004 83.84 73.0737 83.46 73.727 83.18C74.3804 82.9 75.247 82.76 76.327 82.76H79.427V84.42H76.507C75.6537 84.42 75.0804 84.56 74.787 84.84C74.4937 85.1067 74.347 85.44 74.347 85.84C74.347 86.2933 74.527 86.6533 74.887 86.92C75.247 87.1867 75.747 87.32 76.387 87.32C77.0004 87.32 77.547 87.18 78.027 86.9C78.5204 86.62 78.8737 86.2067 79.087 85.66L79.507 87.16C79.267 87.7867 78.8337 88.2733 78.207 88.62C77.5937 88.9667 76.8137 89.14 75.867 89.14ZM88.515 89.14C87.395 89.14 86.395 88.9067 85.515 88.44C84.6483 87.96 83.9683 87.3067 83.475 86.48C82.9817 85.6533 82.735 84.7133 82.735 83.66C82.735 82.5933 82.9817 81.6533 83.475 80.84C83.9683 80.0133 84.6483 79.3667 85.515 78.9C86.395 78.4333 87.395 78.2 88.515 78.2C89.555 78.2 90.4683 78.4133 91.255 78.84C92.055 79.2533 92.6617 79.8667 93.075 80.68L91.155 81.8C90.835 81.2933 90.4417 80.92 89.975 80.68C89.5217 80.44 89.0283 80.32 88.495 80.32C87.8817 80.32 87.3283 80.4533 86.835 80.72C86.3417 80.9867 85.955 81.3733 85.675 81.88C85.395 82.3733 85.255 82.9667 85.255 83.66C85.255 84.3533 85.395 84.9533 85.675 85.46C85.955 85.9533 86.3417 86.3333 86.835 86.6C87.3283 86.8667 87.8817 87 88.495 87C89.0283 87 89.5217 86.88 89.975 86.64C90.4417 86.4 90.835 86.0267 91.155 85.52L93.075 86.64C92.6617 87.44 92.055 88.06 91.255 88.5C90.4683 88.9267 89.555 89.14 88.515 89.14ZM98.8998 89.14C97.7132 89.14 96.6732 88.9067 95.7798 88.44C94.8998 87.96 94.2132 87.3067 93.7198 86.48C93.2398 85.6533 92.9998 84.7133 92.9998 83.66C92.9998 82.5933 93.2332 81.6533 93.6998 80.84C94.1798 80.0133 94.8332 79.3667 95.6598 78.9C96.4998 78.4333 97.4532 78.2 98.5198 78.2C99.5598 78.2 100.487 78.4267 101.3 78.88C102.113 79.3333 102.753 79.9733 103.22 80.8C103.687 81.6267 103.92 82.6 103.92 83.72C103.92 83.8267 103.913 83.9467 103.9 84.08C103.9 84.2133 103.893 84.34 103.88 84.46H94.9798V82.8H102.56L101.58 83.32C101.593 82.7067 101.467 82.1667 101.2 81.7C100.933 81.2333 100.567 80.8667 100.1 80.6C99.6465 80.3333 99.1198 80.2 98.5198 80.2C97.9065 80.2 97.3665 80.3333 96.8998 80.6C96.4465 80.8667 96.0865 81.24 95.8198 81.72C95.5665 82.1867 95.4398 82.74 95.4398 83.38V83.78C95.4398 84.42 95.5865 84.9867 95.8798 85.48C96.1732 85.9733 96.5865 86.3533 97.1198 86.62C97.6532 86.8867 98.2665 87.02 98.9598 87.02C99.5598 87.02 100.1 86.9267 100.58 86.74C101.06 86.5533 101.487 86.26 101.86 85.86L103.2 87.4C102.72 87.96 102.113 88.3933 101.38 88.7C100.66 88.9933 99.8332 89.14 98.8998 89.14Z" fill="#68BC98"/>
<path d="M30.32 156V133.6H33.744L47.76 150.848H46.064V133.6H50.192V156H46.768L32.72 138.752H34.448V156H30.32ZM26.96 148.128V145.888H31.92V148.128H26.96ZM26.96 143.712V141.472H31.92V143.712H26.96ZM48.752 148.128V145.888H53.552V148.128H48.752ZM48.752 143.712V141.472H53.552V143.712H48.752ZM64.4957 156V135.2L66.3198 137.088H59.7597V133.6H68.6558V156H64.4957ZM71.3393 160.832L73.1953 153.76L73.7393 156.128C72.9926 156.128 72.3633 155.904 71.8513 155.456C71.3606 154.987 71.1153 154.357 71.1153 153.568C71.1153 152.757 71.3606 152.117 71.8513 151.648C72.3633 151.157 72.9819 150.912 73.7073 150.912C74.4539 150.912 75.0726 151.157 75.5633 151.648C76.0539 152.139 76.2993 152.779 76.2993 153.568C76.2993 153.781 76.2779 154.016 76.2353 154.272C76.1926 154.507 76.1179 154.784 76.0113 155.104C75.9259 155.424 75.7766 155.829 75.5633 156.32L73.9313 160.832H71.3393ZM86.0408 156.32C84.2701 156.32 82.6701 155.872 81.2407 154.976C79.8327 154.08 78.7234 152.779 77.9127 151.072C77.1021 149.344 76.6967 147.253 76.6967 144.8C76.6967 142.347 77.1021 140.267 77.9127 138.56C78.7234 136.832 79.8327 135.52 81.2407 134.624C82.6701 133.728 84.2701 133.28 86.0408 133.28C87.8328 133.28 89.4328 133.728 90.8408 134.624C92.2488 135.52 93.3581 136.832 94.1688 138.56C95.0008 140.267 95.4167 142.347 95.4167 144.8C95.4167 147.253 95.0008 149.344 94.1688 151.072C93.3581 152.779 92.2488 154.08 90.8408 154.976C89.4328 155.872 87.8328 156.32 86.0408 156.32ZM86.0408 152.704C87.0861 152.704 87.9928 152.427 88.7608 151.872C89.5288 151.296 90.1261 150.421 90.5528 149.248C91.0008 148.075 91.2248 146.592 91.2248 144.8C91.2248 142.987 91.0008 141.504 90.5528 140.352C90.1261 139.179 89.5288 138.315 88.7608 137.76C87.9928 137.184 87.0861 136.896 86.0408 136.896C85.0381 136.896 84.1421 137.184 83.3527 137.76C82.5847 138.315 81.9767 139.179 81.5287 140.352C81.1021 141.504 80.8888 142.987 80.8888 144.8C80.8888 146.592 81.1021 148.075 81.5287 149.248C81.9767 150.421 82.5847 151.296 83.3527 151.872C84.1421 152.427 85.0381 152.704 86.0408 152.704ZM105.652 156.32C103.881 156.32 102.281 155.872 100.852 154.976C99.444 154.08 98.3347 152.779 97.524 151.072C96.7133 149.344 96.308 147.253 96.308 144.8C96.308 142.347 96.7133 140.267 97.524 138.56C98.3347 136.832 99.444 135.52 100.852 134.624C102.281 133.728 103.881 133.28 105.652 133.28C107.444 133.28 109.044 133.728 110.452 134.624C111.86 135.52 112.969 136.832 113.78 138.56C114.612 140.267 115.028 142.347 115.028 144.8C115.028 147.253 114.612 149.344 113.78 151.072C112.969 152.779 111.86 154.08 110.452 154.976C109.044 155.872 107.444 156.32 105.652 156.32ZM105.652 152.704C106.697 152.704 107.604 152.427 108.372 151.872C109.14 151.296 109.737 150.421 110.164 149.248C110.612 148.075 110.836 146.592 110.836 144.8C110.836 142.987 110.612 141.504 110.164 140.352C109.737 139.179 109.14 138.315 108.372 137.76C107.604 137.184 106.697 136.896 105.652 136.896C104.649 136.896 103.753 137.184 102.964 137.76C102.196 138.315 101.588 139.179 101.14 140.352C100.713 141.504 100.5 142.987 100.5 144.8C100.5 146.592 100.713 148.075 101.14 149.248C101.588 150.421 102.196 151.296 102.964 151.872C103.753 152.427 104.649 152.704 105.652 152.704ZM125.263 156.32C123.493 156.32 121.893 155.872 120.463 154.976C119.055 154.08 117.946 152.779 117.135 151.072C116.325 149.344 115.919 147.253 115.919 144.8C115.919 142.347 116.325 140.267 117.135 138.56C117.946 136.832 119.055 135.52 120.463 134.624C121.893 133.728 123.493 133.28 125.263 133.28C127.055 133.28 128.655 133.728 130.063 134.624C131.471 135.52 132.581 136.832 133.391 138.56C134.223 140.267 134.639 142.347 134.639 144.8C134.639 147.253 134.223 149.344 133.391 151.072C132.581 152.779 131.471 154.08 130.063 154.976C128.655 155.872 127.055 156.32 125.263 156.32ZM125.263 152.704C126.309 152.704 127.215 152.427 127.983 151.872C128.751 151.296 129.349 150.421 129.775 149.248C130.223 148.075 130.447 146.592 130.447 144.8C130.447 142.987 130.223 141.504 129.775 140.352C129.349 139.179 128.751 138.315 127.983 137.76C127.215 137.184 126.309 136.896 125.263 136.896C124.261 136.896 123.365 137.184 122.575 137.76C121.807 138.315 121.199 139.179 120.751 140.352C120.325 141.504 120.111 142.987 120.111 144.8C120.111 146.592 120.325 148.075 120.751 149.248C121.199 150.421 121.807 151.296 122.575 151.872C123.365 152.427 124.261 152.704 125.263 152.704ZM135.315 160.832L137.171 153.76L137.715 156.128C136.969 156.128 136.339 155.904 135.827 155.456C135.337 154.987 135.091 154.357 135.091 153.568C135.091 152.757 135.337 152.117 135.827 151.648C136.339 151.157 136.958 150.912 137.683 150.912C138.43 150.912 139.049 151.157 139.539 151.648C140.03 152.139 140.275 152.779 140.275 153.568C140.275 153.781 140.254 154.016 140.211 154.272C140.169 154.507 140.094 154.784 139.987 155.104C139.902 155.424 139.753 155.829 139.539 156.32L137.907 160.832H135.315ZM150.017 156.32C148.246 156.32 146.646 155.872 145.217 154.976C143.809 154.08 142.7 152.779 141.889 151.072C141.078 149.344 140.673 147.253 140.673 144.8C140.673 142.347 141.078 140.267 141.889 138.56C142.7 136.832 143.809 135.52 145.217 134.624C146.646 133.728 148.246 133.28 150.017 133.28C151.809 133.28 153.409 133.728 154.817 134.624C156.225 135.52 157.334 136.832 158.145 138.56C158.977 140.267 159.393 142.347 159.393 144.8C159.393 147.253 158.977 149.344 158.145 151.072C157.334 152.779 156.225 154.08 154.817 154.976C153.409 155.872 151.809 156.32 150.017 156.32ZM150.017 152.704C151.062 152.704 151.969 152.427 152.737 151.872C153.505 151.296 154.102 150.421 154.529 149.248C154.977 148.075 155.201 146.592 155.201 144.8C155.201 142.987 154.977 141.504 154.529 140.352C154.102 139.179 153.505 138.315 152.737 137.76C151.969 137.184 151.062 136.896 150.017 136.896C149.014 136.896 148.118 137.184 147.329 137.76C146.561 138.315 145.953 139.179 145.505 140.352C145.078 141.504 144.865 142.987 144.865 144.8C144.865 146.592 145.078 148.075 145.505 149.248C145.953 150.421 146.561 151.296 147.329 151.872C148.118 152.427 149.014 152.704 150.017 152.704ZM169.628 156.32C167.858 156.32 166.258 155.872 164.828 154.976C163.42 154.08 162.311 152.779 161.5 151.072C160.69 149.344 160.284 147.253 160.284 144.8C160.284 142.347 160.69 140.267 161.5 138.56C162.311 136.832 163.42 135.52 164.828 134.624C166.258 133.728 167.858 133.28 169.628 133.28C171.42 133.28 173.02 133.728 174.428 134.624C175.836 135.52 176.946 136.832 177.756 138.56C178.588 140.267 179.004 142.347 179.004 144.8C179.004 147.253 178.588 149.344 177.756 151.072C176.946 152.779 175.836 154.08 174.428 154.976C173.02 155.872 171.42 156.32 169.628 156.32ZM169.628 152.704C170.674 152.704 171.58 152.427 172.348 151.872C173.116 151.296 173.714 150.421 174.14 149.248C174.588 148.075 174.812 146.592 174.812 144.8C174.812 142.987 174.588 141.504 174.14 140.352C173.714 139.179 173.116 138.315 172.348 137.76C171.58 137.184 170.674 136.896 169.628 136.896C168.626 136.896 167.73 137.184 166.94 137.76C166.172 138.315 165.564 139.179 165.116 140.352C164.69 141.504 164.476 142.987 164.476 144.8C164.476 146.592 164.69 148.075 165.116 149.248C165.564 150.421 166.172 151.296 166.94 151.872C167.73 152.427 168.626 152.704 169.628 152.704ZM189.24 156.32C187.469 156.32 185.869 155.872 184.44 154.976C183.032 154.08 181.922 152.779 181.112 151.072C180.301 149.344 179.896 147.253 179.896 144.8C179.896 142.347 180.301 140.267 181.112 138.56C181.922 136.832 183.032 135.52 184.44 134.624C185.869 133.728 187.469 133.28 189.24 133.28C191.032 133.28 192.632 133.728 194.04 134.624C195.448 135.52 196.557 136.832 197.368 138.56C198.2 140.267 198.616 142.347 198.616 144.8C198.616 147.253 198.2 149.344 197.368 151.072C196.557 152.779 195.448 154.08 194.04 154.976C192.632 155.872 191.032 156.32 189.24 156.32ZM189.24 152.704C190.285 152.704 191.192 152.427 191.96 151.872C192.728 151.296 193.325 150.421 193.752 149.248C194.2 148.075 194.424 146.592 194.424 144.8C194.424 142.987 194.2 141.504 193.752 140.352C193.325 139.179 192.728 138.315 191.96 137.76C191.192 137.184 190.285 136.896 189.24 136.896C188.237 136.896 187.341 137.184 186.552 137.76C185.784 138.315 185.176 139.179 184.728 140.352C184.301 141.504 184.088 142.987 184.088 144.8C184.088 146.592 184.301 148.075 184.728 149.248C185.176 150.421 185.784 151.296 186.552 151.872C187.341 152.427 188.237 152.704 189.24 152.704Z" fill="#301446"/>
<path d="M206.693 2.7941C207.339 1.90764 208.661 1.90764 209.307 2.7941L221.149 19.0526C221.506 19.5428 222.108 19.792 222.707 19.6978L242.577 16.575C243.66 16.4048 244.595 17.3397 244.425 18.4231L241.302 38.2933C241.208 38.8924 241.457 39.4939 241.947 39.851L258.206 51.6932C259.092 52.3389 259.092 53.6611 258.206 54.3068L241.947 66.149C241.457 66.5061 241.208 67.1076 241.302 67.7067L244.425 87.5769C244.595 88.6603 243.66 89.5952 242.577 89.425L222.707 86.3022C222.108 86.208 221.506 86.4572 221.149 86.9474L209.307 103.206C208.661 104.092 207.339 104.092 206.693 103.206L194.851 86.9474C194.494 86.4572 193.892 86.208 193.293 86.3022L173.423 89.425C172.34 89.5952 171.405 88.6603 171.575 87.5769L174.698 67.7067C174.792 67.1076 174.543 66.5061 174.053 66.149L157.794 54.3068C156.908 53.6611 156.908 52.3389 157.794 51.6932L174.053 39.851C174.543 39.4939 174.792 38.8924 174.698 38.2933L171.575 18.4231C171.405 17.3397 172.34 16.4048 173.423 16.575L193.293 19.6978C193.892 19.792 194.494 19.5428 194.851 19.0526L206.693 2.7941Z" fill="white"/>
<path d="M185.738 63.7728C186.25 62.7937 187.458 62.4145 188.437 62.9258L206.165 72.1837C207.144 72.695 207.523 73.9032 207.012 74.8823L193.575 100.614C192.741 102.211 190.386 101.977 189.882 100.248L187.006 90.3855C186.688 89.2943 185.526 88.6873 184.448 89.0498L174.712 92.3256C173.004 92.9001 171.467 91.1012 172.301 89.5043L185.738 63.7728Z" fill="#7B7FDA"/>
<path d="M230.2 63.7728C229.688 62.7937 228.48 62.4145 227.501 62.9258L209.773 72.1837C208.794 72.695 208.414 73.9032 208.926 74.8823L222.363 100.614C223.197 102.211 225.552 101.977 226.056 100.248L228.932 90.3855C229.25 89.2943 230.412 88.6873 231.49 89.0498L241.226 92.3256C242.934 92.9001 244.471 91.1012 243.637 89.5043L230.2 63.7728Z" fill="#7B7FDA"/>
<g filter="url(#filter0_d_553_1741)">
<path d="M208 26L215.393 36.1506L227.799 34.201L225.849 46.6066L236 54L225.849 61.3934L227.799 73.799L215.393 71.8493L208 82L200.607 71.8493L188.201 73.799L190.151 61.3934L180 54L190.151 46.6066L188.201 34.201L200.607 36.1506L208 26Z" fill="#68BC98"/>
<path d="M210.425 24.2337L208 20.9045L205.575 24.2337L199.261 32.9024L188.667 31.2374L184.598 30.5979L185.237 34.6668L186.902 45.2611L178.234 51.5751L174.904 54L178.234 56.4249L186.902 62.7389L185.237 73.3332L184.598 77.4021L188.667 76.7626L199.261 75.0976L205.575 83.7663L208 87.0955L210.425 83.7663L216.739 75.0976L227.333 76.7626L231.402 77.4021L230.763 73.3332L229.098 62.7389L237.766 56.4249L241.096 54L237.766 51.5751L229.098 45.2611L230.763 34.6668L231.402 30.5979L227.333 31.2374L216.739 32.9024L210.425 24.2337Z" stroke="url(#paint0_linear_553_1741)" stroke-width="6"/>
</g>
<path d="M204.12 47V50.06H206.72V61H210.68V47H204.12Z" fill="white"/>
<rect x="306" y="48" width="282" height="138" rx="4" fill="white"/>
<path d="M332.7 89V87.26L338.26 81.98C338.727 81.54 339.073 81.1533 339.3 80.82C339.527 80.4867 339.673 80.18 339.74 79.9C339.82 79.6067 339.86 79.3333 339.86 79.08C339.86 78.44 339.64 77.9467 339.2 77.6C338.76 77.24 338.113 77.06 337.26 77.06C336.58 77.06 335.96 77.18 335.4 77.42C334.853 77.66 334.38 78.0267 333.98 78.52L332.16 77.12C332.707 76.3867 333.44 75.82 334.36 75.42C335.293 75.0067 336.333 74.8 337.48 74.8C338.493 74.8 339.373 74.9667 340.12 75.3C340.88 75.62 341.46 76.08 341.86 76.68C342.273 77.28 342.48 77.9933 342.48 78.82C342.48 79.2733 342.42 79.7267 342.3 80.18C342.18 80.62 341.953 81.0867 341.62 81.58C341.287 82.0733 340.8 82.6267 340.16 83.24L335.38 87.78L334.84 86.8H343.02V89H332.7ZM350.141 78.2C350.994 78.2 351.754 78.3667 352.421 78.7C353.101 79.0333 353.634 79.5467 354.021 80.24C354.407 80.92 354.601 81.8 354.601 82.88V89H352.101V83.2C352.101 82.2533 351.874 81.5467 351.421 81.08C350.981 80.6133 350.361 80.38 349.561 80.38C348.974 80.38 348.454 80.5 348.001 80.74C347.547 80.98 347.194 81.34 346.941 81.82C346.701 82.2867 346.581 82.88 346.581 83.6V89H344.081V78.32H346.461V81.2L346.041 80.32C346.414 79.64 346.954 79.12 347.661 78.76C348.381 78.3867 349.207 78.2 350.141 78.2ZM361.112 89.14C360.085 89.14 359.158 88.9133 358.332 88.46C357.518 87.9933 356.878 87.3533 356.412 86.54C355.945 85.7267 355.712 84.7667 355.712 83.66C355.712 82.5533 355.945 81.5933 356.412 80.78C356.878 79.9667 357.518 79.3333 358.332 78.88C359.158 78.4267 360.085 78.2 361.112 78.2C362.005 78.2 362.805 78.4 363.512 78.8C364.218 79.1867 364.778 79.78 365.192 80.58C365.605 81.38 365.812 82.4067 365.812 83.66C365.812 84.9 365.612 85.9267 365.212 86.74C364.812 87.54 364.258 88.14 363.552 88.54C362.845 88.94 362.032 89.14 361.112 89.14ZM361.412 87C362.012 87 362.545 86.8667 363.012 86.6C363.492 86.3333 363.872 85.9467 364.152 85.44C364.445 84.9333 364.592 84.34 364.592 83.66C364.592 82.9667 364.445 82.3733 364.152 81.88C363.872 81.3733 363.492 80.9867 363.012 80.72C362.545 80.4533 362.012 80.32 361.412 80.32C360.812 80.32 360.272 80.4533 359.792 80.72C359.325 80.9867 358.945 81.3733 358.652 81.88C358.372 82.3733 358.232 82.9667 358.232 83.66C358.232 84.34 358.372 84.9333 358.652 85.44C358.945 85.9467 359.325 86.3333 359.792 86.6C360.272 86.8667 360.812 87 361.412 87ZM364.652 89V86.48L364.752 83.64L364.552 80.8V74.16H367.032V89H364.652ZM373.689 89V75H379.449C380.689 75 381.749 75.2 382.629 75.6C383.523 76 384.209 76.5733 384.689 77.32C385.169 78.0667 385.409 78.9533 385.409 79.98C385.409 81.0067 385.169 81.8933 384.689 82.64C384.209 83.3867 383.523 83.96 382.629 84.36C381.749 84.76 380.689 84.96 379.449 84.96H375.129L376.289 83.74V89H373.689ZM376.289 84.02L375.129 82.76H379.329C380.476 82.76 381.336 82.52 381.909 82.04C382.496 81.5467 382.789 80.86 382.789 79.98C382.789 79.0867 382.496 78.4 381.909 77.92C381.336 77.44 380.476 77.2 379.329 77.2H375.129L376.289 75.92V84.02ZM386.761 89V74.16H389.261V89H386.761ZM397.922 89V86.84L397.782 86.38V82.6C397.782 81.8667 397.562 81.3 397.122 80.9C396.682 80.4867 396.016 80.28 395.122 80.28C394.522 80.28 393.929 80.3733 393.342 80.56C392.769 80.7467 392.282 81.0067 391.882 81.34L390.902 79.52C391.476 79.08 392.156 78.7533 392.942 78.54C393.742 78.3133 394.569 78.2 395.422 78.2C396.969 78.2 398.162 78.5733 399.002 79.32C399.856 80.0533 400.282 81.1933 400.282 82.74V89H397.922ZM394.562 89.14C393.762 89.14 393.062 89.0067 392.462 88.74C391.862 88.46 391.396 88.08 391.062 87.6C390.742 87.1067 390.582 86.5533 390.582 85.94C390.582 85.34 390.722 84.8 391.002 84.32C391.296 83.84 391.769 83.46 392.422 83.18C393.076 82.9 393.942 82.76 395.022 82.76H398.122V84.42H395.202C394.349 84.42 393.776 84.56 393.482 84.84C393.189 85.1067 393.042 85.44 393.042 85.84C393.042 86.2933 393.222 86.6533 393.582 86.92C393.942 87.1867 394.442 87.32 395.082 87.32C395.696 87.32 396.242 87.18 396.722 86.9C397.216 86.62 397.569 86.2067 397.782 85.66L398.202 87.16C397.962 87.7867 397.529 88.2733 396.902 88.62C396.289 88.9667 395.509 89.14 394.562 89.14ZM407.21 89.14C406.09 89.14 405.09 88.9067 404.21 88.44C403.344 87.96 402.664 87.3067 402.17 86.48C401.677 85.6533 401.43 84.7133 401.43 83.66C401.43 82.5933 401.677 81.6533 402.17 80.84C402.664 80.0133 403.344 79.3667 404.21 78.9C405.09 78.4333 406.09 78.2 407.21 78.2C408.25 78.2 409.164 78.4133 409.95 78.84C410.75 79.2533 411.357 79.8667 411.77 80.68L409.85 81.8C409.53 81.2933 409.137 80.92 408.67 80.68C408.217 80.44 407.724 80.32 407.19 80.32C406.577 80.32 406.024 80.4533 405.53 80.72C405.037 80.9867 404.65 81.3733 404.37 81.88C404.09 82.3733 403.95 82.9667 403.95 83.66C403.95 84.3533 404.09 84.9533 404.37 85.46C404.65 85.9533 405.037 86.3333 405.53 86.6C406.024 86.8667 406.577 87 407.19 87C407.724 87 408.217 86.88 408.67 86.64C409.137 86.4 409.53 86.0267 409.85 85.52L411.77 86.64C411.357 87.44 410.75 88.06 409.95 88.5C409.164 88.9267 408.25 89.14 407.21 89.14ZM417.595 89.14C416.408 89.14 415.368 88.9067 414.475 88.44C413.595 87.96 412.908 87.3067 412.415 86.48C411.935 85.6533 411.695 84.7133 411.695 83.66C411.695 82.5933 411.928 81.6533 412.395 80.84C412.875 80.0133 413.528 79.3667 414.355 78.9C415.195 78.4333 416.148 78.2 417.215 78.2C418.255 78.2 419.182 78.4267 419.995 78.88C420.808 79.3333 421.448 79.9733 421.915 80.8C422.382 81.6267 422.615 82.6 422.615 83.72C422.615 83.8267 422.608 83.9467 422.595 84.08C422.595 84.2133 422.588 84.34 422.575 84.46H413.675V82.8H421.255L420.275 83.32C420.288 82.7067 420.162 82.1667 419.895 81.7C419.628 81.2333 419.262 80.8667 418.795 80.6C418.342 80.3333 417.815 80.2 417.215 80.2C416.602 80.2 416.062 80.3333 415.595 80.6C415.142 80.8667 414.782 81.24 414.515 81.72C414.262 82.1867 414.135 82.74 414.135 83.38V83.78C414.135 84.42 414.282 84.9867 414.575 85.48C414.868 85.9733 415.282 86.3533 415.815 86.62C416.348 86.8867 416.962 87.02 417.655 87.02C418.255 87.02 418.795 86.9267 419.275 86.74C419.755 86.5533 420.182 86.26 420.555 85.86L421.895 87.4C421.415 87.96 420.808 88.3933 420.075 88.7C419.355 88.9933 418.528 89.14 417.595 89.14Z" fill="#7B7FDA"/>
<path d="M336.32 156V133.6H339.744L353.76 150.848H352.064V133.6H356.192V156H352.768L338.72 138.752H340.448V156H336.32ZM332.96 148.128V145.888H337.92V148.128H332.96ZM332.96 143.712V141.472H337.92V143.712H332.96ZM354.752 148.128V145.888H359.552V148.128H354.752ZM354.752 143.712V141.472H359.552V143.712H354.752ZM366.624 156V153.216L375.52 144.768C376.266 144.064 376.821 143.445 377.184 142.912C377.546 142.379 377.781 141.888 377.888 141.44C378.016 140.971 378.08 140.533 378.08 140.128C378.08 139.104 377.728 138.315 377.024 137.76C376.32 137.184 375.285 136.896 373.92 136.896C372.832 136.896 371.84 137.088 370.944 137.472C370.069 137.856 369.312 138.443 368.672 139.232L365.76 136.992C366.634 135.819 367.808 134.912 369.28 134.272C370.773 133.611 372.437 133.28 374.272 133.28C375.893 133.28 377.301 133.547 378.496 134.08C379.712 134.592 380.64 135.328 381.28 136.288C381.941 137.248 382.272 138.389 382.272 139.712C382.272 140.437 382.176 141.163 381.984 141.888C381.792 142.592 381.429 143.339 380.896 144.128C380.362 144.917 379.584 145.803 378.56 146.784L370.912 154.048L370.048 152.48H383.136V156H366.624ZM391.041 156.32C389.462 156.32 387.915 156.096 386.401 155.648C384.907 155.179 383.649 154.539 382.625 153.728L384.385 150.496C385.195 151.157 386.177 151.691 387.329 152.096C388.502 152.501 389.718 152.704 390.977 152.704C392.449 152.704 393.601 152.395 394.433 151.776C395.286 151.157 395.713 150.325 395.713 149.28C395.713 148.576 395.531 147.957 395.169 147.424C394.827 146.891 394.209 146.485 393.313 146.208C392.438 145.931 391.233 145.792 389.697 145.792H384.289L385.441 133.6H398.593V137.088H386.977L389.153 135.104L388.289 144.224L386.113 142.272H390.625C392.843 142.272 394.625 142.571 395.969 143.168C397.334 143.744 398.326 144.555 398.945 145.6C399.585 146.624 399.905 147.797 399.905 149.12C399.905 150.421 399.585 151.616 398.945 152.704C398.305 153.792 397.323 154.667 396.001 155.328C394.699 155.989 393.046 156.32 391.041 156.32ZM409.728 156.32C407.958 156.32 406.358 155.872 404.928 154.976C403.52 154.08 402.411 152.779 401.6 151.072C400.79 149.344 400.384 147.253 400.384 144.8C400.384 142.347 400.79 140.267 401.6 138.56C402.411 136.832 403.52 135.52 404.928 134.624C406.358 133.728 407.958 133.28 409.728 133.28C411.52 133.28 413.12 133.728 414.528 134.624C415.936 135.52 417.046 136.832 417.856 138.56C418.688 140.267 419.104 142.347 419.104 144.8C419.104 147.253 418.688 149.344 417.856 151.072C417.046 152.779 415.936 154.08 414.528 154.976C413.12 155.872 411.52 156.32 409.728 156.32ZM409.728 152.704C410.774 152.704 411.68 152.427 412.448 151.872C413.216 151.296 413.814 150.421 414.24 149.248C414.688 148.075 414.912 146.592 414.912 144.8C414.912 142.987 414.688 141.504 414.24 140.352C413.814 139.179 413.216 138.315 412.448 137.76C411.68 137.184 410.774 136.896 409.728 136.896C408.726 136.896 407.83 137.184 407.04 137.76C406.272 138.315 405.664 139.179 405.216 140.352C404.79 141.504 404.576 142.987 404.576 144.8C404.576 146.592 404.79 148.075 405.216 149.248C405.664 150.421 406.272 151.296 407.04 151.872C407.83 152.427 408.726 152.704 409.728 152.704ZM419.781 160.832L421.637 153.76L422.181 156.128C421.434 156.128 420.805 155.904 420.293 155.456C419.802 154.987 419.557 154.357 419.557 153.568C419.557 152.757 419.802 152.117 420.293 151.648C420.805 151.157 421.423 150.912 422.149 150.912C422.895 150.912 423.514 151.157 424.005 151.648C424.495 152.139 424.741 152.779 424.741 153.568C424.741 153.781 424.719 154.016 424.677 154.272C424.634 154.507 424.559 154.784 424.453 155.104C424.367 155.424 424.218 155.829 424.005 156.32L422.373 160.832H419.781ZM434.482 156.32C432.711 156.32 431.111 155.872 429.682 154.976C428.274 154.08 427.165 152.779 426.354 151.072C425.543 149.344 425.138 147.253 425.138 144.8C425.138 142.347 425.543 140.267 426.354 138.56C427.165 136.832 428.274 135.52 429.682 134.624C431.111 133.728 432.711 133.28 434.482 133.28C436.274 133.28 437.874 133.728 439.282 134.624C440.69 135.52 441.799 136.832 442.61 138.56C443.442 140.267 443.858 142.347 443.858 144.8C443.858 147.253 443.442 149.344 442.61 151.072C441.799 152.779 440.69 154.08 439.282 154.976C437.874 155.872 436.274 156.32 434.482 156.32ZM434.482 152.704C435.527 152.704 436.434 152.427 437.202 151.872C437.97 151.296 438.567 150.421 438.994 149.248C439.442 148.075 439.666 146.592 439.666 144.8C439.666 142.987 439.442 141.504 438.994 140.352C438.567 139.179 437.97 138.315 437.202 137.76C436.434 137.184 435.527 136.896 434.482 136.896C433.479 136.896 432.583 137.184 431.794 137.76C431.026 138.315 430.418 139.179 429.97 140.352C429.543 141.504 429.33 142.987 429.33 144.8C429.33 146.592 429.543 148.075 429.97 149.248C430.418 150.421 431.026 151.296 431.794 151.872C432.583 152.427 433.479 152.704 434.482 152.704ZM454.093 156.32C452.323 156.32 450.723 155.872 449.293 154.976C447.885 154.08 446.776 152.779 445.965 151.072C445.155 149.344 444.749 147.253 444.749 144.8C444.749 142.347 445.155 140.267 445.965 138.56C446.776 136.832 447.885 135.52 449.293 134.624C450.723 133.728 452.323 133.28 454.093 133.28C455.885 133.28 457.485 133.728 458.893 134.624C460.301 135.52 461.411 136.832 462.221 138.56C463.053 140.267 463.469 142.347 463.469 144.8C463.469 147.253 463.053 149.344 462.221 151.072C461.411 152.779 460.301 154.08 458.893 154.976C457.485 155.872 455.885 156.32 454.093 156.32ZM454.093 152.704C455.139 152.704 456.045 152.427 456.813 151.872C457.581 151.296 458.179 150.421 458.605 149.248C459.053 148.075 459.277 146.592 459.277 144.8C459.277 142.987 459.053 141.504 458.605 140.352C458.179 139.179 457.581 138.315 456.813 137.76C456.045 137.184 455.139 136.896 454.093 136.896C453.091 136.896 452.195 137.184 451.405 137.76C450.637 138.315 450.029 139.179 449.581 140.352C449.155 141.504 448.941 142.987 448.941 144.8C448.941 146.592 449.155 148.075 449.581 149.248C450.029 150.421 450.637 151.296 451.405 151.872C452.195 152.427 453.091 152.704 454.093 152.704ZM473.705 156.32C471.934 156.32 470.334 155.872 468.904 154.976C467.496 154.08 466.387 152.779 465.576 151.072C464.766 149.344 464.36 147.253 464.36 144.8C464.36 142.347 464.766 140.267 465.576 138.56C466.387 136.832 467.496 135.52 468.904 134.624C470.334 133.728 471.934 133.28 473.705 133.28C475.497 133.28 477.097 133.728 478.505 134.624C479.913 135.52 481.022 136.832 481.833 138.56C482.664 140.267 483.08 142.347 483.08 144.8C483.08 147.253 482.664 149.344 481.833 151.072C481.022 152.779 479.913 154.08 478.505 154.976C477.097 155.872 475.497 156.32 473.705 156.32ZM473.705 152.704C474.75 152.704 475.657 152.427 476.425 151.872C477.193 151.296 477.79 150.421 478.217 149.248C478.665 148.075 478.889 146.592 478.889 144.8C478.889 142.987 478.665 141.504 478.217 140.352C477.79 139.179 477.193 138.315 476.425 137.76C475.657 137.184 474.75 136.896 473.705 136.896C472.702 136.896 471.806 137.184 471.016 137.76C470.248 138.315 469.64 139.179 469.192 140.352C468.766 141.504 468.552 142.987 468.552 144.8C468.552 146.592 468.766 148.075 469.192 149.248C469.64 150.421 470.248 151.296 471.016 151.872C471.806 152.427 472.702 152.704 473.705 152.704Z" fill="#301446"/>
<path d="M514.586 2.41421C515.367 1.63316 516.633 1.63317 517.414 2.41421L562.586 47.5858C563.367 48.3668 563.367 49.6332 562.586 50.4142L517.414 95.5858C516.633 96.3668 515.367 96.3668 514.586 95.5858L469.414 50.4142C468.633 49.6332 468.633 48.3668 469.414 47.5858L514.586 2.41421Z" fill="white"/>
<path d="M493.739 54.7728C494.25 53.7937 495.458 53.4145 496.437 53.9258L514.165 63.1837C515.145 63.695 515.524 64.9032 515.012 65.8823L501.575 91.6137C500.741 93.2107 498.387 92.9774 497.882 91.2478L495.006 81.3855C494.688 80.2943 493.526 79.6873 492.449 80.0498L482.712 83.3256C481.004 83.9001 479.467 82.1012 480.301 80.5043L493.739 54.7728Z" fill="#7B7FDA"/>
<path d="M538.2 54.7728C537.688 53.7937 536.48 53.4145 535.501 53.9258L517.773 63.1837C516.794 63.695 516.414 64.9032 516.926 65.8823L530.363 91.6137C531.197 93.2107 533.552 92.9774 534.056 91.2478L536.932 81.3855C537.25 80.2943 538.412 79.6873 539.49 80.0498L549.226 83.3256C550.934 83.9001 552.471 82.1012 551.637 80.5043L538.2 54.7728Z" fill="#7B7FDA"/>
<g filter="url(#filter1_d_553_1741)">
<path d="M516 21L544 49L516 77L488 49L516 21Z" fill="#7B7FDA"/>
<path d="M516 21L544 49L516 77L488 49L516 21Z" stroke="url(#paint1_linear_553_1741)" stroke-width="8"/>
</g>
<path d="M516.1 52.86L518.74 50.42C520.74 48.58 521.12 47.34 521.12 45.98C521.12 43.38 518.9 41.72 515.68 41.72C512.92 41.72 510.94 42.88 509.88 44.64L512.82 46.28C513.38 45.38 514.3 44.92 515.32 44.92C516.52 44.92 517.12 45.46 517.12 46.36C517.12 46.94 516.96 47.58 515.84 48.62L510.6 53.52V56H521.5V52.86H516.1Z" fill="white"/>
<rect x="612" y="48" width="282" height="138" rx="4" fill="white"/>
<path d="M641.28 89.2C640.293 89.2 639.327 89.06 638.38 88.78C637.447 88.4867 636.66 88.0867 636.02 87.58L637.14 85.56C637.647 85.9733 638.26 86.3067 638.98 86.56C639.7 86.8133 640.453 86.94 641.24 86.94C642.173 86.94 642.9 86.7533 643.42 86.38C643.94 85.9933 644.2 85.4733 644.2 84.82C644.2 84.18 643.96 83.6733 643.48 83.3C643 82.9267 642.227 82.74 641.16 82.74H639.88V80.96L643.88 76.2L644.22 77.18H636.7V75H646.24V76.74L642.24 81.5L640.88 80.7H641.66C643.38 80.7 644.667 81.0867 645.52 81.86C646.387 82.62 646.82 83.6 646.82 84.8C646.82 85.5867 646.62 86.3133 646.22 86.98C645.82 87.6467 645.207 88.1867 644.38 88.6C643.567 89 642.533 89.2 641.28 89.2ZM648.081 89V78.32H650.461V81.26L650.181 80.4C650.501 79.68 651.001 79.1333 651.681 78.76C652.374 78.3867 653.234 78.2 654.261 78.2V80.58C654.154 80.5533 654.054 80.54 653.961 80.54C653.867 80.5267 653.774 80.52 653.681 80.52C652.734 80.52 651.981 80.8 651.421 81.36C650.861 81.9067 650.581 82.7267 650.581 83.82V89H648.081ZM659.604 89.14C658.577 89.14 657.65 88.9133 656.824 88.46C656.01 87.9933 655.37 87.3533 654.904 86.54C654.437 85.7267 654.204 84.7667 654.204 83.66C654.204 82.5533 654.437 81.5933 654.904 80.78C655.37 79.9667 656.01 79.3333 656.824 78.88C657.65 78.4267 658.577 78.2 659.604 78.2C660.497 78.2 661.297 78.4 662.004 78.8C662.71 79.1867 663.27 79.78 663.684 80.58C664.097 81.38 664.304 82.4067 664.304 83.66C664.304 84.9 664.104 85.9267 663.704 86.74C663.304 87.54 662.75 88.14 662.044 88.54C661.337 88.94 660.524 89.14 659.604 89.14ZM659.904 87C660.504 87 661.037 86.8667 661.504 86.6C661.984 86.3333 662.364 85.9467 662.644 85.44C662.937 84.9333 663.084 84.34 663.084 83.66C663.084 82.9667 662.937 82.3733 662.644 81.88C662.364 81.3733 661.984 80.9867 661.504 80.72C661.037 80.4533 660.504 80.32 659.904 80.32C659.304 80.32 658.764 80.4533 658.284 80.72C657.817 80.9867 657.437 81.3733 657.144 81.88C656.864 82.3733 656.724 82.9667 656.724 83.66C656.724 84.34 656.864 84.9333 657.144 85.44C657.437 85.9467 657.817 86.3333 658.284 86.6C658.764 86.8667 659.304 87 659.904 87ZM663.144 89V86.48L663.244 83.64L663.044 80.8V74.16H665.524V89H663.144ZM672.182 89V75H677.942C679.182 75 680.242 75.2 681.122 75.6C682.015 76 682.702 76.5733 683.182 77.32C683.662 78.0667 683.902 78.9533 683.902 79.98C683.902 81.0067 683.662 81.8933 683.182 82.64C682.702 83.3867 682.015 83.96 681.122 84.36C680.242 84.76 679.182 84.96 677.942 84.96H673.622L674.782 83.74V89H672.182ZM674.782 84.02L673.622 82.76H677.822C678.968 82.76 679.828 82.52 680.402 82.04C680.988 81.5467 681.282 80.86 681.282 79.98C681.282 79.0867 680.988 78.4 680.402 77.92C679.828 77.44 678.968 77.2 677.822 77.2H673.622L674.782 75.92V84.02ZM685.253 89V74.16H687.753V89H685.253ZM696.415 89V86.84L696.275 86.38V82.6C696.275 81.8667 696.055 81.3 695.615 80.9C695.175 80.4867 694.508 80.28 693.615 80.28C693.015 80.28 692.421 80.3733 691.835 80.56C691.261 80.7467 690.775 81.0067 690.375 81.34L689.395 79.52C689.968 79.08 690.648 78.7533 691.435 78.54C692.235 78.3133 693.061 78.2 693.915 78.2C695.461 78.2 696.655 78.5733 697.495 79.32C698.348 80.0533 698.775 81.1933 698.775 82.74V89H696.415ZM693.055 89.14C692.255 89.14 691.555 89.0067 690.955 88.74C690.355 88.46 689.888 88.08 689.555 87.6C689.235 87.1067 689.075 86.5533 689.075 85.94C689.075 85.34 689.215 84.8 689.495 84.32C689.788 83.84 690.261 83.46 690.915 83.18C691.568 82.9 692.435 82.76 693.515 82.76H696.615V84.42H693.695C692.841 84.42 692.268 84.56 691.975 84.84C691.681 85.1067 691.535 85.44 691.535 85.84C691.535 86.2933 691.715 86.6533 692.075 86.92C692.435 87.1867 692.935 87.32 693.575 87.32C694.188 87.32 694.735 87.18 695.215 86.9C695.708 86.62 696.061 86.2067 696.275 85.66L696.695 87.16C696.455 87.7867 696.021 88.2733 695.395 88.62C694.781 88.9667 694.001 89.14 693.055 89.14ZM705.702 89.14C704.582 89.14 703.582 88.9067 702.702 88.44C701.836 87.96 701.156 87.3067 700.662 86.48C700.169 85.6533 699.922 84.7133 699.922 83.66C699.922 82.5933 700.169 81.6533 700.662 80.84C701.156 80.0133 701.836 79.3667 702.702 78.9C703.582 78.4333 704.582 78.2 705.702 78.2C706.742 78.2 707.656 78.4133 708.442 78.84C709.242 79.2533 709.849 79.8667 710.262 80.68L708.342 81.8C708.022 81.2933 707.629 80.92 707.162 80.68C706.709 80.44 706.216 80.32 705.682 80.32C705.069 80.32 704.516 80.4533 704.022 80.72C703.529 80.9867 703.142 81.3733 702.862 81.88C702.582 82.3733 702.442 82.9667 702.442 83.66C702.442 84.3533 702.582 84.9533 702.862 85.46C703.142 85.9533 703.529 86.3333 704.022 86.6C704.516 86.8667 705.069 87 705.682 87C706.216 87 706.709 86.88 707.162 86.64C707.629 86.4 708.022 86.0267 708.342 85.52L710.262 86.64C709.849 87.44 709.242 88.06 708.442 88.5C707.656 88.9267 706.742 89.14 705.702 89.14ZM716.087 89.14C714.901 89.14 713.861 88.9067 712.967 88.44C712.087 87.96 711.401 87.3067 710.907 86.48C710.427 85.6533 710.187 84.7133 710.187 83.66C710.187 82.5933 710.421 81.6533 710.887 80.84C711.367 80.0133 712.021 79.3667 712.847 78.9C713.687 78.4333 714.641 78.2 715.707 78.2C716.747 78.2 717.674 78.4267 718.487 78.88C719.301 79.3333 719.941 79.9733 720.407 80.8C720.874 81.6267 721.107 82.6 721.107 83.72C721.107 83.8267 721.101 83.9467 721.087 84.08C721.087 84.2133 721.081 84.34 721.067 84.46H712.167V82.8H719.747L718.767 83.32C718.781 82.7067 718.654 82.1667 718.387 81.7C718.121 81.2333 717.754 80.8667 717.287 80.6C716.834 80.3333 716.307 80.2 715.707 80.2C715.094 80.2 714.554 80.3333 714.087 80.6C713.634 80.8667 713.274 81.24 713.007 81.72C712.754 82.1867 712.627 82.74 712.627 83.38V83.78C712.627 84.42 712.774 84.9867 713.067 85.48C713.361 85.9733 713.774 86.3533 714.307 86.62C714.841 86.8867 715.454 87.02 716.147 87.02C716.747 87.02 717.287 86.9267 717.767 86.74C718.247 86.5533 718.674 86.26 719.047 85.86L720.387 87.4C719.907 87.96 719.301 88.3933 718.567 88.7C717.847 88.9933 717.021 89.14 716.087 89.14Z" fill="#F9AD6D"/>
<path d="M640.32 156V133.6H643.744L657.76 150.848H656.064V133.6H660.192V156H656.768L642.72 138.752H644.448V156H640.32ZM636.96 148.128V145.888H641.92V148.128H636.96ZM636.96 143.712V141.472H641.92V143.712H636.96ZM658.752 148.128V145.888H663.552V148.128H658.752ZM658.752 143.712V141.472H663.552V143.712H658.752ZM674.496 156V135.2L676.32 137.088H669.76V133.6H678.656V156H674.496ZM688.603 156.32C687.025 156.32 685.478 156.096 683.963 155.648C682.47 155.179 681.211 154.539 680.187 153.728L681.947 150.496C682.758 151.157 683.739 151.691 684.891 152.096C686.065 152.501 687.281 152.704 688.539 152.704C690.011 152.704 691.163 152.395 691.995 151.776C692.849 151.157 693.275 150.325 693.275 149.28C693.275 148.576 693.094 147.957 692.731 147.424C692.39 146.891 691.771 146.485 690.875 146.208C690.001 145.931 688.795 145.792 687.259 145.792H681.851L683.003 133.6H696.155V137.088H684.539L686.715 135.104L685.851 144.224L683.675 142.272H688.187C690.406 142.272 692.187 142.571 693.531 143.168C694.897 143.744 695.889 144.555 696.507 145.6C697.147 146.624 697.467 147.797 697.467 149.12C697.467 150.421 697.147 151.616 696.507 152.704C695.867 153.792 694.886 154.667 693.563 155.328C692.262 155.989 690.609 156.32 688.603 156.32ZM707.291 156.32C705.52 156.32 703.92 155.872 702.491 154.976C701.083 154.08 699.973 152.779 699.163 151.072C698.352 149.344 697.947 147.253 697.947 144.8C697.947 142.347 698.352 140.267 699.163 138.56C699.973 136.832 701.083 135.52 702.491 134.624C703.92 133.728 705.52 133.28 707.291 133.28C709.083 133.28 710.683 133.728 712.091 134.624C713.499 135.52 714.608 136.832 715.419 138.56C716.251 140.267 716.667 142.347 716.667 144.8C716.667 147.253 716.251 149.344 715.419 151.072C714.608 152.779 713.499 154.08 712.091 154.976C710.683 155.872 709.083 156.32 707.291 156.32ZM707.291 152.704C708.336 152.704 709.243 152.427 710.011 151.872C710.779 151.296 711.376 150.421 711.803 149.248C712.251 148.075 712.475 146.592 712.475 144.8C712.475 142.987 712.251 141.504 711.803 140.352C711.376 139.179 710.779 138.315 710.011 137.76C709.243 137.184 708.336 136.896 707.291 136.896C706.288 136.896 705.392 137.184 704.603 137.76C703.835 138.315 703.227 139.179 702.779 140.352C702.352 141.504 702.139 142.987 702.139 144.8C702.139 146.592 702.352 148.075 702.779 149.248C703.227 150.421 703.835 151.296 704.603 151.872C705.392 152.427 706.288 152.704 707.291 152.704ZM717.343 160.832L719.199 153.76L719.743 156.128C718.996 156.128 718.367 155.904 717.855 155.456C717.364 154.987 717.119 154.357 717.119 153.568C717.119 152.757 717.364 152.117 717.855 151.648C718.367 151.157 718.986 150.912 719.711 150.912C720.458 150.912 721.076 151.157 721.567 151.648C722.058 152.139 722.303 152.779 722.303 153.568C722.303 153.781 722.282 154.016 722.239 154.272C722.196 154.507 722.122 154.784 722.015 155.104C721.93 155.424 721.78 155.829 721.567 156.32L719.935 160.832H717.343ZM732.045 156.32C730.274 156.32 728.674 155.872 727.245 154.976C725.837 154.08 724.727 152.779 723.917 151.072C723.106 149.344 722.701 147.253 722.701 144.8C722.701 142.347 723.106 140.267 723.917 138.56C724.727 136.832 725.837 135.52 727.245 134.624C728.674 133.728 730.274 133.28 732.045 133.28C733.837 133.28 735.437 133.728 736.845 134.624C738.253 135.52 739.362 136.832 740.173 138.56C741.005 140.267 741.421 142.347 741.421 144.8C741.421 147.253 741.005 149.344 740.173 151.072C739.362 152.779 738.253 154.08 736.845 154.976C735.437 155.872 733.837 156.32 732.045 156.32ZM732.045 152.704C733.09 152.704 733.997 152.427 734.765 151.872C735.533 151.296 736.13 150.421 736.557 149.248C737.005 148.075 737.229 146.592 737.229 144.8C737.229 142.987 737.005 141.504 736.557 140.352C736.13 139.179 735.533 138.315 734.765 137.76C733.997 137.184 733.09 136.896 732.045 136.896C731.042 136.896 730.146 137.184 729.357 137.76C728.589 138.315 727.981 139.179 727.533 140.352C727.106 141.504 726.893 142.987 726.893 144.8C726.893 146.592 727.106 148.075 727.533 149.248C727.981 150.421 728.589 151.296 729.357 151.872C730.146 152.427 731.042 152.704 732.045 152.704ZM751.656 156.32C749.885 156.32 748.285 155.872 746.856 154.976C745.448 154.08 744.338 152.779 743.528 151.072C742.717 149.344 742.312 147.253 742.312 144.8C742.312 142.347 742.717 140.267 743.528 138.56C744.338 136.832 745.448 135.52 746.856 134.624C748.285 133.728 749.885 133.28 751.656 133.28C753.448 133.28 755.048 133.728 756.456 134.624C757.864 135.52 758.973 136.832 759.784 138.56C760.616 140.267 761.032 142.347 761.032 144.8C761.032 147.253 760.616 149.344 759.784 151.072C758.973 152.779 757.864 154.08 756.456 154.976C755.048 155.872 753.448 156.32 751.656 156.32ZM751.656 152.704C752.701 152.704 753.608 152.427 754.376 151.872C755.144 151.296 755.741 150.421 756.168 149.248C756.616 148.075 756.84 146.592 756.84 144.8C756.84 142.987 756.616 141.504 756.168 140.352C755.741 139.179 755.144 138.315 754.376 137.76C753.608 137.184 752.701 136.896 751.656 136.896C750.653 136.896 749.757 137.184 748.968 137.76C748.2 138.315 747.592 139.179 747.144 140.352C746.717 141.504 746.504 142.987 746.504 144.8C746.504 146.592 746.717 148.075 747.144 149.248C747.592 150.421 748.2 151.296 748.968 151.872C749.757 152.427 750.653 152.704 751.656 152.704ZM771.267 156.32C769.496 156.32 767.896 155.872 766.467 154.976C765.059 154.08 763.95 152.779 763.139 151.072C762.328 149.344 761.923 147.253 761.923 144.8C761.923 142.347 762.328 140.267 763.139 138.56C763.95 136.832 765.059 135.52 766.467 134.624C767.896 133.728 769.496 133.28 771.267 133.28C773.059 133.28 774.659 133.728 776.067 134.624C777.475 135.52 778.584 136.832 779.395 138.56C780.227 140.267 780.643 142.347 780.643 144.8C780.643 147.253 780.227 149.344 779.395 151.072C778.584 152.779 777.475 154.08 776.067 154.976C774.659 155.872 773.059 156.32 771.267 156.32ZM771.267 152.704C772.312 152.704 773.219 152.427 773.987 151.872C774.755 151.296 775.352 150.421 775.779 149.248C776.227 148.075 776.451 146.592 776.451 144.8C776.451 142.987 776.227 141.504 775.779 140.352C775.352 139.179 774.755 138.315 773.987 137.76C773.219 137.184 772.312 136.896 771.267 136.896C770.264 136.896 769.368 137.184 768.579 137.76C767.811 138.315 767.203 139.179 766.755 140.352C766.328 141.504 766.115 142.987 766.115 144.8C766.115 146.592 766.328 148.075 766.755 149.248C767.203 150.421 767.811 151.296 768.579 151.872C769.368 152.427 770.264 152.704 771.267 152.704Z" fill="#301446"/>
<ellipse cx="821" cy="47.5359" rx="48" ry="46.5359" fill="white"/>
<path d="M798.716 57.0526C799.239 56.0801 800.463 55.6962 801.448 56.1951L819.154 65.159C820.139 65.6579 820.513 66.8507 819.99 67.8232L806.601 92.6784C805.751 94.257 803.388 94.0545 802.878 92.3595L800.005 82.8074C799.686 81.746 798.533 81.1626 797.453 81.5151L787.725 84.6879C785.999 85.251 784.477 83.4864 785.328 81.9078L798.716 57.0526Z" fill="#7B7FDA"/>
<path d="M843.222 57.0526C842.699 56.0801 841.475 55.6962 840.49 56.1951L822.784 65.159C821.799 65.6579 821.425 66.8507 821.948 67.8232L835.336 92.6784C836.187 94.257 838.55 94.0545 839.06 92.3595L841.933 82.8074C842.252 81.746 843.405 81.1626 844.485 81.5151L854.213 84.6879C855.939 85.251 857.461 83.4864 856.61 81.9078L843.222 57.0526Z" fill="#7B7FDA"/>
<g filter="url(#filter2_d_553_1741)">
<ellipse cx="821" cy="47.5358" rx="28" ry="27.1459" fill="#F9AD6D"/>
<ellipse cx="821" cy="47.5358" rx="28" ry="27.1459" stroke="url(#paint2_linear_553_1741)" stroke-width="8"/>
</g>
<path d="M822.86 47.6L825.76 44.48V42H815.64V45.06H821.16L818.66 47.76V50.26H820.32C821.84 50.26 822.46 50.78 822.46 51.62C822.46 52.56 821.58 53.08 820.24 53.08C818.92 53.08 817.48 52.68 816.36 51.92L814.92 54.9C816.36 55.8 818.42 56.28 820.36 56.28C824.58 56.28 826.46 54 826.46 51.62C826.46 49.62 825.22 48.1 822.86 47.6Z" fill="white"/>
<rect x="918" y="48" width="282" height="138" rx="4" fill="white"/>
<path d="M942.68 85.82V84.02L949.58 75H952.36L945.56 84.02L944.26 83.62H955.36V85.82H942.68ZM950.36 89V85.82L950.44 83.62V80.8H952.88V89H950.36ZM960.054 89.14C958.88 89.14 957.974 88.84 957.334 88.24C956.694 87.6267 956.374 86.7267 956.374 85.54V75.96H958.874V85.48C958.874 85.9867 959 86.38 959.254 86.66C959.52 86.94 959.887 87.08 960.354 87.08C960.914 87.08 961.38 86.9333 961.754 86.64L962.454 88.42C962.16 88.66 961.8 88.84 961.374 88.96C960.947 89.08 960.507 89.14 960.054 89.14ZM954.614 80.4V78.4H961.734V80.4H954.614ZM969.37 78.2C970.224 78.2 970.984 78.3667 971.65 78.7C972.33 79.0333 972.864 79.5467 973.25 80.24C973.637 80.92 973.83 81.8 973.83 82.88V89H971.33V83.2C971.33 82.2533 971.104 81.5467 970.65 81.08C970.21 80.6133 969.59 80.38 968.79 80.38C968.204 80.38 967.684 80.5 967.23 80.74C966.777 80.98 966.424 81.34 966.17 81.82C965.93 82.2867 965.81 82.88 965.81 83.6V89H963.31V74.16H965.81V81.2L965.27 80.32C965.644 79.64 966.184 79.12 966.89 78.76C967.61 78.3867 968.437 78.2 969.37 78.2ZM979.589 84.48V82.4H985.089V84.48H979.589ZM992.432 89V76L993.572 77.18H989.472V75H995.032V89H992.432ZM1002.45 89.2C1001.34 89.2 1000.34 88.92 999.449 88.36C998.569 87.8 997.876 86.9867 997.369 85.92C996.862 84.84 996.609 83.5333 996.609 82C996.609 80.4667 996.862 79.1667 997.369 78.1C997.876 77.02 998.569 76.2 999.449 75.64C1000.34 75.08 1001.34 74.8 1002.45 74.8C1003.57 74.8 1004.57 75.08 1005.45 75.64C1006.33 76.2 1007.02 77.02 1007.53 78.1C1008.05 79.1667 1008.31 80.4667 1008.31 82C1008.31 83.5333 1008.05 84.84 1007.53 85.92C1007.02 86.9867 1006.33 87.8 1005.45 88.36C1004.57 88.92 1003.57 89.2 1002.45 89.2ZM1002.45 86.94C1003.1 86.94 1003.67 86.7667 1004.15 86.42C1004.63 86.06 1005 85.5133 1005.27 84.78C1005.55 84.0467 1005.69 83.12 1005.69 82C1005.69 80.8667 1005.55 79.94 1005.27 79.22C1005 78.4867 1004.63 77.9467 1004.15 77.6C1003.67 77.24 1003.1 77.06 1002.45 77.06C1001.82 77.06 1001.26 77.24 1000.77 77.6C1000.29 77.9467 999.909 78.4867 999.629 79.22C999.362 79.94 999.229 80.8667 999.229 82C999.229 83.12 999.362 84.0467 999.629 84.78C999.909 85.5133 1000.29 86.06 1000.77 86.42C1001.26 86.7667 1001.82 86.94 1002.45 86.94ZM1013.84 89.14C1012.67 89.14 1011.76 88.84 1011.12 88.24C1010.48 87.6267 1010.16 86.7267 1010.16 85.54V75.96H1012.66V85.48C1012.66 85.9867 1012.79 86.38 1013.04 86.66C1013.31 86.94 1013.67 87.08 1014.14 87.08C1014.7 87.08 1015.17 86.9333 1015.54 86.64L1016.24 88.42C1015.95 88.66 1015.59 88.84 1015.16 88.96C1014.73 89.08 1014.29 89.14 1013.84 89.14ZM1008.4 80.4V78.4H1015.52V80.4H1008.4ZM1023.16 78.2C1024.01 78.2 1024.77 78.3667 1025.44 78.7C1026.12 79.0333 1026.65 79.5467 1027.04 80.24C1027.42 80.92 1027.62 81.8 1027.62 82.88V89H1025.12V83.2C1025.12 82.2533 1024.89 81.5467 1024.44 81.08C1024 80.6133 1023.38 80.38 1022.58 80.38C1021.99 80.38 1021.47 80.5 1021.02 80.74C1020.56 80.98 1020.21 81.34 1019.96 81.82C1019.72 82.2867 1019.6 82.88 1019.6 83.6V89H1017.1V74.16H1019.6V81.2L1019.06 80.32C1019.43 79.64 1019.97 79.12 1020.68 78.76C1021.4 78.3867 1022.22 78.2 1023.16 78.2ZM1034.16 89V75H1039.92C1041.16 75 1042.22 75.2 1043.1 75.6C1043.99 76 1044.68 76.5733 1045.16 77.32C1045.64 78.0667 1045.88 78.9533 1045.88 79.98C1045.88 81.0067 1045.64 81.8933 1045.16 82.64C1044.68 83.3867 1043.99 83.96 1043.1 84.36C1042.22 84.76 1041.16 84.96 1039.92 84.96H1035.6L1036.76 83.74V89H1034.16ZM1036.76 84.02L1035.6 82.76H1039.8C1040.94 82.76 1041.8 82.52 1042.38 82.04C1042.96 81.5467 1043.26 80.86 1043.26 79.98C1043.26 79.0867 1042.96 78.4 1042.38 77.92C1041.8 77.44 1040.94 77.2 1039.8 77.2H1035.6L1036.76 75.92V84.02ZM1047.23 89V74.16H1049.73V89H1047.23ZM1058.39 89V86.84L1058.25 86.38V82.6C1058.25 81.8667 1058.03 81.3 1057.59 80.9C1057.15 80.4867 1056.48 80.28 1055.59 80.28C1054.99 80.28 1054.4 80.3733 1053.81 80.56C1053.24 80.7467 1052.75 81.0067 1052.35 81.34L1051.37 79.52C1051.94 79.08 1052.62 78.7533 1053.41 78.54C1054.21 78.3133 1055.04 78.2 1055.89 78.2C1057.44 78.2 1058.63 78.5733 1059.47 79.32C1060.32 80.0533 1060.75 81.1933 1060.75 82.74V89H1058.39ZM1055.03 89.14C1054.23 89.14 1053.53 89.0067 1052.93 88.74C1052.33 88.46 1051.86 88.08 1051.53 87.6C1051.21 87.1067 1051.05 86.5533 1051.05 85.94C1051.05 85.34 1051.19 84.8 1051.47 84.32C1051.76 83.84 1052.24 83.46 1052.89 83.18C1053.54 82.9 1054.41 82.76 1055.49 82.76H1058.59V84.42H1055.67C1054.82 84.42 1054.24 84.56 1053.95 84.84C1053.66 85.1067 1053.51 85.44 1053.51 85.84C1053.51 86.2933 1053.69 86.6533 1054.05 86.92C1054.41 87.1867 1054.91 87.32 1055.55 87.32C1056.16 87.32 1056.71 87.18 1057.19 86.9C1057.68 86.62 1058.04 86.2067 1058.25 85.66L1058.67 87.16C1058.43 87.7867 1058 88.2733 1057.37 88.62C1056.76 88.9667 1055.98 89.14 1055.03 89.14ZM1067.68 89.14C1066.56 89.14 1065.56 88.9067 1064.68 88.44C1063.81 87.96 1063.13 87.3067 1062.64 86.48C1062.14 85.6533 1061.9 84.7133 1061.9 83.66C1061.9 82.5933 1062.14 81.6533 1062.64 80.84C1063.13 80.0133 1063.81 79.3667 1064.68 78.9C1065.56 78.4333 1066.56 78.2 1067.68 78.2C1068.72 78.2 1069.63 78.4133 1070.42 78.84C1071.22 79.2533 1071.82 79.8667 1072.24 80.68L1070.32 81.8C1070 81.2933 1069.6 80.92 1069.14 80.68C1068.68 80.44 1068.19 80.32 1067.66 80.32C1067.04 80.32 1066.49 80.4533 1066 80.72C1065.5 80.9867 1065.12 81.3733 1064.84 81.88C1064.56 82.3733 1064.42 82.9667 1064.42 83.66C1064.42 84.3533 1064.56 84.9533 1064.84 85.46C1065.12 85.9533 1065.5 86.3333 1066 86.6C1066.49 86.8667 1067.04 87 1067.66 87C1068.19 87 1068.68 86.88 1069.14 86.64C1069.6 86.4 1070 86.0267 1070.32 85.52L1072.24 86.64C1071.82 87.44 1071.22 88.06 1070.42 88.5C1069.63 88.9267 1068.72 89.14 1067.68 89.14ZM1078.06 89.14C1076.88 89.14 1075.84 88.9067 1074.94 88.44C1074.06 87.96 1073.38 87.3067 1072.88 86.48C1072.4 85.6533 1072.16 84.7133 1072.16 83.66C1072.16 82.5933 1072.4 81.6533 1072.86 80.84C1073.34 80.0133 1074 79.3667 1074.82 78.9C1075.66 78.4333 1076.62 78.2 1077.68 78.2C1078.72 78.2 1079.65 78.4267 1080.46 78.88C1081.28 79.3333 1081.92 79.9733 1082.38 80.8C1082.85 81.6267 1083.08 82.6 1083.08 83.72C1083.08 83.8267 1083.08 83.9467 1083.06 84.08C1083.06 84.2133 1083.06 84.34 1083.04 84.46H1074.14V82.8H1081.72L1080.74 83.32C1080.76 82.7067 1080.63 82.1667 1080.36 81.7C1080.1 81.2333 1079.73 80.8667 1079.26 80.6C1078.81 80.3333 1078.28 80.2 1077.68 80.2C1077.07 80.2 1076.53 80.3333 1076.06 80.6C1075.61 80.8667 1075.25 81.24 1074.98 81.72C1074.73 82.1867 1074.6 82.74 1074.6 83.38V83.78C1074.6 84.42 1074.75 84.9867 1075.04 85.48C1075.34 85.9733 1075.75 86.3533 1076.28 86.62C1076.82 86.8867 1077.43 87.02 1078.12 87.02C1078.72 87.02 1079.26 86.9267 1079.74 86.74C1080.22 86.5533 1080.65 86.26 1081.02 85.86L1082.36 87.4C1081.88 87.96 1081.28 88.3933 1080.54 88.7C1079.82 88.9933 1079 89.14 1078.06 89.14Z" fill="#301446"/>
<path d="M955.504 156.32C953.755 156.32 952.144 156.032 950.672 155.456C949.2 154.88 947.92 154.08 946.832 153.056C945.744 152.011 944.901 150.795 944.304 149.408C943.707 148 943.408 146.464 943.408 144.8C943.408 143.136 943.707 141.611 944.304 140.224C944.901 138.816 945.744 137.6 946.832 136.576C947.92 135.531 949.2 134.72 950.672 134.144C952.144 133.568 953.744 133.28 955.472 133.28C957.221 133.28 958.821 133.568 960.272 134.144C961.744 134.72 963.024 135.531 964.112 136.576C965.2 137.6 966.043 138.816 966.64 140.224C967.237 141.611 967.536 143.136 967.536 144.8C967.536 146.464 967.237 148 966.64 149.408C966.043 150.816 965.2 152.032 964.112 153.056C963.024 154.08 961.744 154.88 960.272 155.456C958.821 156.032 957.232 156.32 955.504 156.32ZM955.472 152.672C956.603 152.672 957.648 152.48 958.608 152.096C959.568 151.712 960.4 151.168 961.104 150.464C961.808 149.739 962.352 148.907 962.736 147.968C963.141 147.008 963.344 145.952 963.344 144.8C963.344 143.648 963.141 142.603 962.736 141.664C962.352 140.704 961.808 139.872 961.104 139.168C960.4 138.443 959.568 137.888 958.608 137.504C957.648 137.12 956.603 136.928 955.472 136.928C954.341 136.928 953.296 137.12 952.336 137.504C951.397 137.888 950.565 138.443 949.84 139.168C949.136 139.872 948.581 140.704 948.176 141.664C947.792 142.603 947.6 143.648 947.6 144.8C947.6 145.931 947.792 146.976 948.176 147.936C948.581 148.896 949.136 149.739 949.84 150.464C950.544 151.168 951.376 151.712 952.336 152.096C953.296 152.48 954.341 152.672 955.472 152.672ZM976.23 156.224C974.352 156.224 972.902 155.744 971.878 154.784C970.854 153.803 970.342 152.363 970.342 150.464V135.136H974.342V150.368C974.342 151.179 974.544 151.808 974.95 152.256C975.376 152.704 975.963 152.928 976.71 152.928C977.606 152.928 978.352 152.693 978.95 152.224L980.07 155.072C979.6 155.456 979.024 155.744 978.342 155.936C977.659 156.128 976.955 156.224 976.23 156.224ZM967.526 142.24V139.04H978.918V142.24H967.526ZM991.136 138.72C992.502 138.72 993.718 138.987 994.784 139.52C995.872 140.053 996.726 140.875 997.344 141.984C997.963 143.072 998.272 144.48 998.272 146.208V156H994.272V146.72C994.272 145.205 993.91 144.075 993.184 143.328C992.48 142.581 991.488 142.208 990.208 142.208C989.27 142.208 988.438 142.4 987.712 142.784C986.987 143.168 986.422 143.744 986.016 144.512C985.632 145.259 985.44 146.208 985.44 147.36V156H981.44V132.256H985.44V143.52L984.576 142.112C985.174 141.024 986.038 140.192 987.168 139.616C988.32 139.019 989.643 138.72 991.136 138.72ZM1009.49 156.224C1007.59 156.224 1005.93 155.851 1004.5 155.104C1003.09 154.336 1001.99 153.291 1001.2 151.968C1000.43 150.645 1000.05 149.141 1000.05 147.456C1000.05 145.749 1000.42 144.245 1001.17 142.944C1001.94 141.621 1002.98 140.587 1004.31 139.84C1005.65 139.093 1007.18 138.72 1008.88 138.72C1010.55 138.72 1012.03 139.083 1013.33 139.808C1014.63 140.533 1015.66 141.557 1016.4 142.88C1017.15 144.203 1017.52 145.76 1017.52 147.552C1017.52 147.723 1017.51 147.915 1017.49 148.128C1017.49 148.341 1017.48 148.544 1017.46 148.736H1003.22V146.08H1015.35L1013.78 146.912C1013.8 145.931 1013.6 145.067 1013.17 144.32C1012.74 143.573 1012.16 142.987 1011.41 142.56C1010.68 142.133 1009.84 141.92 1008.88 141.92C1007.9 141.92 1007.04 142.133 1006.29 142.56C1005.56 142.987 1004.99 143.584 1004.56 144.352C1004.16 145.099 1003.95 145.984 1003.95 147.008V147.648C1003.95 148.672 1004.19 149.579 1004.66 150.368C1005.13 151.157 1005.79 151.765 1006.64 152.192C1007.5 152.619 1008.48 152.832 1009.59 152.832C1010.55 152.832 1011.41 152.683 1012.18 152.384C1012.95 152.085 1013.63 151.616 1014.23 150.976L1016.37 153.44C1015.6 154.336 1014.63 155.029 1013.46 155.52C1012.31 155.989 1010.98 156.224 1009.49 156.224ZM1019.44 156V138.912H1023.25V143.616L1022.8 142.24C1023.32 141.088 1024.12 140.213 1025.2 139.616C1026.31 139.019 1027.69 138.72 1029.33 138.72V142.528C1029.16 142.485 1029 142.464 1028.85 142.464C1028.7 142.443 1028.55 142.432 1028.4 142.432C1026.89 142.432 1025.68 142.88 1024.79 143.776C1023.89 144.651 1023.44 145.963 1023.44 147.712V156H1019.44ZM1038.27 156V133.6H1047.49C1049.47 133.6 1051.17 133.92 1052.57 134.56C1054 135.2 1055.1 136.117 1055.87 137.312C1056.64 138.507 1057.02 139.925 1057.02 141.568C1057.02 143.211 1056.64 144.629 1055.87 145.824C1055.1 147.019 1054 147.936 1052.57 148.576C1051.17 149.216 1049.47 149.536 1047.49 149.536H1040.57L1042.43 147.584V156H1038.27ZM1042.43 148.032L1040.57 146.016H1047.29C1049.13 146.016 1050.5 145.632 1051.42 144.864C1052.36 144.075 1052.83 142.976 1052.83 141.568C1052.83 140.139 1052.36 139.04 1051.42 138.272C1050.5 137.504 1049.13 137.12 1047.29 137.12H1040.57L1042.43 135.072V148.032ZM1058.72 156V138.912H1062.52V143.616L1062.08 142.24C1062.59 141.088 1063.39 140.213 1064.48 139.616C1065.58 139.019 1066.96 138.72 1068.6 138.72V142.528C1068.43 142.485 1068.27 142.464 1068.12 142.464C1067.97 142.443 1067.82 142.432 1067.68 142.432C1066.16 142.432 1064.96 142.88 1064.06 143.776C1063.16 144.651 1062.72 145.963 1062.72 147.712V156H1058.72ZM1070.08 156V138.912H1074.08V156H1070.08ZM1072.09 136.096C1071.35 136.096 1070.73 135.861 1070.24 135.392C1069.77 134.923 1069.53 134.357 1069.53 133.696C1069.53 133.013 1069.77 132.448 1070.24 132C1070.73 131.531 1071.35 131.296 1072.09 131.296C1072.84 131.296 1073.45 131.52 1073.92 131.968C1074.41 132.395 1074.65 132.939 1074.65 133.6C1074.65 134.304 1074.42 134.901 1073.95 135.392C1073.48 135.861 1072.86 136.096 1072.09 136.096ZM1076 156V153.472L1086.53 140.736L1087.26 142.112H1076.19V138.912H1090.46V141.44L1079.93 154.176L1079.13 152.8H1090.75V156H1076ZM1100.3 156.224C1098.4 156.224 1096.74 155.851 1095.31 155.104C1093.9 154.336 1092.8 153.291 1092.01 151.968C1091.24 150.645 1090.86 149.141 1090.86 147.456C1090.86 145.749 1091.23 144.245 1091.98 142.944C1092.75 141.621 1093.79 140.587 1095.12 139.84C1096.46 139.093 1097.99 138.72 1099.69 138.72C1101.36 138.72 1102.84 139.083 1104.14 139.808C1105.44 140.533 1106.47 141.557 1107.21 142.88C1107.96 144.203 1108.33 145.76 1108.33 147.552C1108.33 147.723 1108.32 147.915 1108.3 148.128C1108.3 148.341 1108.29 148.544 1108.27 148.736H1094.03V146.08H1106.16L1104.59 146.912C1104.61 145.931 1104.41 145.067 1103.98 144.32C1103.55 143.573 1102.97 142.987 1102.22 142.56C1101.49 142.133 1100.65 141.92 1099.69 141.92C1098.71 141.92 1097.85 142.133 1097.1 142.56C1096.37 142.987 1095.8 143.584 1095.37 144.352C1094.97 145.099 1094.76 145.984 1094.76 147.008V147.648C1094.76 148.672 1095 149.579 1095.47 150.368C1095.94 151.157 1096.6 151.765 1097.45 152.192C1098.31 152.619 1099.29 152.832 1100.4 152.832C1101.36 152.832 1102.22 152.683 1102.99 152.384C1103.76 152.085 1104.44 151.616 1105.04 150.976L1107.18 153.44C1106.41 154.336 1105.44 155.029 1104.27 155.52C1103.12 155.989 1101.79 156.224 1100.3 156.224ZM1115.53 156.224C1114.1 156.224 1112.73 156.043 1111.41 155.68C1110.1 155.296 1109.07 154.837 1108.3 154.304L1109.84 151.264C1110.61 151.755 1111.52 152.16 1112.59 152.48C1113.66 152.8 1114.72 152.96 1115.79 152.96C1117.05 152.96 1117.96 152.789 1118.51 152.448C1119.09 152.107 1119.37 151.648 1119.37 151.072C1119.37 150.603 1119.18 150.251 1118.8 150.016C1118.41 149.76 1117.91 149.568 1117.29 149.44C1116.68 149.312 1115.98 149.195 1115.21 149.088C1114.47 148.981 1113.71 148.843 1112.94 148.672C1112.2 148.48 1111.51 148.213 1110.89 147.872C1110.28 147.509 1109.77 147.029 1109.39 146.432C1109.01 145.835 1108.81 145.045 1108.81 144.064C1108.81 142.976 1109.12 142.037 1109.74 141.248C1110.36 140.437 1111.22 139.819 1112.33 139.392C1113.46 138.944 1114.8 138.72 1116.33 138.72C1117.49 138.72 1118.65 138.848 1119.82 139.104C1121 139.36 1121.97 139.723 1122.73 140.192L1121.2 143.232C1120.39 142.741 1119.57 142.411 1118.73 142.24C1117.92 142.048 1117.11 141.952 1116.3 141.952C1115.09 141.952 1114.18 142.133 1113.58 142.496C1113.01 142.859 1112.72 143.317 1112.72 143.872C1112.72 144.384 1112.91 144.768 1113.29 145.024C1113.68 145.28 1114.18 145.483 1114.8 145.632C1115.42 145.781 1116.1 145.909 1116.85 146.016C1117.61 146.101 1118.37 146.24 1119.12 146.432C1119.86 146.624 1120.55 146.891 1121.17 147.232C1121.81 147.552 1122.32 148.011 1122.7 148.608C1123.09 149.205 1123.28 149.984 1123.28 150.944C1123.28 152.011 1122.96 152.939 1122.32 153.728C1121.7 154.517 1120.81 155.136 1119.66 155.584C1118.51 156.011 1117.13 156.224 1115.53 156.224Z" fill="#301446"/>
<path d="M1140.07 3.33869C1141.27 1.69047 1143.73 1.69047 1144.93 3.33869L1200.09 79.2362C1201.53 81.2192 1200.12 84 1197.67 84H1087.33C1084.88 84 1083.47 81.2192 1084.91 79.2362L1140.07 3.33869Z" fill="white"/>
<path d="M1118.58 57.4724C1119.12 56.4409 1120.39 56.0414 1121.42 56.58L1140.1 66.3331C1141.13 66.8718 1141.53 68.1446 1140.99 69.1761L1126.84 96.2839C1125.96 97.9662 1123.48 97.7204 1122.95 95.8984L1119.92 85.5085C1119.58 84.359 1118.36 83.7196 1117.22 84.1014L1106.96 87.5525C1105.16 88.1577 1103.55 86.2625 1104.42 84.5802L1118.58 57.4724Z" fill="#F2F2FB"/>
<path d="M1165.42 57.4724C1164.88 56.4409 1163.61 56.0414 1162.58 56.58L1143.9 66.3331C1142.87 66.8718 1142.47 68.1446 1143.01 69.1761L1157.16 96.2839C1158.04 97.9662 1160.52 97.7204 1161.05 95.8984L1164.08 85.5085C1164.42 84.359 1165.64 83.7196 1166.78 84.1014L1177.04 87.5525C1178.83 88.1577 1180.45 86.2625 1179.58 84.5802L1165.42 57.4724Z" fill="#F2F2FB"/>
<g filter="url(#filter3_d_553_1741)">
<path d="M1142.5 24L1171.51 68.25H1113.49L1142.5 24Z" fill="#7B7FDA"/>
<path d="M1142.5 24L1171.51 68.25H1113.49L1142.5 24Z" stroke="#F2F2FB" stroke-width="6.32093"/>
</g>
<path d="M1148.88 53.18H1146.8V50.8H1143.06V53.18H1140.22L1145.92 45H1141.82L1135.54 53.74V56.32H1142.94V59H1146.8V56.32H1148.88V53.18Z" fill="white"/>
<defs>
<filter id="filter0_d_553_1741" x="159.809" y="9.80908" width="96.3818" height="96.3818" filterUnits="userSpaceOnUse" color-interpolation-filters="sRGB">
<feFlood flood-opacity="0" result="BackgroundImageFix"/>
<feColorMatrix in="SourceAlpha" type="matrix" values="0 0 0 0 0 0 0 0 0 0 0 0 0 0 0 0 0 0 127 0" result="hardAlpha"/>
<feOffset dy="4"/>
<feGaussianBlur stdDeviation="5"/>
<feComposite in2="hardAlpha" operator="out"/>
<feColorMatrix type="matrix" values="0 0 0 0 0.188235 0 0 0 0 0.0784314 0 0 0 0 0.27451 0 0 0 0.25 0"/>
<feBlend mode="normal" in2="BackgroundImageFix" result="effect1_dropShadow_553_1741"/>
<feBlend mode="normal" in="SourceGraphic" in2="effect1_dropShadow_553_1741" result="shape"/>
</filter>
<filter id="filter1_d_553_1741" x="472.343" y="9.34326" width="87.3135" height="87.3135" filterUnits="userSpaceOnUse" color-interpolation-filters="sRGB">
<feFlood flood-opacity="0" result="BackgroundImageFix"/>
<feColorMatrix in="SourceAlpha" type="matrix" values="0 0 0 0 0 0 0 0 0 0 0 0 0 0 0 0 0 0 127 0" result="hardAlpha"/>
<feOffset dy="4"/>
<feGaussianBlur stdDeviation="5"/>
<feComposite in2="hardAlpha" operator="out"/>
<feColorMatrix type="matrix" values="0 0 0 0 0.188235 0 0 0 0 0.0784314 0 0 0 0 0.27451 0 0 0 0.25 0"/>
<feBlend mode="normal" in2="BackgroundImageFix" result="effect1_dropShadow_553_1741"/>
<feBlend mode="normal" in="SourceGraphic" in2="effect1_dropShadow_553_1741" result="shape"/>
</filter>
<filter id="filter2_d_553_1741" x="779" y="10.3899" width="84" height="82.2917" filterUnits="userSpaceOnUse" color-interpolation-filters="sRGB">
<feFlood flood-opacity="0" result="BackgroundImageFix"/>
<feColorMatrix in="SourceAlpha" type="matrix" values="0 0 0 0 0 0 0 0 0 0 0 0 0 0 0 0 0 0 127 0" result="hardAlpha"/>
<feOffset dy="4"/>
<feGaussianBlur stdDeviation="5"/>
<feComposite in2="hardAlpha" operator="out"/>
<feColorMatrix type="matrix" values="0 0 0 0 0.188235 0 0 0 0 0.0784314 0 0 0 0 0.27451 0 0 0 0.25 0"/>
<feBlend mode="normal" in2="BackgroundImageFix" result="effect1_dropShadow_553_1741"/>
<feBlend mode="normal" in="SourceGraphic" in2="effect1_dropShadow_553_1741" result="shape"/>
</filter>
<filter id="filter3_d_553_1741" x="1097.1" y="11.9149" width="90.7959" height="74.2443" filterUnits="userSpaceOnUse" color-interpolation-filters="sRGB">
<feFlood flood-opacity="0" result="BackgroundImageFix"/>
<feColorMatrix in="SourceAlpha" type="matrix" values="0 0 0 0 0 0 0 0 0 0 0 0 0 0 0 0 0 0 127 0" result="hardAlpha"/>
<feOffset dy="4.21396"/>
<feGaussianBlur stdDeviation="5.26744"/>
<feComposite in2="hardAlpha" operator="out"/>
<feColorMatrix type="matrix" values="0 0 0 0 0.188235 0 0 0 0 0.0784314 0 0 0 0 0.27451 0 0 0 0.25 0"/>
<feBlend mode="normal" in2="BackgroundImageFix" result="effect1_dropShadow_553_1741"/>
<feBlend mode="normal" in="SourceGraphic" in2="effect1_dropShadow_553_1741" result="shape"/>
</filter>
<linearGradient id="paint0_linear_553_1741" x1="208" y1="26" x2="208" y2="82" gradientUnits="userSpaceOnUse">
<stop stop-color="#FFA037"/>
<stop offset="1" stop-color="#FA7025"/>
</linearGradient>
<linearGradient id="paint1_linear_553_1741" x1="516" y1="21" x2="516" y2="77" gradientUnits="userSpaceOnUse">
<stop stop-color="#F9AD6D"/>
<stop offset="1" stop-color="#EA7052"/>
</linearGradient>
<linearGradient id="paint2_linear_553_1741" x1="821" y1="20.3899" x2="821" y2="74.6818" gradientUnits="userSpaceOnUse">
<stop stop-color="#7B7FDA"/>
<stop offset="1" stop-color="#7175CC"/>
</linearGradient>
</defs>
</svg>
