<svg width="322" height="42" viewBox="0 0 322 42" fill="none" xmlns="http://www.w3.org/2000/svg">
<path d="M21 39.3999C3.40073 36.4179 4.81727 7.6033 4.81727 7.6033C16.1738 11.5806 21 2.49585 21 2.49585C21 2.49585 25.8262 11.5793 37.1827 7.6033C37.1827 7.6033 38.5993 36.4179 21 39.3999Z" fill="#168DE2"/>
<path d="M20.9999 36.8111C9.41558 34.4604 7.60958 17.9417 7.37158 10.8971C8.37195 11.0689 9.35449 11.1555 10.3141 11.1555C15.4801 11.1555 18.9623 8.72458 20.9999 6.63477C23.0389 8.72458 26.521 11.1555 31.6858 11.1555C32.6441 11.1555 33.6279 11.0689 34.6283 10.8971C34.3903 17.9417 32.5843 34.4604 20.9999 36.8111Z" fill="#3AA2EB"/>
<path d="M20.9999 9.53027L23.9183 15.4446L30.4461 16.3941L25.723 20.9975L26.8379 27.4974L20.9999 24.4288L15.1619 27.4974L16.2768 20.9975L11.5537 16.3941L18.0815 15.4446L20.9999 9.53027Z" fill="white"/>
<path d="M41.1763 39.5041H31.3203V33.0259H41.1763L37.9742 36.265L41.1763 39.5041ZM0.823242 39.5041H10.6792V33.0259H0.823242L4.02542 36.265L0.823242 39.5041Z" fill="#FFBD49"/>
<path d="M6.15381 28.6326H35.8453V36.2664H6.15381V28.6326Z" fill="#FFCB5A"/>
<path d="M31.3207 39.5042L35.8453 36.2651H31.3207V39.5042ZM10.6796 39.5042L6.15381 36.2651H10.6796V39.5042Z" fill="#EC9821"/>
<path d="M6.15381 31.8131C6.15381 32.087 6.26262 32.3497 6.45631 32.5434C6.65 32.7371 6.91271 32.8459 7.18663 32.8459C7.46055 32.8459 7.72325 32.7371 7.91694 32.5434C8.11063 32.3497 8.21944 32.087 8.21944 31.8131V30.4869C8.21944 30.0083 8.61145 29.6163 9.08999 29.6227C9.7429 29.6227 10.0331 29.9969 10.0331 30.4398V32.452C10.0331 33.0171 10.4518 33.5147 11.0169 33.5478C11.1572 33.5543 11.2974 33.5324 11.429 33.4833C11.5606 33.4342 11.6809 33.3591 11.7827 33.2623C11.8845 33.1655 11.9656 33.0491 12.0212 32.9201C12.0769 32.7911 12.1058 32.6522 12.1064 32.5118V31.7622C12.1064 31.2836 12.492 30.8916 12.9769 30.8916C13.6833 30.9718 13.9671 31.3256 13.9671 31.808V32.8554C13.9671 33.4205 14.3858 33.9182 14.9433 33.9512C15.5414 33.978 16.0327 33.5058 16.0327 32.9152V31.2836C16.0327 30.7847 16.4578 30.4131 16.9567 30.4194H16.9771C17.4824 30.4131 17.9011 30.7847 17.9011 31.2836V32.3883C17.9011 32.9458 18.3198 33.4447 18.8773 33.4778C19.4754 33.5045 19.9667 33.0323 19.9667 32.4418L19.968 31.458C19.968 30.8687 20.4605 30.394 21.0574 30.4258C21.6162 30.4551 22.0362 30.9565 22.0362 31.5165V32.4163C22.0526 32.6821 22.1707 32.9313 22.3659 33.1123C22.5612 33.2933 22.8186 33.3922 23.0849 33.3884C23.3511 33.3846 23.6056 33.2785 23.7957 33.0921C23.9858 32.9056 24.0967 32.6532 24.1056 32.3871V30.4882C24.1056 29.3503 25.9193 29.3325 25.9193 30.4411V32.9165C25.9193 33.4816 26.338 33.9792 26.8954 34.0123C27.4936 34.0391 27.9849 33.5669 27.9849 32.9763V31.7634C27.9849 31.2849 28.3769 30.8929 28.8554 30.8929L28.9153 30.8992H28.928C29.0481 30.8981 29.1673 30.9207 29.2786 30.966C29.3899 31.0112 29.4911 31.0781 29.5763 31.1628C29.6616 31.2474 29.7292 31.3481 29.7752 31.4591C29.8212 31.5701 29.8447 31.6891 29.8444 31.8092V32.5245C29.8444 33.0896 30.2631 33.5872 30.8282 33.6203C30.9685 33.6269 31.1087 33.6049 31.2403 33.5559C31.3719 33.5068 31.4922 33.4316 31.594 33.3348C31.6957 33.238 31.7769 33.1216 31.8325 32.9927C31.8881 32.8637 31.9171 32.7248 31.9176 32.5843V31.6171C31.9176 31.1194 32.3364 30.7465 32.834 30.7529H32.8594C33.3584 30.7465 33.7758 31.1182 33.7758 31.6171V32.452C33.7758 33.0094 34.1945 33.5083 34.752 33.5414C35.3502 33.5682 35.8414 33.096 35.8414 32.5054V28.6338H6.15381V31.8131Z" fill="#F7B346"/>
<path d="M21 9.53027V18.8034L23.9184 15.4446L21 9.53027ZM30.4462 16.3941L25.7231 20.9975L21 18.8034L30.4462 16.3941Z" fill="#E5E5E5"/>
<path d="M26.8379 27.4973L20.9999 24.4288V18.8033L26.8379 27.4973ZM15.1619 27.4973L20.9999 18.8033L16.2768 20.9975L15.1619 27.6004V27.4973ZM11.5537 16.394L18.0815 15.4446L20.9999 18.8033L11.5537 16.394Z" fill="#E5E5E5"/>
<path d="M21 39.3999C3.40073 36.4179 4.81727 7.6033 4.81727 7.6033C16.1738 11.5806 21 2.49585 21 2.49585C21 2.49585 25.8262 11.5793 37.1827 7.6033C37.1827 7.6033 38.5993 36.4179 21 39.3999Z" fill="#168DE2"/>
<path d="M20.9999 36.8111C9.41558 34.4604 7.60958 17.9417 7.37158 10.8971C8.37195 11.0689 9.35449 11.1555 10.3141 11.1555C15.4801 11.1555 18.9623 8.72458 20.9999 6.63477C23.0389 8.72458 26.521 11.1555 31.6858 11.1555C32.6441 11.1555 33.6279 11.0689 34.6283 10.8971C34.3903 17.9417 32.5843 34.4604 20.9999 36.8111Z" fill="#3AA2EB"/>
<path d="M20.9999 9.53027L23.9183 15.4446L30.4461 16.3941L25.723 20.9975L26.8379 27.4974L20.9999 24.4288L15.1619 27.4974L16.2768 20.9975L11.5537 16.3941L18.0815 15.4446L20.9999 9.53027Z" fill="white"/>
<path d="M41.1763 39.5041H31.3203V33.0259H41.1763L37.9742 36.265L41.1763 39.5041ZM0.823242 39.5041H10.6792V33.0259H0.823242L4.02542 36.265L0.823242 39.5041Z" fill="#FFBD49"/>
<path d="M6.15381 28.6326H35.8453V36.2664H6.15381V28.6326Z" fill="#FFCB5A"/>
<path d="M31.3207 39.5042L35.8453 36.2651H31.3207V39.5042ZM10.6796 39.5042L6.15381 36.2651H10.6796V39.5042Z" fill="#EC9821"/>
<path d="M6.15381 31.8131C6.15381 32.087 6.26262 32.3497 6.45631 32.5434C6.65001 32.7371 6.91271 32.8459 7.18663 32.8459C7.46055 32.8459 7.72325 32.7371 7.91694 32.5434C8.11063 32.3497 8.21945 32.087 8.21945 31.8131V30.4869C8.21945 30.0083 8.61145 29.6163 9.08999 29.6227C9.7429 29.6227 10.0331 29.9969 10.0331 30.4398V32.452C10.0331 33.0171 10.4518 33.5147 11.0169 33.5478C11.1572 33.5543 11.2974 33.5324 11.429 33.4833C11.5606 33.4342 11.6809 33.3591 11.7827 33.2623C11.8845 33.1655 11.9656 33.0491 12.0212 32.9201C12.0769 32.7911 12.1058 32.6522 12.1064 32.5118V31.7622C12.1064 31.2836 12.492 30.8916 12.9769 30.8916C13.6833 30.9718 13.9671 31.3256 13.9671 31.808V32.8554C13.9671 33.4205 14.3858 33.9182 14.9433 33.9512C15.5414 33.978 16.0327 33.5058 16.0327 32.9152V31.2836C16.0327 30.7847 16.4578 30.4131 16.9567 30.4194H16.9771C17.4824 30.4131 17.9011 30.7847 17.9011 31.2836V32.3883C17.9011 32.9458 18.3198 33.4447 18.8773 33.4778C19.4754 33.5045 19.9667 33.0323 19.9667 32.4418L19.968 31.458C19.968 30.8687 20.4605 30.394 21.0574 30.4258C21.6162 30.4551 22.0362 30.9565 22.0362 31.5165V32.4163C22.0526 32.6821 22.1707 32.9313 22.3659 33.1123C22.5612 33.2933 22.8186 33.3922 23.0849 33.3884C23.3511 33.3846 23.6056 33.2785 23.7957 33.0921C23.9858 32.9056 24.0967 32.6532 24.1056 32.3871V30.4882C24.1056 30.0338 24.4327 29.624 25.0487 29.624C25.1604 29.6166 25.2725 29.6324 25.3778 29.6701C25.4832 29.7079 25.5797 29.7669 25.6614 29.8435C25.743 29.9202 25.808 30.0127 25.8524 30.1155C25.8967 30.2183 25.9195 30.3291 25.9193 30.4411V32.9165C25.9193 33.4816 26.338 33.9792 26.8954 34.0123C27.4936 34.0391 27.9849 33.5669 27.9849 32.9763V31.7634C27.9849 31.2849 28.3769 30.8929 28.8554 30.8929C29.5605 30.9718 29.8456 31.3256 29.8456 31.8092V32.5245C29.8456 33.0896 30.2644 33.5872 30.8294 33.6203C30.9698 33.6269 31.1099 33.6049 31.2415 33.5559C31.3731 33.5068 31.4935 33.4316 31.5952 33.3348C31.697 33.238 31.7782 33.1216 31.8338 32.9927C31.8894 32.8637 31.9184 32.7248 31.9189 32.5843V31.6171C31.9189 31.1194 32.3376 30.7465 32.8353 30.7529H32.8607C33.3596 30.7465 33.7771 31.1182 33.7771 31.6171V32.452C33.7771 33.0094 34.1958 33.5083 34.7533 33.5414C35.3514 33.5682 35.8427 33.096 35.8427 32.5054V28.6338H6.15381V31.8131Z" fill="#F7B346"/>
<path d="M21 9.53027V18.8034L23.9184 15.4446L21 9.53027ZM30.4462 16.3941L25.7231 20.9975L21 18.8034L30.4462 16.3941Z" fill="#E5E5E5"/>
<path d="M26.8379 27.4973L20.9999 24.4288V18.8033L26.8379 27.4973ZM15.1619 27.4973L20.9999 18.8033L16.2768 20.9975L15.1619 27.6004V27.4973ZM11.5537 16.394L18.0815 15.4446L20.9999 18.8033L11.5537 16.394Z" fill="#E5E5E5"/>
<path opacity="0.7" d="M61.776 18V8.56H58.064V6.8H67.568V8.56H63.856V18H61.776ZM73.625 9.36C74.3077 9.36 74.9157 9.49333 75.449 9.76C75.993 10.0267 76.4197 10.4373 76.729 10.992C77.0383 11.536 77.193 12.24 77.193 13.104V18H75.193V13.36C75.193 12.6027 75.0117 12.0373 74.649 11.664C74.297 11.2907 73.801 11.104 73.161 11.104C72.6917 11.104 72.2757 11.2 71.913 11.392C71.5503 11.584 71.2677 11.872 71.065 12.256C70.873 12.6293 70.777 13.104 70.777 13.68V18H68.777V6.128H70.777V11.76L70.345 11.056C70.6437 10.512 71.0757 10.096 71.641 9.808C72.217 9.50933 72.8783 9.36 73.625 9.36ZM83.6018 18.112C82.6524 18.112 81.8204 17.9253 81.1058 17.552C80.4018 17.168 79.8524 16.6453 79.4578 15.984C79.0738 15.3227 78.8818 14.5707 78.8818 13.728C78.8818 12.8747 79.0684 12.1227 79.4418 11.472C79.8258 10.8107 80.3484 10.2933 81.0098 9.92C81.6818 9.54667 82.4444 9.36 83.2978 9.36C84.1298 9.36 84.8711 9.54133 85.5218 9.904C86.1724 10.2667 86.6844 10.7787 87.0578 11.44C87.4311 12.1013 87.6178 12.88 87.6178 13.776C87.6178 13.8613 87.6124 13.9573 87.6018 14.064C87.6018 14.1707 87.5964 14.272 87.5858 14.368H80.4658V13.04H86.5298L85.7458 13.456C85.7564 12.9653 85.6551 12.5333 85.4418 12.16C85.2284 11.7867 84.9351 11.4933 84.5618 11.28C84.1991 11.0667 83.7778 10.96 83.2978 10.96C82.8071 10.96 82.3751 11.0667 82.0018 11.28C81.6391 11.4933 81.3511 11.792 81.1378 12.176C80.9351 12.5493 80.8338 12.992 80.8338 13.504V13.824C80.8338 14.336 80.9511 14.7893 81.1858 15.184C81.4204 15.5787 81.7511 15.8827 82.1778 16.096C82.6044 16.3093 83.0951 16.416 83.6498 16.416C84.1298 16.416 84.5618 16.3413 84.9458 16.192C85.3298 16.0427 85.6711 15.808 85.9698 15.488L87.0418 16.72C86.6578 17.168 86.1724 17.5147 85.5858 17.76C85.0098 17.9947 84.3484 18.112 83.6018 18.112ZM96.8568 18.112C95.9181 18.112 95.1928 17.872 94.6808 17.392C94.1688 16.9013 93.9128 16.1813 93.9128 15.232V7.568H95.9128V15.184C95.9128 15.5893 96.0141 15.904 96.2168 16.128C96.4301 16.352 96.7234 16.464 97.0968 16.464C97.5448 16.464 97.9181 16.3467 98.2168 16.112L98.7768 17.536C98.5421 17.728 98.2541 17.872 97.9128 17.968C97.5714 18.064 97.2194 18.112 96.8568 18.112ZM92.5048 11.12V9.52H98.2008V11.12H92.5048ZM103.821 18.112C102.946 18.112 102.167 17.9253 101.485 17.552C100.802 17.168 100.263 16.6453 99.8688 15.984C99.4741 15.3227 99.2768 14.5707 99.2768 13.728C99.2768 12.8747 99.4741 12.1227 99.8688 11.472C100.263 10.8107 100.802 10.2933 101.485 9.92C102.167 9.54667 102.946 9.36 103.821 9.36C104.706 9.36 105.49 9.54667 106.173 9.92C106.866 10.2933 107.405 10.8053 107.789 11.456C108.183 12.1067 108.381 12.864 108.381 13.728C108.381 14.5707 108.183 15.3227 107.789 15.984C107.405 16.6453 106.866 17.168 106.173 17.552C105.49 17.9253 104.706 18.112 103.821 18.112ZM103.821 16.4C104.311 16.4 104.749 16.2933 105.133 16.08C105.517 15.8667 105.815 15.5573 106.029 15.152C106.253 14.7467 106.365 14.272 106.365 13.728C106.365 13.1733 106.253 12.6987 106.029 12.304C105.815 11.8987 105.517 11.5893 105.133 11.376C104.749 11.1627 104.317 11.056 103.837 11.056C103.346 11.056 102.909 11.1627 102.525 11.376C102.151 11.5893 101.853 11.8987 101.629 12.304C101.405 12.6987 101.293 13.1733 101.293 13.728C101.293 14.272 101.405 14.7467 101.629 15.152C101.853 15.5573 102.151 15.8667 102.525 16.08C102.909 16.2933 103.341 16.4 103.821 16.4ZM114.869 18.112C114.176 18.112 113.541 17.952 112.965 17.632C112.4 17.312 111.947 16.832 111.605 16.192C111.275 15.5413 111.109 14.72 111.109 13.728C111.109 12.7253 111.269 11.904 111.589 11.264C111.92 10.624 112.368 10.1493 112.933 9.84C113.499 9.52 114.144 9.36 114.869 9.36C115.712 9.36 116.453 9.54133 117.093 9.904C117.744 10.2667 118.256 10.7733 118.629 11.424C119.013 12.0747 119.205 12.8427 119.205 13.728C119.205 14.6133 119.013 15.3867 118.629 16.048C118.256 16.6987 117.744 17.2053 117.093 17.568C116.453 17.9307 115.712 18.112 114.869 18.112ZM110.133 21.104V9.456H112.037V11.472L111.973 13.744L112.133 16.016V21.104H110.133ZM114.645 16.4C115.125 16.4 115.552 16.2933 115.925 16.08C116.309 15.8667 116.613 15.5573 116.837 15.152C117.061 14.7467 117.173 14.272 117.173 13.728C117.173 13.1733 117.061 12.6987 116.837 12.304C116.613 11.8987 116.309 11.5893 115.925 11.376C115.552 11.1627 115.125 11.056 114.645 11.056C114.165 11.056 113.733 11.1627 113.349 11.376C112.965 11.5893 112.661 11.8987 112.437 12.304C112.213 12.6987 112.101 13.1733 112.101 13.728C112.101 14.272 112.213 14.7467 112.437 15.152C112.661 15.5573 112.965 15.8667 113.349 16.08C113.733 16.2933 114.165 16.4 114.645 16.4ZM128.116 18.16C127.327 18.16 126.553 18.048 125.796 17.824C125.049 17.5893 124.42 17.2693 123.908 16.864L124.804 15.248C125.209 15.5787 125.7 15.8453 126.276 16.048C126.852 16.2507 127.455 16.352 128.084 16.352C128.831 16.352 129.412 16.2027 129.828 15.904C130.244 15.5947 130.452 15.1787 130.452 14.656C130.452 14.144 130.26 13.7387 129.876 13.44C129.492 13.1413 128.873 12.992 128.02 12.992H126.996V11.568L130.196 7.76L130.468 8.544H124.452V6.8H132.084V8.192L128.884 12L127.796 11.36H128.42C129.796 11.36 130.825 11.6693 131.508 12.288C132.201 12.896 132.548 13.68 132.548 14.64C132.548 15.2693 132.388 15.8507 132.068 16.384C131.748 16.9173 131.257 17.3493 130.596 17.68C129.945 18 129.119 18.16 128.116 18.16ZM140.506 18L137.37 9.456H139.258L141.946 16.992H141.05L143.866 9.456H145.546L148.282 16.992H147.402L150.17 9.456H151.946L148.794 18H146.874L144.378 11.328H144.97L142.426 18H140.506ZM153.161 18V9.456H155.161V18H153.161ZM154.169 8.048C153.796 8.048 153.487 7.93067 153.241 7.696C153.007 7.46133 152.889 7.17867 152.889 6.848C152.889 6.50667 153.007 6.224 153.241 6C153.487 5.76533 153.796 5.648 154.169 5.648C154.543 5.648 154.847 5.76 155.081 5.984C155.327 6.19733 155.449 6.46933 155.449 6.8C155.449 7.152 155.332 7.45067 155.097 7.696C154.863 7.93067 154.553 8.048 154.169 8.048ZM162.474 9.36C163.157 9.36 163.765 9.49333 164.298 9.76C164.842 10.0267 165.269 10.4373 165.578 10.992C165.888 11.536 166.042 12.24 166.042 13.104V18H164.042V13.36C164.042 12.6027 163.861 12.0373 163.498 11.664C163.146 11.2907 162.65 11.104 162.01 11.104C161.541 11.104 161.125 11.2 160.762 11.392C160.4 11.584 160.117 11.872 159.914 12.256C159.722 12.6293 159.626 13.104 159.626 13.68V18H157.626V9.456H159.53V11.76L159.194 11.056C159.493 10.512 159.925 10.096 160.49 9.808C161.066 9.50933 161.728 9.36 162.474 9.36ZM173.267 9.36C173.95 9.36 174.558 9.49333 175.091 9.76C175.635 10.0267 176.062 10.4373 176.371 10.992C176.681 11.536 176.835 12.24 176.835 13.104V18H174.835V13.36C174.835 12.6027 174.654 12.0373 174.291 11.664C173.939 11.2907 173.443 11.104 172.803 11.104C172.334 11.104 171.918 11.2 171.555 11.392C171.193 11.584 170.91 11.872 170.707 12.256C170.515 12.6293 170.419 13.104 170.419 13.68V18H168.419V9.456H170.323V11.76L169.987 11.056C170.286 10.512 170.718 10.096 171.283 9.808C171.859 9.50933 172.521 9.36 173.267 9.36ZM179.213 18V9.456H181.213V18H179.213ZM180.221 8.048C179.847 8.048 179.538 7.93067 179.293 7.696C179.058 7.46133 178.941 7.17867 178.941 6.848C178.941 6.50667 179.058 6.224 179.293 6C179.538 5.76533 179.847 5.648 180.221 5.648C180.594 5.648 180.898 5.76 181.133 5.984C181.378 6.19733 181.501 6.46933 181.501 6.8C181.501 7.152 181.383 7.45067 181.149 7.696C180.914 7.93067 180.605 8.048 180.221 8.048ZM188.526 9.36C189.208 9.36 189.816 9.49333 190.35 9.76C190.894 10.0267 191.32 10.4373 191.63 10.992C191.939 11.536 192.094 12.24 192.094 13.104V18H190.094V13.36C190.094 12.6027 189.912 12.0373 189.55 11.664C189.198 11.2907 188.702 11.104 188.062 11.104C187.592 11.104 187.176 11.2 186.814 11.392C186.451 11.584 186.168 11.872 185.966 12.256C185.774 12.6293 185.678 13.104 185.678 13.68V18H183.678V9.456H185.582V11.76L185.246 11.056C185.544 10.512 185.976 10.096 186.542 9.808C187.118 9.50933 187.779 9.36 188.526 9.36ZM198.358 21.216C197.569 21.216 196.796 21.1093 196.038 20.896C195.292 20.6933 194.678 20.3947 194.198 20L195.094 18.496C195.468 18.8053 195.937 19.0507 196.502 19.232C197.078 19.424 197.66 19.52 198.246 19.52C199.185 19.52 199.873 19.3013 200.31 18.864C200.748 18.4373 200.966 17.792 200.966 16.928V15.408L201.126 13.472L201.062 11.536V9.456H202.966V16.704C202.966 18.2507 202.572 19.3867 201.782 20.112C200.993 20.848 199.852 21.216 198.358 21.216ZM198.102 17.616C197.292 17.616 196.556 17.4453 195.894 17.104C195.244 16.752 194.726 16.2667 194.342 15.648C193.969 15.0293 193.782 14.304 193.782 13.472C193.782 12.6507 193.969 11.9307 194.342 11.312C194.726 10.6933 195.244 10.2133 195.894 9.872C196.556 9.53067 197.292 9.36 198.102 9.36C198.828 9.36 199.478 9.504 200.054 9.792C200.63 10.08 201.089 10.528 201.43 11.136C201.782 11.744 201.958 12.5227 201.958 13.472C201.958 14.4213 201.782 15.2053 201.43 15.824C201.089 16.432 200.63 16.8853 200.054 17.184C199.478 17.472 198.828 17.616 198.102 17.616ZM198.406 15.92C198.908 15.92 199.356 15.8187 199.75 15.616C200.145 15.4027 200.449 15.1147 200.662 14.752C200.886 14.3787 200.998 13.952 200.998 13.472C200.998 12.992 200.886 12.5707 200.662 12.208C200.449 11.8347 200.145 11.552 199.75 11.36C199.356 11.1573 198.908 11.056 198.406 11.056C197.905 11.056 197.452 11.1573 197.046 11.36C196.652 11.552 196.342 11.8347 196.118 12.208C195.905 12.5707 195.798 12.992 195.798 13.472C195.798 13.952 195.905 14.3787 196.118 14.752C196.342 15.1147 196.652 15.4027 197.046 15.616C197.452 15.8187 197.905 15.92 198.406 15.92ZM212.338 18.112C211.623 18.112 210.935 18.0213 210.274 17.84C209.623 17.648 209.106 17.4187 208.722 17.152L209.49 15.632C209.874 15.8773 210.332 16.08 210.866 16.24C211.399 16.4 211.932 16.48 212.466 16.48C213.095 16.48 213.548 16.3947 213.826 16.224C214.114 16.0533 214.258 15.824 214.258 15.536C214.258 15.3013 214.162 15.1253 213.97 15.008C213.778 14.88 213.527 14.784 213.218 14.72C212.908 14.656 212.562 14.5973 212.178 14.544C211.804 14.4907 211.426 14.4213 211.042 14.336C210.668 14.24 210.327 14.1067 210.018 13.936C209.708 13.7547 209.458 13.5147 209.266 13.216C209.074 12.9173 208.978 12.5227 208.978 12.032C208.978 11.488 209.132 11.0187 209.442 10.624C209.751 10.2187 210.183 9.90933 210.738 9.696C211.303 9.472 211.97 9.36 212.738 9.36C213.314 9.36 213.895 9.424 214.482 9.552C215.068 9.68 215.554 9.86133 215.938 10.096L215.17 11.616C214.764 11.3707 214.354 11.2053 213.938 11.12C213.532 11.024 213.127 10.976 212.722 10.976C212.114 10.976 211.66 11.0667 211.362 11.248C211.074 11.4293 210.93 11.6587 210.93 11.936C210.93 12.192 211.026 12.384 211.218 12.512C211.41 12.64 211.66 12.7413 211.97 12.816C212.279 12.8907 212.62 12.9547 212.994 13.008C213.378 13.0507 213.756 13.12 214.13 13.216C214.503 13.312 214.844 13.4453 215.154 13.616C215.474 13.776 215.73 14.0053 215.922 14.304C216.114 14.6027 216.21 14.992 216.21 15.472C216.21 16.0053 216.05 16.4693 215.73 16.864C215.42 17.2587 214.978 17.568 214.402 17.792C213.826 18.0053 213.138 18.112 212.338 18.112ZM221.692 18.112C220.796 18.112 219.996 17.9253 219.292 17.552C218.599 17.168 218.055 16.6453 217.66 15.984C217.265 15.3227 217.068 14.5707 217.068 13.728C217.068 12.8747 217.265 12.1227 217.66 11.472C218.055 10.8107 218.599 10.2933 219.292 9.92C219.996 9.54667 220.796 9.36 221.692 9.36C222.524 9.36 223.255 9.53067 223.884 9.872C224.524 10.2027 225.009 10.6933 225.34 11.344L223.804 12.24C223.548 11.8347 223.233 11.536 222.86 11.344C222.497 11.152 222.103 11.056 221.676 11.056C221.185 11.056 220.743 11.1627 220.348 11.376C219.953 11.5893 219.644 11.8987 219.42 12.304C219.196 12.6987 219.084 13.1733 219.084 13.728C219.084 14.2827 219.196 14.7627 219.42 15.168C219.644 15.5627 219.953 15.8667 220.348 16.08C220.743 16.2933 221.185 16.4 221.676 16.4C222.103 16.4 222.497 16.304 222.86 16.112C223.233 15.92 223.548 15.6213 223.804 15.216L225.34 16.112C225.009 16.752 224.524 17.248 223.884 17.6C223.255 17.9413 222.524 18.112 221.692 18.112ZM231.679 9.36C232.361 9.36 232.969 9.49333 233.503 9.76C234.047 10.0267 234.473 10.4373 234.783 10.992C235.092 11.536 235.247 12.24 235.247 13.104V18H233.247V13.36C233.247 12.6027 233.065 12.0373 232.703 11.664C232.351 11.2907 231.855 11.104 231.215 11.104C230.745 11.104 230.329 11.2 229.967 11.392C229.604 11.584 229.321 11.872 229.119 12.256C228.927 12.6293 228.831 13.104 228.831 13.68V18H226.831V6.128H228.831V11.76L228.399 11.056C228.697 10.512 229.129 10.096 229.695 9.808C230.271 9.50933 230.932 9.36 231.679 9.36ZM241.479 18.112C240.605 18.112 239.826 17.9253 239.143 17.552C238.461 17.168 237.922 16.6453 237.527 15.984C237.133 15.3227 236.935 14.5707 236.935 13.728C236.935 12.8747 237.133 12.1227 237.527 11.472C237.922 10.8107 238.461 10.2933 239.143 9.92C239.826 9.54667 240.605 9.36 241.479 9.36C242.365 9.36 243.149 9.54667 243.831 9.92C244.525 10.2933 245.064 10.8053 245.448 11.456C245.842 12.1067 246.04 12.864 246.04 13.728C246.04 14.5707 245.842 15.3227 245.448 15.984C245.064 16.6453 244.525 17.168 243.831 17.552C243.149 17.9253 242.365 18.112 241.479 18.112ZM241.479 16.4C241.97 16.4 242.407 16.2933 242.791 16.08C243.175 15.8667 243.474 15.5573 243.687 15.152C243.911 14.7467 244.023 14.272 244.023 13.728C244.023 13.1733 243.911 12.6987 243.687 12.304C243.474 11.8987 243.175 11.5893 242.791 11.376C242.407 11.1627 241.975 11.056 241.495 11.056C241.005 11.056 240.567 11.1627 240.183 11.376C239.81 11.5893 239.511 11.8987 239.287 12.304C239.063 12.6987 238.951 13.1733 238.951 13.728C238.951 14.272 239.063 14.7467 239.287 15.152C239.511 15.5573 239.81 15.8667 240.183 16.08C240.567 16.2933 240.999 16.4 241.479 16.4ZM251.632 18.112C250.757 18.112 249.979 17.9253 249.296 17.552C248.613 17.168 248.075 16.6453 247.68 15.984C247.285 15.3227 247.088 14.5707 247.088 13.728C247.088 12.8747 247.285 12.1227 247.68 11.472C248.075 10.8107 248.613 10.2933 249.296 9.92C249.979 9.54667 250.757 9.36 251.632 9.36C252.517 9.36 253.301 9.54667 253.984 9.92C254.677 10.2933 255.216 10.8053 255.6 11.456C255.995 12.1067 256.192 12.864 256.192 13.728C256.192 14.5707 255.995 15.3227 255.6 15.984C255.216 16.6453 254.677 17.168 253.984 17.552C253.301 17.9253 252.517 18.112 251.632 18.112ZM251.632 16.4C252.123 16.4 252.56 16.2933 252.944 16.08C253.328 15.8667 253.627 15.5573 253.84 15.152C254.064 14.7467 254.176 14.272 254.176 13.728C254.176 13.1733 254.064 12.6987 253.84 12.304C253.627 11.8987 253.328 11.5893 252.944 11.376C252.56 11.1627 252.128 11.056 251.648 11.056C251.157 11.056 250.72 11.1627 250.336 11.376C249.963 11.5893 249.664 11.8987 249.44 12.304C249.216 12.6987 249.104 13.1733 249.104 13.728C249.104 14.272 249.216 14.7467 249.44 15.152C249.664 15.5573 249.963 15.8667 250.336 16.08C250.72 16.2933 251.152 16.4 251.632 16.4ZM257.945 18V6.128H259.945V18H257.945ZM265.05 18.112C264.335 18.112 263.647 18.0213 262.986 17.84C262.335 17.648 261.818 17.4187 261.434 17.152L262.202 15.632C262.586 15.8773 263.044 16.08 263.578 16.24C264.111 16.4 264.644 16.48 265.178 16.48C265.807 16.48 266.26 16.3947 266.538 16.224C266.826 16.0533 266.97 15.824 266.97 15.536C266.97 15.3013 266.874 15.1253 266.682 15.008C266.49 14.88 266.239 14.784 265.93 14.72C265.62 14.656 265.274 14.5973 264.89 14.544C264.516 14.4907 264.138 14.4213 263.754 14.336C263.38 14.24 263.039 14.1067 262.73 13.936C262.42 13.7547 262.17 13.5147 261.978 13.216C261.786 12.9173 261.69 12.5227 261.69 12.032C261.69 11.488 261.844 11.0187 262.154 10.624C262.463 10.2187 262.895 9.90933 263.45 9.696C264.015 9.472 264.682 9.36 265.45 9.36C266.026 9.36 266.607 9.424 267.194 9.552C267.78 9.68 268.266 9.86133 268.65 10.096L267.882 11.616C267.476 11.3707 267.066 11.2053 266.65 11.12C266.244 11.024 265.839 10.976 265.434 10.976C264.826 10.976 264.372 11.0667 264.074 11.248C263.786 11.4293 263.642 11.6587 263.642 11.936C263.642 12.192 263.738 12.384 263.93 12.512C264.122 12.64 264.372 12.7413 264.682 12.816C264.991 12.8907 265.332 12.9547 265.706 13.008C266.09 13.0507 266.468 13.12 266.842 13.216C267.215 13.312 267.556 13.4453 267.866 13.616C268.186 13.776 268.442 14.0053 268.634 14.304C268.826 14.6027 268.922 14.992 268.922 15.472C268.922 16.0053 268.762 16.4693 268.442 16.864C268.132 17.2587 267.69 17.568 267.114 17.792C266.538 18.0053 265.85 18.112 265.05 18.112ZM274.746 18V9.456H276.746V18H274.746ZM275.754 8.048C275.38 8.048 275.071 7.93067 274.826 7.696C274.591 7.46133 274.474 7.17867 274.474 6.848C274.474 6.50667 274.591 6.224 274.826 6C275.071 5.76533 275.38 5.648 275.754 5.648C276.127 5.648 276.431 5.76 276.666 5.984C276.911 6.19733 277.034 6.46933 277.034 6.8C277.034 7.152 276.916 7.45067 276.682 7.696C276.447 7.93067 276.138 8.048 275.754 8.048ZM284.059 9.36C284.741 9.36 285.349 9.49333 285.883 9.76C286.427 10.0267 286.853 10.4373 287.163 10.992C287.472 11.536 287.627 12.24 287.627 13.104V18H285.627V13.36C285.627 12.6027 285.445 12.0373 285.083 11.664C284.731 11.2907 284.235 11.104 283.595 11.104C283.125 11.104 282.709 11.2 282.347 11.392C281.984 11.584 281.701 11.872 281.499 12.256C281.307 12.6293 281.211 13.104 281.211 13.68V18H279.211V9.456H281.115V11.76L280.779 11.056C281.077 10.512 281.509 10.096 282.075 9.808C282.651 9.50933 283.312 9.36 284.059 9.36ZM63.328 36.112C62.3787 36.112 61.5467 35.9253 60.832 35.552C60.128 35.168 59.5787 34.6453 59.184 33.984C58.8 33.3227 58.608 32.5707 58.608 31.728C58.608 30.8747 58.7947 30.1227 59.168 29.472C59.552 28.8107 60.0747 28.2933 60.736 27.92C61.408 27.5467 62.1707 27.36 63.024 27.36C63.856 27.36 64.5973 27.5413 65.248 27.904C65.8987 28.2667 66.4107 28.7787 66.784 29.44C67.1573 30.1013 67.344 30.88 67.344 31.776C67.344 31.8613 67.3387 31.9573 67.328 32.064C67.328 32.1707 67.3227 32.272 67.312 32.368H60.192V31.04H66.256L65.472 31.456C65.4827 30.9653 65.3813 30.5333 65.168 30.16C64.9547 29.7867 64.6613 29.4933 64.288 29.28C63.9253 29.0667 63.504 28.96 63.024 28.96C62.5333 28.96 62.1013 29.0667 61.728 29.28C61.3653 29.4933 61.0773 29.792 60.864 30.176C60.6613 30.5493 60.56 30.992 60.56 31.504V31.824C60.56 32.336 60.6773 32.7893 60.912 33.184C61.1467 33.5787 61.4773 33.8827 61.904 34.096C62.3307 34.3093 62.8213 34.416 63.376 34.416C63.856 34.416 64.288 34.3413 64.672 34.192C65.056 34.0427 65.3973 33.808 65.696 33.488L66.768 34.72C66.384 35.168 65.8987 35.5147 65.312 35.76C64.736 35.9947 64.0747 36.112 63.328 36.112ZM74.1348 36V34.272L74.0228 33.904V30.88C74.0228 30.2933 73.8468 29.84 73.4948 29.52C73.1428 29.1893 72.6094 29.024 71.8948 29.024C71.4148 29.024 70.9401 29.0987 70.4708 29.248C70.0121 29.3973 69.6228 29.6053 69.3028 29.872L68.5188 28.416C68.9774 28.064 69.5214 27.8027 70.1508 27.632C70.7908 27.4507 71.4521 27.36 72.1348 27.36C73.3721 27.36 74.3268 27.6587 74.9988 28.256C75.6814 28.8427 76.0228 29.7547 76.0228 30.992V36H74.1348ZM71.4468 36.112C70.8068 36.112 70.2468 36.0053 69.7668 35.792C69.2868 35.568 68.9134 35.264 68.6468 34.88C68.3908 34.4853 68.2628 34.0427 68.2628 33.552C68.2628 33.072 68.3748 32.64 68.5988 32.256C68.8334 31.872 69.2121 31.568 69.7348 31.344C70.2574 31.12 70.9508 31.008 71.8148 31.008H74.2948V32.336H71.9588C71.2761 32.336 70.8174 32.448 70.5828 32.672C70.3481 32.8853 70.2308 33.152 70.2308 33.472C70.2308 33.8347 70.3748 34.1227 70.6628 34.336C70.9508 34.5493 71.3508 34.656 71.8628 34.656C72.3534 34.656 72.7908 34.544 73.1748 34.32C73.5694 34.096 73.8521 33.7653 74.0228 33.328L74.3588 34.528C74.1668 35.0293 73.8201 35.4187 73.3188 35.696C72.8281 35.9733 72.2041 36.112 71.4468 36.112ZM82.3651 36.112C81.4691 36.112 80.6691 35.9253 79.9651 35.552C79.2718 35.168 78.7278 34.6453 78.3331 33.984C77.9385 33.3227 77.7411 32.5707 77.7411 31.728C77.7411 30.8747 77.9385 30.1227 78.3331 29.472C78.7278 28.8107 79.2718 28.2933 79.9651 27.92C80.6691 27.5467 81.4691 27.36 82.3651 27.36C83.1971 27.36 83.9278 27.5307 84.5571 27.872C85.1971 28.2027 85.6825 28.6933 86.0131 29.344L84.4771 30.24C84.2211 29.8347 83.9065 29.536 83.5331 29.344C83.1705 29.152 82.7758 29.056 82.3491 29.056C81.8585 29.056 81.4158 29.1627 81.0211 29.376C80.6265 29.5893 80.3171 29.8987 80.0931 30.304C79.8691 30.6987 79.7571 31.1733 79.7571 31.728C79.7571 32.2827 79.8691 32.7627 80.0931 33.168C80.3171 33.5627 80.6265 33.8667 81.0211 34.08C81.4158 34.2933 81.8585 34.4 82.3491 34.4C82.7758 34.4 83.1705 34.304 83.5331 34.112C83.9065 33.92 84.2211 33.6213 84.4771 33.216L86.0131 34.112C85.6825 34.752 85.1971 35.248 84.5571 35.6C83.9278 35.9413 83.1971 36.112 82.3651 36.112ZM92.3519 27.36C93.0345 27.36 93.6425 27.4933 94.1759 27.76C94.7199 28.0267 95.1465 28.4373 95.4559 28.992C95.7652 29.536 95.9199 30.24 95.9199 31.104V36H93.9199V31.36C93.9199 30.6027 93.7385 30.0373 93.3759 29.664C93.0239 29.2907 92.5279 29.104 91.8879 29.104C91.4185 29.104 91.0025 29.2 90.6399 29.392C90.2772 29.584 89.9945 29.872 89.7919 30.256C89.5999 30.6293 89.5039 31.104 89.5039 31.68V36H87.5039V24.128H89.5039V29.76L89.0719 29.056C89.3705 28.512 89.8025 28.096 90.3679 27.808C90.9439 27.5093 91.6052 27.36 92.3519 27.36ZM106.479 36.112C105.583 36.112 104.783 35.9253 104.079 35.552C103.386 35.168 102.842 34.6453 102.447 33.984C102.052 33.3227 101.855 32.5707 101.855 31.728C101.855 30.8747 102.052 30.1227 102.447 29.472C102.842 28.8107 103.386 28.2933 104.079 27.92C104.783 27.5467 105.583 27.36 106.479 27.36C107.311 27.36 108.042 27.5307 108.671 27.872C109.311 28.2027 109.796 28.6933 110.127 29.344L108.591 30.24C108.335 29.8347 108.02 29.536 107.647 29.344C107.284 29.152 106.89 29.056 106.463 29.056C105.972 29.056 105.53 29.1627 105.135 29.376C104.74 29.5893 104.431 29.8987 104.207 30.304C103.983 30.6987 103.871 31.1733 103.871 31.728C103.871 32.2827 103.983 32.7627 104.207 33.168C104.431 33.5627 104.74 33.8667 105.135 34.08C105.53 34.2933 105.972 34.4 106.463 34.4C106.89 34.4 107.284 34.304 107.647 34.112C108.02 33.92 108.335 33.6213 108.591 33.216L110.127 34.112C109.796 34.752 109.311 35.248 108.671 35.6C108.042 35.9413 107.311 36.112 106.479 36.112ZM116.96 36V34.272L116.848 33.904V30.88C116.848 30.2933 116.672 29.84 116.32 29.52C115.968 29.1893 115.434 29.024 114.72 29.024C114.24 29.024 113.765 29.0987 113.296 29.248C112.837 29.3973 112.448 29.6053 112.128 29.872L111.344 28.416C111.802 28.064 112.346 27.8027 112.976 27.632C113.616 27.4507 114.277 27.36 114.96 27.36C116.197 27.36 117.152 27.6587 117.824 28.256C118.506 28.8427 118.848 29.7547 118.848 30.992V36H116.96ZM114.272 36.112C113.632 36.112 113.072 36.0053 112.592 35.792C112.112 35.568 111.738 35.264 111.472 34.88C111.216 34.4853 111.088 34.0427 111.088 33.552C111.088 33.072 111.2 32.64 111.424 32.256C111.658 31.872 112.037 31.568 112.56 31.344C113.082 31.12 113.776 31.008 114.64 31.008H117.12V32.336H114.784C114.101 32.336 113.642 32.448 113.408 32.672C113.173 32.8853 113.056 33.152 113.056 33.472C113.056 33.8347 113.2 34.1227 113.488 34.336C113.776 34.5493 114.176 34.656 114.688 34.656C115.178 34.656 115.616 34.544 116 34.32C116.394 34.096 116.677 33.7653 116.848 33.328L117.184 34.528C116.992 35.0293 116.645 35.4187 116.144 35.696C115.653 35.9733 115.029 36.112 114.272 36.112ZM124.471 36.112C123.532 36.112 122.807 35.872 122.295 35.392C121.783 34.9013 121.527 34.1813 121.527 33.232V25.568H123.527V33.184C123.527 33.5893 123.628 33.904 123.831 34.128C124.044 34.352 124.337 34.464 124.711 34.464C125.159 34.464 125.532 34.3467 125.831 34.112L126.391 35.536C126.156 35.728 125.868 35.872 125.527 35.968C125.185 36.064 124.833 36.112 124.471 36.112ZM120.119 29.12V27.52H125.815V29.12H120.119ZM131.611 36.112C130.661 36.112 129.829 35.9253 129.115 35.552C128.411 35.168 127.861 34.6453 127.467 33.984C127.083 33.3227 126.891 32.5707 126.891 31.728C126.891 30.8747 127.077 30.1227 127.451 29.472C127.835 28.8107 128.357 28.2933 129.019 27.92C129.691 27.5467 130.453 27.36 131.307 27.36C132.139 27.36 132.88 27.5413 133.531 27.904C134.181 28.2667 134.693 28.7787 135.067 29.44C135.44 30.1013 135.627 30.88 135.627 31.776C135.627 31.8613 135.621 31.9573 135.611 32.064C135.611 32.1707 135.605 32.272 135.595 32.368H128.475V31.04H134.539L133.755 31.456C133.765 30.9653 133.664 30.5333 133.451 30.16C133.237 29.7867 132.944 29.4933 132.571 29.28C132.208 29.0667 131.787 28.96 131.307 28.96C130.816 28.96 130.384 29.0667 130.011 29.28C129.648 29.4933 129.36 29.792 129.147 30.176C128.944 30.5493 128.843 30.992 128.843 31.504V31.824C128.843 32.336 128.96 32.7893 129.195 33.184C129.429 33.5787 129.76 33.8827 130.187 34.096C130.613 34.3093 131.104 34.416 131.659 34.416C132.139 34.416 132.571 34.3413 132.955 34.192C133.339 34.0427 133.68 33.808 133.979 33.488L135.051 34.72C134.667 35.168 134.181 35.5147 133.595 35.76C133.019 35.9947 132.357 36.112 131.611 36.112ZM141.26 39.216C140.47 39.216 139.697 39.1093 138.94 38.896C138.193 38.6933 137.58 38.3947 137.1 38L137.996 36.496C138.369 36.8053 138.838 37.0507 139.404 37.232C139.98 37.424 140.561 37.52 141.148 37.52C142.086 37.52 142.774 37.3013 143.212 36.864C143.649 36.4373 143.868 35.792 143.868 34.928V33.408L144.028 31.472L143.964 29.536V27.456H145.868V34.704C145.868 36.2507 145.473 37.3867 144.684 38.112C143.894 38.848 142.753 39.216 141.26 39.216ZM141.004 35.616C140.193 35.616 139.457 35.4453 138.796 35.104C138.145 34.752 137.628 34.2667 137.244 33.648C136.87 33.0293 136.684 32.304 136.684 31.472C136.684 30.6507 136.87 29.9307 137.244 29.312C137.628 28.6933 138.145 28.2133 138.796 27.872C139.457 27.5307 140.193 27.36 141.004 27.36C141.729 27.36 142.38 27.504 142.956 27.792C143.532 28.08 143.99 28.528 144.332 29.136C144.684 29.744 144.86 30.5227 144.86 31.472C144.86 32.4213 144.684 33.2053 144.332 33.824C143.99 34.432 143.532 34.8853 142.956 35.184C142.38 35.472 141.729 35.616 141.004 35.616ZM141.308 33.92C141.809 33.92 142.257 33.8187 142.652 33.616C143.046 33.4027 143.35 33.1147 143.564 32.752C143.788 32.3787 143.9 31.952 143.9 31.472C143.9 30.992 143.788 30.5707 143.564 30.208C143.35 29.8347 143.046 29.552 142.652 29.36C142.257 29.1573 141.809 29.056 141.308 29.056C140.806 29.056 140.353 29.1573 139.948 29.36C139.553 29.552 139.244 29.8347 139.02 30.208C138.806 30.5707 138.7 30.992 138.7 31.472C138.7 31.952 138.806 32.3787 139.02 32.752C139.244 33.1147 139.553 33.4027 139.948 33.616C140.353 33.8187 140.806 33.92 141.308 33.92ZM152.177 36.112C151.302 36.112 150.524 35.9253 149.841 35.552C149.158 35.168 148.62 34.6453 148.225 33.984C147.83 33.3227 147.633 32.5707 147.633 31.728C147.633 30.8747 147.83 30.1227 148.225 29.472C148.62 28.8107 149.158 28.2933 149.841 27.92C150.524 27.5467 151.302 27.36 152.177 27.36C153.062 27.36 153.846 27.5467 154.529 27.92C155.222 28.2933 155.761 28.8053 156.145 29.456C156.54 30.1067 156.737 30.864 156.737 31.728C156.737 32.5707 156.54 33.3227 156.145 33.984C155.761 34.6453 155.222 35.168 154.529 35.552C153.846 35.9253 153.062 36.112 152.177 36.112ZM152.177 34.4C152.668 34.4 153.105 34.2933 153.489 34.08C153.873 33.8667 154.172 33.5573 154.385 33.152C154.609 32.7467 154.721 32.272 154.721 31.728C154.721 31.1733 154.609 30.6987 154.385 30.304C154.172 29.8987 153.873 29.5893 153.489 29.376C153.105 29.1627 152.673 29.056 152.193 29.056C151.702 29.056 151.265 29.1627 150.881 29.376C150.508 29.5893 150.209 29.8987 149.985 30.304C149.761 30.6987 149.649 31.1733 149.649 31.728C149.649 32.272 149.761 32.7467 149.985 33.152C150.209 33.5573 150.508 33.8667 150.881 34.08C151.265 34.2933 151.697 34.4 152.177 34.4ZM158.489 36V27.456H160.393V29.808L160.169 29.12C160.425 28.544 160.825 28.1067 161.369 27.808C161.924 27.5093 162.612 27.36 163.433 27.36V29.264C163.348 29.2427 163.268 29.232 163.193 29.232C163.119 29.2213 163.044 29.216 162.969 29.216C162.212 29.216 161.609 29.44 161.161 29.888C160.713 30.3253 160.489 30.9813 160.489 31.856V36H158.489ZM165.987 39.216C165.571 39.216 165.155 39.1467 164.739 39.008C164.323 38.8693 163.976 38.6773 163.699 38.432L164.499 36.96C164.701 37.1413 164.931 37.2853 165.187 37.392C165.443 37.4987 165.704 37.552 165.971 37.552C166.333 37.552 166.627 37.4613 166.851 37.28C167.075 37.0987 167.283 36.7947 167.475 36.368L167.971 35.248L168.131 35.008L171.363 27.456H173.283L169.283 36.688C169.016 37.328 168.717 37.8347 168.387 38.208C168.067 38.5813 167.704 38.8427 167.299 38.992C166.904 39.1413 166.467 39.216 165.987 39.216ZM167.747 36.304L163.891 27.456H165.971L169.107 34.832L167.747 36.304ZM180.523 36L177.387 27.456H179.275L181.963 34.992H181.067L183.883 27.456H185.563L188.299 34.992H187.419L190.187 27.456H191.963L188.811 36H186.891L184.395 29.328H184.987L182.443 36H180.523ZM193.178 36V27.456H195.178V36H193.178ZM194.186 26.048C193.812 26.048 193.503 25.9307 193.258 25.696C193.023 25.4613 192.906 25.1787 192.906 24.848C192.906 24.5067 193.023 24.224 193.258 24C193.503 23.7653 193.812 23.648 194.186 23.648C194.559 23.648 194.863 23.76 195.098 23.984C195.343 24.1973 195.466 24.4693 195.466 24.8C195.466 25.152 195.348 25.4507 195.114 25.696C194.879 25.9307 194.57 26.048 194.186 26.048ZM197.643 36V24.128H199.643V36H197.643ZM202.108 36V24.128H204.108V36H202.108ZM214.707 39.216C213.917 39.216 213.144 39.1093 212.387 38.896C211.64 38.6933 211.027 38.3947 210.547 38L211.443 36.496C211.816 36.8053 212.285 37.0507 212.851 37.232C213.427 37.424 214.008 37.52 214.595 37.52C215.533 37.52 216.221 37.3013 216.659 36.864C217.096 36.4373 217.315 35.792 217.315 34.928V33.408L217.475 31.472L217.411 29.536V27.456H219.315V34.704C219.315 36.2507 218.92 37.3867 218.131 38.112C217.341 38.848 216.2 39.216 214.707 39.216ZM214.451 35.616C213.64 35.616 212.904 35.4453 212.243 35.104C211.592 34.752 211.075 34.2667 210.691 33.648C210.317 33.0293 210.131 32.304 210.131 31.472C210.131 30.6507 210.317 29.9307 210.691 29.312C211.075 28.6933 211.592 28.2133 212.243 27.872C212.904 27.5307 213.64 27.36 214.451 27.36C215.176 27.36 215.827 27.504 216.403 27.792C216.979 28.08 217.437 28.528 217.779 29.136C218.131 29.744 218.307 30.5227 218.307 31.472C218.307 32.4213 218.131 33.2053 217.779 33.824C217.437 34.432 216.979 34.8853 216.403 35.184C215.827 35.472 215.176 35.616 214.451 35.616ZM214.755 33.92C215.256 33.92 215.704 33.8187 216.099 33.616C216.493 33.4027 216.797 33.1147 217.011 32.752C217.235 32.3787 217.347 31.952 217.347 31.472C217.347 30.992 217.235 30.5707 217.011 30.208C216.797 29.8347 216.493 29.552 216.099 29.36C215.704 29.1573 215.256 29.056 214.755 29.056C214.253 29.056 213.8 29.1573 213.395 29.36C213 29.552 212.691 29.8347 212.467 30.208C212.253 30.5707 212.147 30.992 212.147 31.472C212.147 31.952 212.253 32.3787 212.467 32.752C212.691 33.1147 213 33.4027 213.395 33.616C213.8 33.8187 214.253 33.92 214.755 33.92ZM225.8 36.112C224.851 36.112 224.019 35.9253 223.304 35.552C222.6 35.168 222.051 34.6453 221.656 33.984C221.272 33.3227 221.08 32.5707 221.08 31.728C221.08 30.8747 221.267 30.1227 221.64 29.472C222.024 28.8107 222.547 28.2933 223.208 27.92C223.88 27.5467 224.643 27.36 225.496 27.36C226.328 27.36 227.069 27.5413 227.72 27.904C228.371 28.2667 228.883 28.7787 229.256 29.44C229.629 30.1013 229.816 30.88 229.816 31.776C229.816 31.8613 229.811 31.9573 229.8 32.064C229.8 32.1707 229.795 32.272 229.784 32.368H222.664V31.04H228.728L227.944 31.456C227.955 30.9653 227.853 30.5333 227.64 30.16C227.427 29.7867 227.133 29.4933 226.76 29.28C226.397 29.0667 225.976 28.96 225.496 28.96C225.005 28.96 224.573 29.0667 224.2 29.28C223.837 29.4933 223.549 29.792 223.336 30.176C223.133 30.5493 223.032 30.992 223.032 31.504V31.824C223.032 32.336 223.149 32.7893 223.384 33.184C223.619 33.5787 223.949 33.8827 224.376 34.096C224.803 34.3093 225.293 34.416 225.848 34.416C226.328 34.416 226.76 34.3413 227.144 34.192C227.528 34.0427 227.869 33.808 228.168 33.488L229.24 34.72C228.856 35.168 228.371 35.5147 227.784 35.76C227.208 35.9947 226.547 36.112 225.8 36.112ZM234.793 36.112C233.854 36.112 233.129 35.872 232.617 35.392C232.105 34.9013 231.849 34.1813 231.849 33.232V25.568H233.849V33.184C233.849 33.5893 233.95 33.904 234.153 34.128C234.366 34.352 234.66 34.464 235.033 34.464C235.481 34.464 235.854 34.3467 236.153 34.112L236.713 35.536C236.478 35.728 236.19 35.872 235.849 35.968C235.508 36.064 235.156 36.112 234.793 36.112ZM230.441 29.12V27.52H236.137V29.12H230.441ZM247.724 36V34.272L247.612 33.904V30.88C247.612 30.2933 247.436 29.84 247.084 29.52C246.732 29.1893 246.199 29.024 245.484 29.024C245.004 29.024 244.529 29.0987 244.06 29.248C243.601 29.3973 243.212 29.6053 242.892 29.872L242.108 28.416C242.567 28.064 243.111 27.8027 243.74 27.632C244.38 27.4507 245.041 27.36 245.724 27.36C246.961 27.36 247.916 27.6587 248.588 28.256C249.271 28.8427 249.612 29.7547 249.612 30.992V36H247.724ZM245.036 36.112C244.396 36.112 243.836 36.0053 243.356 35.792C242.876 35.568 242.503 35.264 242.236 34.88C241.98 34.4853 241.852 34.0427 241.852 33.552C241.852 33.072 241.964 32.64 242.188 32.256C242.423 31.872 242.801 31.568 243.324 31.344C243.847 31.12 244.54 31.008 245.404 31.008H247.884V32.336H245.548C244.865 32.336 244.407 32.448 244.172 32.672C243.937 32.8853 243.82 33.152 243.82 33.472C243.82 33.8347 243.964 34.1227 244.252 34.336C244.54 34.5493 244.94 34.656 245.452 34.656C245.943 34.656 246.38 34.544 246.764 34.32C247.159 34.096 247.441 33.7653 247.612 33.328L247.948 34.528C247.756 35.0293 247.409 35.4187 246.908 35.696C246.417 35.9733 245.793 36.112 245.036 36.112ZM256.867 27.36C257.55 27.36 258.158 27.4933 258.691 27.76C259.235 28.0267 259.662 28.4373 259.971 28.992C260.28 29.536 260.435 30.24 260.435 31.104V36H258.435V31.36C258.435 30.6027 258.254 30.0373 257.891 29.664C257.539 29.2907 257.043 29.104 256.403 29.104C255.934 29.104 255.518 29.2 255.155 29.392C254.792 29.584 254.51 29.872 254.307 30.256C254.115 30.6293 254.019 31.104 254.019 31.68V36H252.019V27.456H253.923V29.76L253.587 29.056C253.886 28.512 254.318 28.096 254.883 27.808C255.459 27.5093 256.12 27.36 256.867 27.36ZM272.338 36V34.272L272.226 33.904V30.88C272.226 30.2933 272.05 29.84 271.698 29.52C271.346 29.1893 270.813 29.024 270.098 29.024C269.618 29.024 269.143 29.0987 268.674 29.248C268.215 29.3973 267.826 29.6053 267.506 29.872L266.722 28.416C267.181 28.064 267.725 27.8027 268.354 27.632C268.994 27.4507 269.655 27.36 270.338 27.36C271.575 27.36 272.53 27.6587 273.202 28.256C273.885 28.8427 274.226 29.7547 274.226 30.992V36H272.338ZM269.65 36.112C269.01 36.112 268.45 36.0053 267.97 35.792C267.49 35.568 267.117 35.264 266.85 34.88C266.594 34.4853 266.466 34.0427 266.466 33.552C266.466 33.072 266.578 32.64 266.802 32.256C267.037 31.872 267.415 31.568 267.938 31.344C268.461 31.12 269.154 31.008 270.018 31.008H272.498V32.336H270.162C269.479 32.336 269.021 32.448 268.786 32.672C268.551 32.8853 268.434 33.152 268.434 33.472C268.434 33.8347 268.578 34.1227 268.866 34.336C269.154 34.5493 269.554 34.656 270.066 34.656C270.557 34.656 270.994 34.544 271.378 34.32C271.773 34.096 272.055 33.7653 272.226 33.328L272.562 34.528C272.37 35.0293 272.023 35.4187 271.522 35.696C271.031 35.9733 270.407 36.112 269.65 36.112ZM278.364 36L275.228 27.456H277.116L279.804 34.992H278.908L281.724 27.456H283.404L286.14 34.992H285.26L288.028 27.456H289.804L286.652 36H284.732L282.236 29.328H282.828L280.284 36H278.364ZM296.018 36V34.272L295.906 33.904V30.88C295.906 30.2933 295.73 29.84 295.378 29.52C295.026 29.1893 294.493 29.024 293.778 29.024C293.298 29.024 292.823 29.0987 292.354 29.248C291.895 29.3973 291.506 29.6053 291.186 29.872L290.402 28.416C290.861 28.064 291.405 27.8027 292.034 27.632C292.674 27.4507 293.335 27.36 294.018 27.36C295.255 27.36 296.21 27.6587 296.882 28.256C297.565 28.8427 297.906 29.7547 297.906 30.992V36H296.018ZM293.33 36.112C292.69 36.112 292.13 36.0053 291.65 35.792C291.17 35.568 290.797 35.264 290.53 34.88C290.274 34.4853 290.146 34.0427 290.146 33.552C290.146 33.072 290.258 32.64 290.482 32.256C290.717 31.872 291.095 31.568 291.618 31.344C292.141 31.12 292.834 31.008 293.698 31.008H296.178V32.336H293.842C293.159 32.336 292.701 32.448 292.466 32.672C292.231 32.8853 292.114 33.152 292.114 33.472C292.114 33.8347 292.258 34.1227 292.546 34.336C292.834 34.5493 293.234 34.656 293.746 34.656C294.237 34.656 294.674 34.544 295.058 34.32C295.453 34.096 295.735 33.7653 295.906 33.328L296.242 34.528C296.05 35.0293 295.703 35.4187 295.202 35.696C294.711 35.9733 294.087 36.112 293.33 36.112ZM300.313 36V27.456H302.217V29.808L301.993 29.12C302.249 28.544 302.649 28.1067 303.193 27.808C303.747 27.5093 304.435 27.36 305.257 27.36V29.264C305.171 29.2427 305.091 29.232 305.017 29.232C304.942 29.2213 304.867 29.216 304.793 29.216C304.035 29.216 303.433 29.44 302.985 29.888C302.537 30.3253 302.313 30.9813 302.313 31.856V36H300.313ZM310.331 36.112C309.51 36.112 308.768 35.9307 308.107 35.568C307.456 35.1947 306.944 34.6827 306.571 34.032C306.198 33.3813 306.011 32.6133 306.011 31.728C306.011 30.8427 306.198 30.0747 306.571 29.424C306.944 28.7733 307.456 28.2667 308.107 27.904C308.768 27.5413 309.51 27.36 310.331 27.36C311.046 27.36 311.686 27.52 312.251 27.84C312.816 28.1493 313.264 28.624 313.595 29.264C313.926 29.904 314.091 30.7253 314.091 31.728C314.091 32.72 313.931 33.5413 313.611 34.192C313.291 34.832 312.848 35.312 312.283 35.632C311.718 35.952 311.067 36.112 310.331 36.112ZM310.571 34.4C311.051 34.4 311.478 34.2933 311.851 34.08C312.235 33.8667 312.539 33.5573 312.763 33.152C312.998 32.7467 313.115 32.272 313.115 31.728C313.115 31.1733 312.998 30.6987 312.763 30.304C312.539 29.8987 312.235 29.5893 311.851 29.376C311.478 29.1627 311.051 29.056 310.571 29.056C310.091 29.056 309.659 29.1627 309.275 29.376C308.902 29.5893 308.598 29.8987 308.363 30.304C308.139 30.6987 308.027 31.1733 308.027 31.728C308.027 32.272 308.139 32.7467 308.363 33.152C308.598 33.5573 308.902 33.8667 309.275 34.08C309.659 34.2933 310.091 34.4 310.571 34.4ZM313.163 36V33.984L313.243 31.712L313.083 29.44V24.128H315.067V36H313.163Z" fill="#301446"/>
</svg>
